<svg xmlns="http://www.w3.org/2000/svg" viewBox="0 0 241.4773 187">
    <defs>
        <style>
            .cls-1 {
                fill: #d1d3d4;
            }

            .cls-2 {
                fill: #65ce21;
            }
        </style>
    </defs>
    <g>
        <path class="cls-1"
              d="M16.3029,106.27c15.109,9.3646,28.0479,24.5769,37.82,39.2223,2.8518,4.274,6.046,12.2167,12.0753,12.84,3.2215.333,6.6165-1.7656,9.4437-3.0454,4.4022-1.9927,8.8538-3.5791,13.3758-5.2444a.6124.6124,0,0,0-.162-1.197c-3.4411-.0546-6.5528,1.12-9.6848,2.47-4.0134,1.7292-10.5142,6.5813-14.9366,4.2718-3.8144-1.992-6.2027-7.6348-8.466-11.0565Q52.86,140.135,49.6572,135.96A146.7566,146.7566,0,0,0,33.7457,118.289c-5.042-4.722-10.6557-10.0794-17.2374-12.5059-.2917-.1076-.4538.3333-.2054.4873Z"/>
        <path class="cls-1"
              d="M1.6165,91.1429c7.7908,5.26,14.9587,11.2521,22.3545,17.0185a.33.33,0,0,0,.4668-.4668C18.3821,100.413,9.71,95.7446,1.8472,90.7483c-.25-.159-.4725.2313-.2307.3946Z"/>
        <path class="cls-1"
              d="M170.4615,140.8974c-4.5157,3.3326-6.0858,11.4289-2.9513,16.1434a.55.55,0,0,0,1.0173-.2755c-.0705-2.4684-.9753-4.8032-.9162-7.309a13.3894,13.3894,0,0,1,3.0348-8.32c.0956-.122-.0318-.352-.1846-.2393Z"/>
        <path class="cls-1"
              d="M227.9716,163.0522c-3.1923,2.7416-5.6374,9.3841-2.8475,13.1457a.3718.3718,0,0,0,.6861-.1858c.2127-2.2145-.3233-4.3295.1178-6.5717a17.7975,17.7975,0,0,1,2.5221-6.019c.1919-.3078-.2268-.5854-.4785-.3692Z"/>
        <path class="cls-1"
              d="M225.6514,175.7629c-2.8945-7.7506-12.6674-12.557-19.9691-15.1033-4.6109-1.6079-9.363-2.49-14.0888-3.655-5.072-1.25-8.6648-3.6608-13.0246-6.3177-.6019-.3667-1.5444.2539-1.2682.975,2.6346,6.8769,12.0513,8.198,18.3356,9.5626,5.5108,1.1967,11.0264,2.5258,16.1456,4.9573,5.2847,2.51,8.7241,6.407,13.148,10.001.2963.2407.8887.0279.7215-.42Z"/>
        <path class="cls-1"
              d="M232.45,172.3426c-1.3965,2.0631-1.5128,4.9-1.5657,7.3165a1.0535,1.0535,0,0,0,1.3205,1.0059c1.5806-.4226,2.931-2.0537,3.9384-3.2575,1.0476-1.2519,2.3608-2.8023,2.29-4.5253a.5255.5255,0,0,0-.7833-.45c-1.1393.7337-1.7792,2.0149-2.6055,3.0569-.8089,1.02-2.1077,2.7635-3.3943,3.1636l1.32,1.0059c-.0432-2.3573.5318-4.7411.3547-7.0794a.474.474,0,0,0-.8753-.2371Z"/>
        <path class="cls-1"
              d="M121.7788,109.3463c-11.8244-.4013-25.4665,6.0689-23.5372,19.9546,1.63,11.7323,13.4988,19.5378,24.6346,20.4224,11.3979.9054,25.103-5.8727,28.7564-17.3235,1.866-5.8486-.1566-11.8148-3.7549-16.5969-3.5878-4.7682-10.2824-5.76-15.9565-5.38a.8675.8675,0,0,0-.2294,1.6957c5.4031,1.5805,11.3325,1.14,14.6791,6.4091,3.1787,5.0046,4.3173,10.2573,1.3022,15.6782-4.6085,8.2858-14.701,13.1924-23.9932,12.7656-9.6237-.4421-20.1956-6.5406-22.7458-16.365a14.739,14.739,0,0,1,4.0466-14.8042c4.6738-4.2236,10.808-4.8234,16.7981-5.2367a.61.61,0,0,0,0-1.2188Z"/>
        <path class="cls-1"
              d="M99.1454,124.6528a19.9881,19.9881,0,0,1,7.456-14.5538c3.8031-3.044,8.2982-4.0129,12.6672-5.866.4908-.2081.22-.9793-.2627-.97-10.87.2113-21.8053,10.17-20.4445,21.39a.2922.2922,0,0,0,.584,0Z"/>
        <path class="cls-1"
              d="M149.7575,134.6884c8.38-10.0495.97-28.588-11.9487-30.5993a.6764.6764,0,0,0-.5184,1.23c4.8639,3.5172,9.6648,5.913,12.3615,11.6709,2.637,5.6307,2.2049,11.7583-.3729,17.3294-.1335.2884.2395.6559.4785.3692Z"/>
        <path class="cls-1"
              d="M121.73,43.9355c-4.94,7.5045-9.3734,15.4229-13.9916,23.1323-4.5977,7.6751-9.7976,15.233-13.6866,23.2929a.4193.4193,0,0,0,.7235.4229c5.2951-7.2105,9.49-15.3914,13.99-23.1153,4.5191-7.7568,9.2566-15.5221,13.3152-23.5277a.2033.2033,0,0,0-.3508-.2051Z"/>
        <path class="cls-1"
              d="M142.8035,3.3534c-3.7129,5.26-6.37,11.3067-9.3024,17.0255-2.67,5.2061-5.5926,10.4066-7.6125,15.9069-.1923.5234.5778.7823.8585.3619,3.5765-5.3557,6.26-11.3686,9.1539-17.1123,2.63-5.22,5.5857-10.3967,7.4594-15.9472.1171-.3469-.3693-.5006-.5569-.2348Z"/>
        <path class="cls-1"
              d="M.0473,96.7766a177.2882,177.2882,0,0,1,30.67,25.5328c9.4519,9.9412,16.71,21.1586,24.33,32.4749a.33.33,0,0,0,.57-.3332C44.4474,130.4818,22.8369,109.6436.15,96.6012a.1016.1016,0,0,0-.1025.1754Z"/>
        <g>
            <path class="cls-2"
                  d="M131.2324,115.7661a6.075,6.075,0,0,0,3.5511-8.6269c-2.238-4.1837-7.5982-4.4423-11.0656-2.3632-1.7875,1.0718-3.5807,5.3307-2.25,7.7319C123.5735,116.3067,127.6262,117.0661,131.2324,115.7661Zm-6.727-8.4235c1.224-1.7563,4.15-1.2271,6.1119-.2375a3.077,3.077,0,0,1-.1288,5.7644,5.99,5.99,0,0,1-6.3137-.9452C122.8182,110.5765,123.9952,108.0747,124.5054,107.3426Z"/>
            <path class="cls-2"
                  d="M238.2544,162.1187c-5.06-2.9763-10.3886-4.5033-15.085-6.3475-6.7788-2.6621-13.574-5.272-20.3325-7.9941q-19.2521-7.7545-38.3094-16.0558a33.5249,33.5249,0,0,0,.9136-11.09c-.0016-.02-.0056-.04-.0073-.06a144.0958,144.0958,0,0,0,11.6257-8.6533,2.6051,2.6051,0,0,0-.5543-4.5524,98.01,98.01,0,0,1-14.8139-6.33c-3.2994-1.8012-23.8849-15.8808-28.779-19.5464-5.1344-3.8456-10.1365-8.7678-16.0318-11.1835-.449-.184-.8281.44-.6042.8437,3.167,5.7121,8.7447,9.7932,13.6289,13.7291,1.502,1.21,3.04,2.4783,4.6085,3.7344-16.5363-1.2118-35.2318,6.3761-42.53,23.0277a39.77,39.77,0,0,0-4.7581,30.3271,107.3269,107.3269,0,0,0-16.2124,7.2181,422.4861,422.4861,0,0,0-30.7-33.26C31.1865,106.8905,22.17,97.3332,11.9614,89.6531c13.974-2.6526,27.8675-5.9866,41.668-9.4735C68.51,76.42,84.5222,73.1858,98.4681,66.324c1.1425-.5622.616-2.7966-.6609-2.6193-15.3056,2.1268-30.4416,7.6734-45.4716,11.4374-15.7512,3.9448-31.6116,7.1706-47.47,10.556-2.0706.4419-2.3218,3.7079-.579,4.7548,12.805,7.6913,23.3882,19.9881,34.0113,30.706a431.1592,431.1592,0,0,1,30.2768,33.4542,2.4932,2.4932,0,0,0,3.14.4348A101.396,101.396,0,0,1,89.04,147.18c3.2979,7.4688,9.1738,14.0623,17.9517,16.921,16.3638,5.3291,38.71,3.7416,51.0329-9.789,5.2151,1.8808,10.473,3.6482,15.602,5.8306,7.8733,3.35,15.6876,6.4269,23.7429,9.2409,9.69,3.3851,17.042,9.9655,25.763,15.2455,2.7963,1.6929,5.3323,3.14,8.5325,1.9139C235.2229,185.1794,247.136,165.5387,238.2544,162.1187Zm-67.5112-51.6469c-2.0792,1.4318-4.1865,2.81-6.2968,4.1893a36.9851,36.9851,0,0,0-3.3019-8.4747A77.7009,77.7009,0,0,0,170.7432,110.4718Zm-75.2965,4.3707c6.3845-16.2321,27.3624-24.5773,44.1778-20.5342,10.7166,2.5768,18.045,12.4153,20.6935,23.2533,1.0356,4.2376-.0065,14.1828-2.3366,18.8724-7.9246,15.95-30.0368,19.5767-44.8747,14.9035-7.8907-2.4851-15.2627-7.9171-18.252-16.4464C92.5476,128.3082,94.2986,117.7615,95.4467,114.8425Zm77.71,31.6211a13.2672,13.2672,0,0,0-.2949,9.1438c-1.545-.6137-3.0923-1.2207-4.65-1.7961-2.55-.9423-4.3345-1.694-6.96-2.4342,1.1937-1.7753,2.5625-3.2349,3.4562-5.33,1.08-2.5316-2.1966-4.6709-3.5258-2.2121-9.9772,18.4558-33.3,22.0192-50.7677,16.957-8.5285-2.4717-15.4832-8.02-18.8938-16.6414a3.2526,3.2526,0,0,0-.65-1.8173c-.1345-.4192-.2734-.8349-.3916-1.2682a39.2267,39.2267,0,0,1-.477-17.1365c-.7578,8.598,1.6948,17.3511,8.05,23.659,11.3629,11.2792,29.4075,12.49,43.5613,7.663,9.6777-3.3007,17.7121-10.1226,21.5367-19.3924q6.7014,2.9346,13.4311,5.79A12.73,12.73,0,0,0,173.157,146.4636ZM230.75,181.5817c-2.545,1.0039-4.895-.9435-6.876-2.2151-3.6752-2.3591-7.1985-4.9806-10.8749-7.3371-7.5382-4.8318-15.5361-6.9671-23.7772-9.9426-3.1986-1.1549-6.3579-2.429-9.5134-3.7152-1.3447-.37-3.1912-6.8506-2.3747-9.781a7.0217,7.0217,0,0,1,4.3215-4.7912q9.5082,3.99,19.0785,7.8119c6.4255,2.5608,12.8638,5.09,19.3309,7.5283,3.7318,1.4068,7.876,3.371,12.0188,4.49-2.7749,2.88-3.8582,8.59-2.3537,11.8595.0415.09.152.0513.18-.0253,1.1032-3.0015,1.6934-12.8782,6.7937-10.6138C240.7566,166.6493,232.9753,180.7039,230.75,181.5817Z"/>
            <path class="cls-2"
                  d="M115.2444,38.1929a.8731.8731,0,0,0,.9223-1.2877,16.9456,16.9456,0,0,0-2.6692-3.09c4.3308-.4928,8.1092-2.2258,10.516-7.0057,1.81-3.5948,2.2965-7.7509,4.0448-11.37a21.2128,21.2128,0,0,1,8.19-8.9808c-1.2467,1.7974-2.3032,3.6149-3.11,4.9315-4.6,7.5074-9.6373,15.8771-11.422,24.767-.0446.2227.2155.4236.3766.2353,7.1637-8.3755,10.3545-19.8963,17.2861-28.5307C141.92,4.6971,146.6305,2.4233,145.2412,9c-.6669,3.1567-2.2311,5.7192-3.4967,8.6488-2.1582,4.9963-9.9448,17.9267-12.5116,22.6854-1.2863,2.3847,1.6513,3.4324,3.0121,1.1179,2.4538-4.1735,24.6732-40.043,13.002-41.4177-2.5646-.3021-4.9263,1.4508-6.9516,3.7709-.1858-1.114-1.1216-2.1363-2.2947-1.6679-5.4524,2.1774-9.9524,5.6709-12.5824,11.3841-1.3779,2.9933-2.0106,6.2654-3.1956,9.3368-2.2726,5.8909-6.5565,6.8671-12.01,7.0347-1.9632.06-2.4363,2.63-.95,3.7672C109.801,35.6022,112.15,37.5227,115.2444,38.1929Z"/>
            <path class="cls-2"
                  d="M80.621,97.5174c3.2036,2.3332,3.1451,6.2934,7.7724,5.4594a2.1762,2.1762,0,0,0,1.5041-1.99c3.9247-2.4939,8.2616-4.8312,11.47-8.3587,3.58-3.9361,6.3592-9.015,9.1958-13.56,3.2229-5.1636,16.9385-29.446,18.6391-32.6153a1.8488,1.8488,0,0,0-.54-2.1006c-1.7888-1.589-8.1619-4.4407-8.6184-4.772a1.8035,1.8035,0,0,0-2.53.7121c-2.9556,5.1757-5.8926,10.3625-8.8578,15.5319-.56.977-1.1712,1.9611-1.7817,2.9592-3.7727,6.0156-17.3193,29.1835-18.92,39.7447-3.0389.3-4.88-8.2648-9.67-7.3636a3.9374,3.9374,0,0,0-2.9928,2.9142c-.6375,1.751.6972,5.9589-.2886,7.195-1.7893,2.2435-5.9986-3.0038-7.2914-3.9359a9.1606,9.1606,0,0,0-6.6045-1.9951,8.7747,8.7747,0,0,0-1.9152.47,1.9108,1.9108,0,0,0-.9938.17c-4.2152,1.939-4.9634,5.6551-5.7646,10.0985-.3634,2.015-.2,1.8852-1.4392.6094a19.8656,19.8656,0,0,1-1.84-2.9631,19.3392,19.3392,0,0,0-3.7418-4.4712c-1.9712-1.6221-5.3721-3.1808-7.6213-1.16-2.2509,2.0221-1.0786,5.4211.9045,6.9883a.5546.5546,0,0,0,.8273-.3613c.2324-1.5917-.3823-4.09,1.7806-4.1436,2.3222-.0574,4.0341,3.9165,4.931,5.8046,1.0785,2.27,2.5048,6.1034,4.9915,7.0256,2.0144.747,3.5408-.73,4.3893-2.5713,1.6018-3.4757.536-7.5887,3.05-10.24a6.0882,6.0882,0,0,1,3.9-.2946c2.9446.8174,4.5967,3.8723,7.0086,5.6763,2.3781,1.7789,5.8658,2.74,8.17.2687a6.1562,6.1562,0,0,0,1.377-3.317,22.629,22.629,0,0,0,.0555-3.3527C79.1818,97.28,77.9514,95.5733,80.621,97.5174Zm20.0245-21.0633c2.2876-3.7121,16.3076-28.1418,19.0911-32.3855.704.4777,4.5217,2.2322,5.0057,2.5742-1.1009,2.8966-11.9145,21.745-14.9505,26.8648-2.7393,4.6193-5.4862,9.2593-8.4892,13.6888-2.7221,4.015-6.4787,6.7958-10.2365,9.5987A90.2116,90.2116,0,0,1,100.6455,76.4541Z"/>
        </g>
    </g>

</svg>
