<svg xmlns="http://www.w3.org/2000/svg" viewBox="0 0 681.2365 570.1996">
    <defs>
        <style>
            .cls-1 {
            fill: #fefefe;
            }

            .cls-2 {
            fill: #65ce21;
            }

            .cls-3 {
            fill: #65ce21;
            }

            .cls-4 {
            fill: #65ce21;
            }

            .cls-5 {
            fill: #acaeab;
            }

            .cls-6 {
            fill: #acafa9;
            }

            .cls-7 {
            fill: #aeaeac;
            }

            .cls-8 {
            fill: #adaeac;
            }

            .cls-9 {
            fill: #abafa6;
            }

            .cls-10 {
            fill: #abafa7;
            }

            .cls-11 {
            fill: #adaeae;
            }

            .cls-12 {
            fill: #aeadae;
            }

            .cls-13 {
            fill: #8dc14d;
            }

            .cls-14 {
            fill: #a8ada1;
            }

            .cls-15 {
            fill: #89c33e;
            }

            .cls-16 {
            fill: #9bca61;
            }

            .cls-17 {
            fill: #9fca68;
            }

            .cls-18 {
            fill: #90c84d;
            }

            .cls-19 {
            fill: #91c650;
            }

            .cls-20 {
            fill: #97c95a;
            }

            .cls-21 {
            fill: #9bc964;
            }

            .cls-22 {
            fill: #9fcc67;
            }

            .cls-23 {
            fill: #e6f2cf;
            }

            .cls-24 {
            fill: #b6dd82;
            }

            .cls-25 {
            fill: #d8ebb6;
            }

            .cls-26 {
            fill: #b6dc85;
            }

            .cls-27 {
            fill: #e7f2d4;
            }

            .cls-28 {
            fill: #8cc150;
            }

            .cls-29 {
            fill: #fefefd;
            }

            .cls-30 {
            fill: #fdfdfc;
            }

            .cls-31 {
            fill: #fdfdfb;
            }

            .cls-32 {
            fill: #adadad;
            }

            .cls-33 {
            fill: #adafa8;
            }

            .cls-34 {
            fill: #b6bab0;
            }

            .cls-35 {
            fill: #f5f9ee;
            }

            .cls-36 {
            fill: #89c144;
            }

            .cls-37 {
            fill: #afb0ae;
            }

            .cls-38 {
            fill: #fbfbf9;
            }

            .cls-39 {
            fill: #9fc16c;
            }

            .cls-40 {
            fill: #b2b3af;
            }

            .cls-41 {
            fill: #83b446;
            }

            .cls-42 {
            fill: #88bf43;
            }

            .cls-43 {
            fill: #dfefc3;
            }

            .cls-44 {
            fill: #b4c59e;
            }

            .cls-45 {
            fill: #f3f7eb;
            }

            .cls-46 {
            fill: #b4b7af;
            }

            .cls-47 {
            fill: #b4baad;
            }

            .cls-48 {
            fill: #e9f4d1;
            }

            .cls-49 {
            fill: #f1f6e8;
            }

            .cls-50 {
            fill: #88c143;
            }

            .cls-51 {
            fill: #86c639;
            }

            .cls-52 {
            fill: #88c73c;
            }

            .cls-53 {
            fill: #e1f0c9;
            }

            .cls-54 {
            fill: #7db738;
            }

            .cls-55 {
            fill: #90c353;
            }

            .cls-56 {
            fill: #a3cc6e;
            }

            .cls-57 {
            fill: #c3ea93;
            }

            .cls-58 {
            fill: #cececd;
            }

            .cls-59 {
            fill: #9cd15d;
            }

            .cls-60 {
            fill: #c7eb97;
            }

            .cls-61 {
            fill: #ddf0c0;
            }

            .cls-62 {
            fill: #8fc051;
            }

            .cls-63 {
            fill: #c6eb98;
            }

            .cls-64 {
            fill: #e5f3d0;
            }

            .cls-65 {
            fill: #9dd261;
            }

            .cls-66 {
            fill: #97c75c;
            }

            .cls-67 {
            fill: #93c15a;
            }

            .cls-68 {
            fill: #afafb0;
            }

            .cls-69 {
            fill: #b0bf9c;
            }

            .cls-70 {
            fill: #a9b995;
            }

            .cls-71 {
            fill: #85b947;
            }

            .cls-72 {
            fill: #8cb757;
            }

            .cls-73 {
            fill: #a7bf89;
            }

            .cls-74 {
            fill: #bfc9b3;
            }

            .cls-75 {
            fill: #8fc054;
            }

            .cls-76 {
            fill: #89b551;
            }

            .cls-77 {
            fill: #afafae;
            }

            .cls-78 {
            fill: #fcfdfb;
            }

            .cls-79 {
            fill: #7eb63c;
            }

            .cls-80 {
            fill: #a3d16a;
            }

            .cls-81 {
            fill: #d1e8ac;
            }

            .cls-82 {
            fill: #add779;
            }

            .cls-83 {
            fill: #a5cd76;
            }

            .cls-84 {
            fill: #fcfcfa;
            }

            .cls-85 {
            fill: #f9fbf4;
            }

            .cls-86 {
            fill: #d3ecad;
            }

            .cls-87 {
            fill: #a5c87a;
            }

            .cls-88 {
            fill: #91c157;
            }

            .cls-89 {
            fill: #cfeaa6;
            }

            .cls-90 {
            fill: #a2ce6c;
            }
        </style>
    </defs>
    <g id="Layer_2" data-name="Layer 2">
        <g id="Layer_1-2" data-name="Layer 1">
            <g>
                <path class="cls-1"
                      d="M682,22V550c-2.1967.1909-2.7388-1.7283-3.4555-3.0412-4.9349-9.04-10.8276-17.5291-15.2236-26.8838-4.3246-9.2026-7.906-18.6105-9.7892-28.65-.7938-4.2319-1.6427-8.8026-3.5973-12.3592-2.73-4.9667-7.3339-8.9848-12.4444-11.8219-2.578-1.4311-4.7117.7-6.5108,2.4864-6.0238,5.9807-11.9977,12.0118-18.0294,17.9843-4.3849,4.3418-7.5274,4.7135-12.8674,1.5107a154.3438,154.3438,0,0,1-50.7238-49.2377c-1.3607-2.1027-2.8717-4.086-4.41-6.0467-1.1314-1.4423-2.5474-3.131-4.5608-1.9524-1.7719,1.0372-1.0349,3.0289-.5093,4.5529a87.6143,87.6143,0,0,0,8.404,18.0423c10.5467,16.863,25.2593,29.3842,41.5139,40.4188,7.1229,4.8355,15.0459,7.7647,22.8941,10.9413a9.6765,9.6765,0,0,0,9.4867-1.2584c3.6245-2.4545,6.52-5.6712,9.507-8.7966,1.4932-1.5624,2.7948-3.3523,5.17-3.6488,4.8184,1.3674,2.2491,4.5461,1.1713,6.5883-3.0862,5.8481-6.6815,11.4265-9.2288,17.5643-.5995,1.4446-1.6787,2.6965-1.8218,4.27a138.8108,138.8108,0,0,1,14.838-25.2861c.9945-1.36,2.31-2.4517,4.2515-1.6543a4.0006,4.0006,0,0,1,1.0985,1.8489,13.6883,13.6883,0,0,1-1.2307,11.8917c-1.9519,3.4386-3.5338,7.0745-5.3686,10.3628,1.7025-1.7864,2.4689-4.3409,3.7876-6.5717,2.12-3.5865,3.9374-3.7257,7.3637-.7732a4.9348,4.9348,0,0,1,.9722,3.4c-.8017,4.347-3.3036,8.02-4.96,11.7329,2.5-1.8811,2.021-7.904,7.9-5.4532,3.3626,8.3077,8.8254,15.46,12.844,23.3967,1.9625,3.8758,1.1735,5.406-2.9513,6.5615a33.0341,33.0341,0,0,1-10.361,1.2429,32.51,32.51,0,0,0-11.3515,2.5186,22.4479,22.4479,0,0,1-5.5964.5318,47.9625,47.9625,0,0,0-13.0425,2.4214c-11.33.0764-22.2039,4.6049-33.6619,3.4808-2.1015-.2063-4.72.4556-5.8241-1.8906-1.2285-2.6094.9723-4.3409,2.5506-5.9943,3.4633-3.6282,5.8816-8.0543,9.2788-11.7574,2.8356-3.0907,1.8528-5.6933-2.1721-7.1653-5.4491-1.9928-10.9484-3.8806-16.4505-5.6776-20.7447-6.775-38.8-18.0227-55.44-31.903-6.2654-5.2265-11.9539-11.1471-18.75-15.7274-1.4157-.9541-3.01-3.3511-4.6092-1.836-1.6937,1.605.21,3.7393,1.265,5.3357,4.922,7.4487,11.5834,13.3107,18.1689,19.1689,12.0253,10.6968,25.6163,19.08,39.9889,26.2519,3.292,1.6428,6.9615,2.2587,10.1714,4.1279,4.1025,2.389,4.6026,4.0876,1.63,7.8046-1.8682,2.3356-4.1865,4.3034-5.8818,6.7941-3.5655,5.2388-3.0389,8.37,1.5589,12.6157a22.5525,22.5525,0,0,0,17.1449,6.3575c14.7912-.5416,29.5024-.5627,44.3122-2.5288,14.49-1.9237,28.7053-5.4111,43.2526-6.7435C675.7,557.18,678.1691,553.6006,682,553c0,5.3333-.0963,10.6694.0549,15.9985.0493,1.7419-.3127,2.344-2.0594,2.0265A14.1631,14.1631,0,0,0,677.5,571q-336,0-672,.0935c-3.7492.0018-4.5958-.8442-4.5937-4.5936q.16-280.5,0-561C.9042,1.7507,1.7508.9048,5.5.9065q336,.1566,672,0c3.7493-.0017,4.9311.8156,4.5858,4.6013C681.7087,9.64,682,13.8333,682,18c-1.6593.522-2.3683-.9807-3.486-1.62-1.7457-1.6832-3.9251-2.0834-6.2383-2.0995-8.6107-1.9374-17.36-3.1357-26.0609-4.4351C632.59,7.8105,619.0242,5.011,605.1168,5.2947c-8.6142.1758-17.1851-1.0247-25.8684-.1065-7.0816.7488-11.3776,5.0948-15.4989,9.8234-1.9723,2.2627-.694,5.1123.8781,7.4122,1.9767,2.8918,4.51,5.343,6.6554,8.098,3.5355,4.5405,2.943,6.0919-2.4723,8.2151-25.76,10.1-47.4928,25.8812-65.606,46.7282a14.9466,14.9466,0,0,0-3.1261,5.07c-.3164.9612-.6868,2.0656.205,2.7879.8941.724,1.9341.1634,2.7514-.4062a83.9189,83.9189,0,0,0,8.1173-6.6281,255.1239,255.1239,0,0,1,38.9971-29.41c10.6409-6.4171,22.1362-10.7313,33.7321-14.8477,3.7536-1.3325,7.5412-2.6255,11.2976-3.9565,4.5716-1.62,5.2016-4.2712,1.79-7.8823-3.6806-3.8952-6.7185-8.2526-9.9894-12.4469-.9258-1.1873-2.0378-2.3643-1.3739-4.0189.7623-1.9,2.5952-1.8648,4.2337-1.9863,7.18-.5325,14.3106.2534,21.3992,1.1628,17.83,2.2874,35.5467,5.3131,53.2031,8.6833,5.508,1.0514,6.4825,3.053,3.4208,7.8925a174.6208,174.6208,0,0,0-12.1664,22.2005c-3.8635.9228-4.06.7816-7.4779-5.3987.8636,3.7259,3.47,6.5976,4.6135,10.14.5811,2.77-.5777,4.9091-2.4462,6.7908-2.5636,1.3674-4.1021-.1093-5.28-2.0813-1.6105-2.6963-3.3569-5.3114-4.927-8.035,1.5875,4.1173,4.34,7.6329,6.1068,11.67,1.6574,3.7868,2.3728,7.5674.9315,11.5693a4.2585,4.2585,0,0,1-1.0494,1.89c-2.7326,1.0332-3.9669-.9456-5.1672-2.71a174.2235,174.2235,0,0,1-14.5751-25.2328c3.6156,7.7791,7.2914,15.5236,11.9671,22.7459a13.1508,13.1508,0,0,1,1.5245,4.1951c.8036,3.3827-.5058,4.0009-3.3655,2.4936-3.5028-3.2749-7.452-6.0173-10.6229-9.7227-4.4717-5.2254-10.1658-5.7189-16.7082-3.1053-14.87,5.94-27.7118,14.8914-39.653,25.36A106.1733,106.1733,0,0,0,541.758,130.03c-1.44,2.3883-2.65,4.8573-2.42,7.7594.2147,2.709,1.4189,3.53,3.8069,1.8794a120.5366,120.5366,0,0,0,10.5741-13.9187c9.0586-13.6246,20.5175-24.8486,33.6429-34.4715,4.0292-2.9539,8.1907-5.7115,12.3782-8.4392,5.5734-3.63,7.7578-3.676,12.834.769,6.0206,5.2719,11.1595,11.4395,16.91,16.9949,6.1118,5.9042,7.6291,5.43,13.9686-.1454,6.96-6.1212,8.895-14.0357,10.3973-22.38.7428-4.1256,2.7453-7.8508,3.5514-11.9423a10.8243,10.8243,0,0,0,2.3374-5.6923c4.1918-11.4231,10.0938-21.9709,16.73-32.1058C677.981,26.028,678.25,22.4233,682,22Z"
                      transform="translate(-0.9063 -0.9065)"/>
                <path class="cls-2"
                      d="M679.1334,15.9136,682,18v4c-6.6865,9.8305-12.9689,19.9143-17.6185,30.8791-1.148,2.7072-3.72,4.7927-3.5849,8.048-1.3845,1.4895-1.6129,3.5721-2.6807,5.2241-1.4184,5.9211-2.8236,11.8454-4.2707,17.7594-.1957.8-.9059,1.5649-.8636,2.3172.482,8.5738-6.6272,12.2644-11.3049,17.4093-3.7581,4.1334-6.4493,3.83-10.5673.1164-7.2637-6.55-13.369-14.255-20.8523-20.602-2.7569-2.3383-5.2087-2.4838-8.0015-.7106-17.1379,10.8809-32.8836,23.36-44.9146,39.9579-4.4915,6.1966-8.4932,12.7483-13.515,18.56-4.4235.3068-6.2014-1.35-4.9093-5.0318.7052-2.0091.9686-4.1686,2.0082-6.06,2.3227-8.8725,7.6487-16.2485,13.1-23.1756,10.0935-12.8267,22.833-22.9312,36.4308-31.96,6.4375-4.2744,13.66-6.83,20.5848-9.9939,5.9966-2.74,11.6-.3151,15.6886,4.2457,3.2768,3.6557,7.3072,6.4581,10.4176,10.2238,4.4368,3.0147,5.47,2.8555,8.696-1.34q.2141-1.02.4278-2.04a10.9835,10.9835,0,0,0,1.6013-6.9887c-.2356-2.15-.2025-4.264,1.756-5.7671.89-2.2867,3.1841-4.109,2.31-6.98-.6044-2.4464,2.1088-2.637,2.8395-4.1756,1.8434-8.0213,6.7384-14.498,10.8984-21.3333.6078-.9988.9692-2.1331,1.6049-3.0162,2.3-3.1947,1.0752-4.1655-2.2938-4.7423-20.7937-3.56-41.563-7.2833-62.5437-9.5914-4.62-.5083-9.3149-.3584-13.9764-.4532-.9138-.0186-2.1474-.3452-2.47.99-.2515,1.0418.4559,1.6913,1.1458,2.5007,3.8313,4.4957,7.5553,9.0865,11.2089,13.7291,3.9415,5.0085,3.1023,7.4964-3.0089,9.5823-5.7726,1.97-11.5119,4.0386-17.2908,5.99-22.0924,7.4607-41.208,19.808-58.4306,35.3368-4.8973,4.4156-9.942,8.6906-15.1757,12.6947-1.3834,1.0584-3.0927,3.5709-5.582,1.4206-2.31-1.9953-.8018-4.0363.1858-5.7914,4.1258-7.3314,10.211-13.0982,16.3882-18.5371a212.8473,212.8473,0,0,1,21.9161-16.9022,143.8522,143.8522,0,0,1,32.2417-16.6292c3.3663-1.192,3.4847-2.2652,1.5787-4.6241-2.1387-2.6468-4.2812-5.2918-6.4824-7.8864-4.71-5.5519-4.3038-8.7695,1.804-14.7855,7.2232-7.1144,16.0293-6.87,24.5156-6.5844,11.1039.3739,22.2992.2038,33.3442,2.032,16.1959,2.6807,32.4068,5.2713,48.6113,7.9C674.9831,14.2037,677.1934,14.75,679.1334,15.9136Z"
                      transform="translate(-0.9063 -0.9065)"/>
                <path class="cls-3"
                      d="M646.3587,496.1l-.4645-2.079A4.8515,4.8515,0,0,1,644.81,491.43c-.2607-3.6086-1.6616-4.0439-4.1377-1.4793-1,1.2055-2.4241,1.85-3.6428,2.7667-5.4285,3.9326-9.0147,9.8313-14.8673,13.4291a11.0612,11.0612,0,0,1-10.387.9666c-22.316-8.32-40.4361-22.3882-55.93-40.3081A96.4173,96.4173,0,0,1,539.28,438.8571c-1.16-2.917-2.8223-6.626.2141-8.5144,3.8387-2.3875,5.6323,1.6666,7.4336,4.3218,8.9381,13.176,18.3789,26.0474,30.3539,36.5682,7.7767,6.8324,16.68,12.4194,25.3148,18.213,2.2661,1.5205,5.1372,1.5343,7.6414-1.03,6.8476-7.013,13.9085-13.8213,20.9887-20.6023,3.0679-2.9381,5.96-3.53,9.7248-.1664,2.9728,2.6562,5.1429,6.2074,8.9009,8.1125,1.2733.6454,1.8279,2.5414,2.1556,4.29,2.1564,11.509,4.9835,22.9747,9.5823,33.6486a163.97,163.97,0,0,0,15.6247,28.4159c1.7467,2.5237,3.1983,5.2517,4.7852,7.886v3c-2.5439,3.6545-6.2178,5.2279-10.4785,5.9217-10.3015,1.6772-20.5582,3.8127-30.8477,5.3042-9.9851,1.4475-20.0572,3.0265-30.1632,3.53a316.5519,316.5519,0,0,1-32.43.2219c-4.2289-.2232-14.43-7.35-16.0382-11.2118-1.4849-3.5651-.0174-6.4274,1.8931-9.2285,2.302-3.3753,5.7384-5.776,7.8053-9.4245,1.0741-1.8961.8529-2.4876-1.012-3.1495a141.8827,141.8827,0,0,1-30.7949-15.2058c-14.9188-9.8422-28.81-20.9183-39.7182-35.2948a19.9627,19.9627,0,0,1-2.4985-4.711c-.6567-1.6559.6349-2.8757,1.6123-3.8938,1.0883-1.1336,2.0288-.0224,2.9814.6619,7.7385,5.5588,14.3615,12.4489,21.83,18.3114,8.1524,6.3991,16.0265,13.44,25.0116,18.4121,9.2269,5.1065,18.739,10.0908,29.1394,12.9293,6.4435,1.7586,12.5506,4.6229,19.0292,6.4333,3.9806,1.1124,4.548,4.9842,1.8936,8.1906-3.8959,4.7062-7.6565,9.5243-11.5561,14.2273-.82.9888-2.4158,1.6268-1.6233,3.2.7622,1.5133,2.3847.7081,3.602.7485a78.283,78.283,0,0,0,19.3428-1.3905,92.9714,92.9714,0,0,1,15.8077-1.7758c4.4284-.8086,9.0116-.8264,13.2524-2.5934l5.8168-.3469c3.6805-1.1519,7.6072-1.24,11.24-2.6,3.4306-.5166,6.86-1.044,10.2923-1.5466,3.1986-.4683,3.9231-1.7,1.9247-4.5852-3.0319-4.3772-5.078-9.26-8.7492-13.4462-1.8361-2.0935-2.5789-6.9939-3.7611-10.6416-1.4441-1.8182-4.369-2.9124-2.9876-6.1117q-.4036-1.4823-.8071-2.9646c-2.3664-3.0137-3.9654-6.1842-3.1037-10.26C648.246,499.0966,647.2374,497.5226,646.3587,496.1Z"
                      transform="translate(-0.9063 -0.9065)"/>
                <path class="cls-3"
                      d="M361.0708,72.9514c7.8785,1.4363,13.3457,6.3755,17.6442,12.67,1.3537,1.9823,3.02,3.7952,3.888,6.2367,1.0708,3.0118,4.35,3.0611,6.8441,2.98,9.3023-.3018,18.6413-.5743,27.8724-1.6589,9.0642-1.0648,14.031,1.85,15.4082,10.9908.422,2.8,1.4935,3.5551,3.9736,3.896,9.4549,1.2994,18.9616.2012,28.4372.8139,12.9829.8394,16.6868,5.53,17.1568,16.9806.8945,21.795-1.0023,43.5282-1.2659,65.2959-.0821,6.78-.0128,13.5618-.0128,21.2722,5.3019-3.0176,10.0822-5.45,14.5638-8.3442,12.6426-8.1657,25.6471-15.7114,38.8472-22.915,8.1773-4.4626,16.7656-8.2,24.7865-12.9145,10.4459-6.14,18.6993.3028,23.2669,7.6,3.1754,5.0733,6.6544,10.9682,3.7122,18.0158a20.0921,20.0921,0,0,1-10.1157,10.4247c-11.2524,5.5-20.8826,13.5269-31.7823,19.5549-11.633,6.4336-23.0478,13.2628-34.5338,19.9607-7.7953,4.5457-15.5173,9.2178-23.3412,13.7131-2.239,1.2865-2.6624,2.918-2.4181,5.3444,2.1877,21.7324,1.9,43.5478,1.5629,65.3309-.4918,31.7826-1.63,63.5537-1.6756,95.347-.0158,11.1467,1.06,22.2972-.0582,33.4411a31.8984,31.8984,0,0,1-2.7044,9.2047,14.0511,14.0511,0,0,1-9.1214,8.82c-8.7,3.0158-17.6745,2.1306-26.5661,1.599-2.4418-.146-4.9109-.6109-7.3959-.612-15.2807-.0066-30.5628.1147-45.8418-.05a191.664,191.664,0,0,0-25.2186,1.8824c-18.0056,1.8683-35.9731,4.4295-54.0269,5.4206-20.2458,1.1115-40.5955,2.0186-60.7966-1.3928-8.2914-1.4-16.6162-2.4254-24.14-6.7364-4.0839-2.34-7.1711-5.1748-8.1821-9.8973-1.9522-3.1379-1.5172-6.8947-2.656-10.2435-1.0889-22.9253-1.5672-45.9-3.427-68.7628-2.1449-26.3685-2.6869-52.7767-3.7135-79.1776-.3425-8.81-.716-17.6249-.7384-26.4385-.0731-28.6305-.602-57.2643-2.1291-85.8384-.9881-18.4869-1.0684-36.9282-.7-55.3957a99.9978,99.9978,0,0,1,1.7072-15.2968c.8265-4.6839,4.4367-7.42,8.5825-8.8393,9.2555-3.1688,18.786-5.3458,28.6555-4.9146,3.9007.17,5.1722-1.3443,4.5628-4.9225-.8526-5.0059,1.4132-7.0991,6.2685-8.0278a191.1413,191.1413,0,0,1,36.6429-3.7126c8.4852.0316,14.77-2.1764,19.9773-9.694,4.8978-7.07,13.3433-9.7975,21.8562-11.1567C343.5149,71.5454,352.3074,69.6214,361.0708,72.9514Z"
                      transform="translate(-0.9063 -0.9065)"/>
                <path class="cls-2"
                      d="M46.4663,79.9833c5.2263-4.252,9.412-9.6175,14.8431-13.6747a11.91,11.91,0,0,1,12.2385-1.495c26.7492,10.501,48.2155,27.7016,63.9073,51.74a67.13,67.13,0,0,1,8.463,18.1331c.6485,2.2806,1.6041,5.3367-1.0672,6.8271-2.887,1.6108-4.4594-1.0793-5.9493-3.0683-8.6046-11.4864-16.32-23.6691-26.8743-33.6136-9.1409-8.6128-19.3356-15.8064-29.86-22.56-2.8295-1.8157-5.5922-1.4529-8.081,1.0715q-9.9723,10.1145-20.0925,20.0826c-4.3076,4.2419-6.156,3.4838-11.0256.2362-10.3293-6.8887-11.53-17.9589-14.136-28.3411-4.0093-15.9714-11.7133-30.1679-20.04-44.1254C7.6072,29.2091,6.1668,27.36,5.1287,25.304c-3.4319-6.7968-1.51-10.7,5.9741-12.0367Q25.7959,10.6428,40.532,8.2609c21.84-3.5166,43.756-5.9467,65.9408-4.4317,4.286.2927,15.7527,8.2818,17.0267,12.1591,1.3336,4.0585-1.8716,6.4559-3.7524,9.1993a63.4129,63.4129,0,0,1-6.1638,7.179c-2.5278,2.7068-1.8864,3.4748,1.5778,4.8155,27.6508,10.7014,51.1777,27.2231,69.7135,50.5568a8.9072,8.9072,0,0,1,1.4266,2.0248c.695,1.7188,1.2456,3.7062-.1344,5.1688-1.6795,1.78-3.4957.4079-4.8553-.7182-7.7578-6.4256-15.2839-13.1383-23.1657-19.4052-15.6711-12.46-32.3829-23.1506-51.69-29.2508-5.8269-1.8411-11.5648-3.965-17.3351-5.9836-5.51-1.9276-6.26-6.0138-2.0929-10.8613,4.1794-4.8621,8.2852-9.7875,13.0028-15.3711a57.5707,57.5707,0,0,0-17.7693-.2386c-21.095,2.6357-42.07,6.115-63.0125,9.7918-3.678.6457-4.0337,2.316-2.0641,4.4575C21,31.5011,20.8532,38.5844,27.2357,40.812c.2838.099.27,1.5263.1264,2.2843a6.3388,6.3388,0,0,0,1.3539,5.64c3.8231,3.6805,4.2679,8.5626,5.5217,13.1943,2.2245,2.2805,4.1963,4.6484,2.8253,8.172-.5867,2.2218.9245,4.02,1.2249,6.0625.9182,1.7947,2.9987,2.9613,2.89,5.3089.6137,3.0451,1.859.94,2.9036.3436C44.7523,81.0467,45.9125,80.9129,46.4663,79.9833Z"
                      transform="translate(-0.9063 -0.9065)"/>
                <path class="cls-3"
                      d="M38.128,495.8038c-2.1677,2.0595-.9235,4.6339-1.0563,7,1.7623,3.4963-1.71,4.8634-2.91,7.1547-1.7819,4.3279-.0328,10.1632-5.5115,12.92a.5906.5906,0,0,0-.28.4014c-.7309,8.4324-7.9948,13.3439-11.1432,20.5307-1.4872,3.3947-1.1535,4.2843,2.3175,4.83,11.95,1.88,23.86,4.01,35.8115,5.8784,13.0957,2.0472,26.1472,4.5777,39.4866,4.4566,1.4316-.0129,3.3711.7657,4.2128-.5613,1.2837-2.0238-1.3745-2.7281-2.2157-3.8671a141.1565,141.1565,0,0,0-9.4263-11.1338c-5.0257-5.5065-3.9267-9.4943,3.2532-11.4852,3.1269-.867,5.71-3.4294,9.2625-2.9939,1.9381-1.1624,4.3625-1.2407,6.1422-2.7559a151.3327,151.3327,0,0,0,30.3846-14.0848c15.5447-9.5351,29.3336-21.1918,42.65-33.5043a2.177,2.177,0,0,1,.8821-.444c2.0161-.5564,3.56-4.1348,5.9379-1.6509,2.2117,2.31.7761,4.9384-.9012,7.1937-9.925,13.3447-22.5365,23.7576-36.0657,33.1933A172.1292,172.1292,0,0,1,125.1109,530.57a112.4123,112.4123,0,0,1-10.5,4.0889c-3.67,1.3358-2.6449,2.5409-1.1342,4.46,2.8192,3.5816,5.5972,7.2019,8.5591,10.6633,2.75,3.2143,1.9742,5.9562-.5313,8.8248-6.8114,7.7983-15.4148,10.416-25.57,9.7973-12.768-.7779-25.5105-1.1068-38.2843-2.6191-15.0217-1.7784-29.7683-4.9615-44.7189-6.9985-7.8759-1.0731-13.1586-4.3129-6.9181-14.076a255.7092,255.7092,0,0,0,16.7612-30.7142,109.3751,109.3751,0,0,0,8.7245-28.8486c1.3531-8.6272,7.6-13.0344,12.7507-18.4515,2.847-2.9939,6.9227-1.5373,12.2112,3.7513,4.3218,4.3219,8.3586,8.928,12.651,13.2807a48.0353,48.0353,0,0,0,6.62,5.686c2.2438,1.5666,4.6751,1.0919,6.9883-.3394,17.7709-10.9961,33.4245-24.3443,45.83-41.2821,3.1984-4.3671,6.204-8.8754,9.2875-13.3263a13.632,13.632,0,0,1,.9978-1.63c1.6893-1.8071,3.4492-4.3446,6.22-2.5876,2.29,1.4521,1.4555,4.2292.9255,6.4282a56.8623,56.8623,0,0,1-7.9134,17.6041,122.647,122.647,0,0,1-20.6844,24.8788C104.0685,491.1,89.5622,501.1344,72.72,507.4329c-5.4617,2.0426-9.9969-.4121-13.9551-4.0536-4.0732-3.7473-8.052-7.5973-12.0721-11.4024a9.8626,9.8626,0,0,1-2.6207-1.81c-1.11-.7416-2.36-2.55-2.9118.4352C41.1344,492.9143,39.058,494.0226,38.128,495.8038Z"
                      transform="translate(-0.9063 -0.9065)"/>
                <path class="cls-4"
                      d="M366.983,477.8326c5.5933-2.4391,11.651-2.5153,17.5-2.6217,18.437-.3353,36.9045-.6388,55.32.0834,10.7785.4226,21.4745.87,32.2034-.2814-2.8635,2.803-6.61,2.6351-10.1647,2.869-8.4544.5564-16.86-.6758-25.2946-.8912-18.0819-.4619-36.171-.5851-54.2463.1249C377.1976,477.3159,372.1315,478.4218,366.983,477.8326Z"
                      transform="translate(-0.9063 -0.9065)"/>
                <path class="cls-5"
                      d="M645.8636,491.0949q.0156,1.4635.0307,2.9267c-4.7554,1.4092-5.57,6.2546-7.908,9.5963-4.2014,6.0052-7.54,12.614-11.649,18.7753-.4231-5.4142,2.807-9.5493,4.8109-14.0414,1.5385-3.4488,3.9324-6.5063,5.6782-9.8765.9063-1.75,3.06-3.7547.2012-5.756-.07-1.9417,1.3388-2.4813,2.8053-2.9665C642.3364,487.9841,644.409,488.1511,645.8636,491.0949Z"
                      transform="translate(-0.9063 -0.9065)"/>
                <path class="cls-6"
                      d="M645.8425,77.8669c.3689,2.3563-.1933,4.1357-2.8248,4.7138-3.0013.6593-4.7808-.7507-5.8729-3.3764,1.0842.15,2.86,1.4885,1.7625-1.43-2.153-5.7266-6.1105-10.4642-8.5181-16.0133-1.7944-4.1357-4.8585-7.9-4.35-13.7253,5.6142,9.0644,9.9585,17.9663,15.6186,26.063C642.7892,75.7175,643.4341,77.7272,645.8425,77.8669Z"
                      transform="translate(-0.9063 -0.9065)"/>
                <path class="cls-7"
                      d="M40.0174,81.9953c.41-2.239-1.9708-3.65-1.7314-5.8338,3.5284,2.1462,4.2567-1.2277,5.4426-3.0025C49,65.2695,53.6284,56.9874,58.34,48.69c.5455,5.8811-2.7967,10.4654-5.2047,15.3433C50.8166,68.73,47.59,72.9613,45.9939,78.0354c-.2616.8317-.6853,1.5362.4751,1.9461.1881,1.1411-.5954,1.6384-1.4,2.122C43.3662,82.9614,41.6711,83.445,40.0174,81.9953Z"
                      transform="translate(-0.9063 -0.9065)"/>
                <path class="cls-8"
                      d="M38.128,495.8038c-.6972-2.37,2.3692-3.5284,1.8788-5.8322,1.6652-1.511,3.421-.7925,5.1713-.21.8489.5059,1.6425,1.05,1.5165,2.2183-.8015,4.2629,1.6462,7.3994,3.66,10.7184,3.72,6.1306,7.35,12.3133,7.6454,20.0126-2.3326-4.1306-4.6809-8.2524-6.9937-12.394a112.9966,112.9966,0,0,0-8.4112-13.3634C41.1655,495.0668,39.99,494.7592,38.128,495.8038Z"
                      transform="translate(-0.9063 -0.9065)"/>
                <path class="cls-9"
                      d="M646.3587,496.1c2.12.214,1.9957,2.2626,2.0731,3.3679a41.5479,41.5479,0,0,0,2.5769,11.5017c-2.6024-3.3778-4.5886-1.8586-5.6908,1.08-1.4159,3.7752-3.7732,6.7828-6.1567,10.0317-2.202-1.9332-.5037-3.3487.1-4.5846,1.9468-3.9847,4.11-7.8644,6.2189-11.7689C647.1506,502.6352,647.0673,499.4006,646.3587,496.1Z"
                      transform="translate(-0.9063 -0.9065)"/>
                <path class="cls-10"
                      d="M649.6276,63.0711c-1.4863,4.1583.5,9.23-3.3583,12.76,1.76-5.6317-.7372-10.2631-3.48-14.8308-2.096-3.49-4.03-7.0433-4.8477-11.0574l1.1118-.7472c2.06,3.2737,4.0951,6.5639,6.1916,9.8142C646.35,60.7242,646.8247,63.17,649.6276,63.0711Z"
                      transform="translate(-0.9063 -0.9065)"/>
                <path class="cls-11"
                      d="M37.063,70.103c.1755-3.111-2.4845-5.2414-2.8259-8.1727,2.4985.4387,4.1559.0918,5.2841-2.8266a19.89,19.89,0,0,1,6.6863-8.8608C44.4472,57.4664,40.7328,63.7748,37.063,70.103Z"
                      transform="translate(-0.9063 -0.9065)"/>
                <path class="cls-12"
                      d="M34.1614,509.959q1.4554-3.5759,2.9106-7.1531c4.827,5.368,7.2925,11.9113,10.0257,19.6712-4.4887-3.0035-6.0424-6.8561-7.8512-10.2657C37.9063,509.6849,36.4926,509.2827,34.1614,509.959Z"
                      transform="translate(-0.9063 -0.9065)"/>
                <path class="cls-13"
                      d="M361.0708,72.9514c-8.7727-1.6163-17.5629-.0336-26.3442-.1452C343.5227,70.1418,352.3151,68.2212,361.0708,72.9514Z"
                      transform="translate(-0.9063 -0.9065)"/>
                <path class="cls-9"
                      d="M651.8157,513.934c-.6338,2.8346,3.88,3.1527,2.9881,6.1124-4.2428.467-4.2607,4.8489-6.5221,7.1621-.5784.5917-.5543,1.8273-1.9661,2.4315C645.9614,523.4456,650.1341,519.1052,651.8157,513.934Z"
                      transform="translate(-0.9063 -0.9065)"/>
                <path class="cls-14"
                      d="M654.7768,51.9158c.5175,2.3874-2.0233,2.6946-2.84,4.1751a28.8228,28.8228,0,0,1-5.9933-13.7676C650.4105,44.6108,649.8463,50.8144,654.7768,51.9158Z"
                      transform="translate(-0.9063 -0.9065)"/>
                <path class="cls-15"
                      d="M540.9249,129.867c.0839,1.7728.37,3.5665-.624,5.2137-2.5139,4.1683-.3669,5.5481,3.5253,5.8779-4.5682,1.8527-5.7672,1.2331-5.8312-3.0714C537.95,134.8526,538.5883,132.0434,540.9249,129.867Z"
                      transform="translate(-0.9063 -0.9065)"/>
                <path class="cls-16"
                      d="M638.04,553.2125c-3.9571,3.2154-8.6037,2.9087-13.2521,2.5936C628.9559,553.6669,633.49,553.4,638.04,553.2125Z"
                      transform="translate(-0.9063 -0.9065)"/>
                <path class="cls-17"
                      d="M655.0966,550.2653c-3.2959,2.8142-7.28,2.6547-11.24,2.6C647.2405,550.43,651.1915,550.4468,655.0966,550.2653Z"
                      transform="translate(-0.9063 -0.9065)"/>
                <path class="cls-18"
                      d="M217.1815,454.9832c2.7538,2.93,1.4976,6.9,2.6561,10.2433C216.6276,462.4149,217.0214,458.6688,217.1815,454.9832Z"
                      transform="translate(-0.9063 -0.9065)"/>
                <path class="cls-19"
                      d="M481.1268,466.193c-.1978-3.3913,1.4586-6.2378,2.7044-9.2048C484.299,460.4588,484.1175,463.7386,481.1268,466.193Z"
                      transform="translate(-0.9063 -0.9065)"/>
                <path class="cls-20"
                      d="M679.1334,15.9136c-2.4652.0364-4.6355-.6015-6.1673-2.6981C675.363,13.3352,677.913,13.1048,679.1334,15.9136Z"
                      transform="translate(-0.9063 -0.9065)"/>
                <path class="cls-21"
                      d="M658.1159,66.1512c-.1219-2.2626.0723-4.3629,2.6807-5.2243C660.5192,62.9846,660.3139,65.0792,658.1159,66.1512Z"
                      transform="translate(-0.9063 -0.9065)"/>
                <path class="cls-22"
                      d="M106.0708,526.179c-1.2625,2.6678-3.6984,2.7207-6.1422,2.7559A7.7559,7.7559,0,0,1,106.0708,526.179Z"
                      transform="translate(-0.9063 -0.9065)"/>
                <path class="cls-23"
                      d="M585.9471,30.0874c-.0325,1.6466-1.2273,2.4518-2.5159,1.3738-4.2453-3.5511-8.5506-7.174-10.994-12.2944-1.1024-2.31.9505-2.3187,2.44-2.24C575.9962,16.9855,585.81,28.6566,585.9471,30.0874Z"
                      transform="translate(-0.9063 -0.9065)"/>
                <path class="cls-24"
                      d="M622.2542,78.787c5.5452,5.1467,11.9111,9.61,14.7507,17.0365-7.0361-4.6066-12.4992-10.7519-18.0891-16.765C619.9337,77.8017,621.1491,78.9729,622.2542,78.787Z"
                      transform="translate(-0.9063 -0.9065)"/>
                <path class="cls-25"
                      d="M622.2542,78.787c-.9944,1.5466-2.2516-.14-3.3383.2715-1.1224-.8491-2.7618-1.1232-2.9555-2.9779-.1082-1.0373-.2772-2.0508.7865-2.5865a1.533,1.533,0,0,1,2.1675.5572C619.8164,75.7893,622.1841,76.4805,622.2542,78.787Z"
                      transform="translate(-0.9063 -0.9065)"/>
                <path class="cls-26"
                      d="M637.0123,477.8012c-.2222.9856.0718,2.1675-.9489,2.7378-7.1926,4.0186-11.15,11.2735-16.7974,16.8349-.9058.892-1.4709,1.9252-2.7266,1.0723a2.2272,2.2272,0,0,1-.4586-3.4831c6.2559-6.47,12.4877-12.9794,19.0693-19.1087C636.8675,474.2551,636.86,476.6759,637.0123,477.8012Z"
                      transform="translate(-0.9063 -0.9065)"/>
                <path class="cls-27"
                      d="M585.9087,541.7183c-.0234,1.3408-.7672,1.7638-1.2606,2.4051-2.1569,2.8034-4.9973,4.9935-6.71,8.2559-.7551,1.4383-2.9021,3.4939-4.9281,1.9178-2.2715-1.7671.3944-3.1458,1.2738-4.3757a91.8444,91.8444,0,0,1,6.4384-7.8829,4.5254,4.5254,0,0,1,4.2817-1.5013C585.4508,540.6264,585.7436,541.488,585.9087,541.7183Z"
                      transform="translate(-0.9063 -0.9065)"/>
                <path class="cls-28"
                      d="M645.8636,491.0949a7.2985,7.2985,0,0,0-6.03-1.3419c.0423-2.8375,1.9532-2.8816,4.0158-2.6737C646.6181,487.3583,645.86,489.4209,645.8636,491.0949Z"
                      transform="translate(-0.9063 -0.9065)"/>
                <path class="cls-1"
                      d="M425.0072,148.0623a8.0647,8.0647,0,0,0,5.224-2.5476c1.2185-1.2186,1.2174-3.7344,3.5439-3.724,3.8261.0171,7.79-.3849,11.4307.4917,2.6434.6366,2.38,4.0091,2.4,6.419.0809,9.665.0413,19.331.0481,28.9966.0119,16.9982-.113,33.9985.162,50.9924.0508,3.14-1.3748,4.6519-3.49,5.9006-17.2948,10.2125-33.82,21.57-50.0733,33.3441-7.9531,5.7614-13.78,13.4392-19.33,21.34-2.1044,2.9957-4.7173,5.6555-6.05,9.211-1.768,4.7178.2955,8.42,5.3,8.6228,3.65.1479,7.32-.2073,10.981-.3383,5.6793-1.4587,11.6748-.3829,17.2289-1.5013,12.6929-2.5558,25.6869-2.5884,38.3318-5.2963,2.6086-.5586,5.5984-1.6269,7.86,1.149.5762,3.3292.9132,6.6469-.4711,9.8818-.1464,19.3212.0852,38.6547-.5463,57.96-.6243,19.09-2.1845,38.1481-3.172,57.2285-.1692,3.2672-1.4252,4.1762-4.5511,4.2261-35.0979.5592-70.14,2.7633-105.2655,2.9756-24.0793.1455-48.1532,2.1853-72.2166,3.5971-13.3394.7826-13.5833,1.0139-15.08-12.3641-1.1631-10.3938-1.9453-20.859-2.2788-31.3121-2.1727-68.1094-.8407-136.2364-.8349-204.3572.0011-14.1575-.31-28.3148-.4217-42.4727-.02-2.4825-1.0415-5.7,3.4925-5.4552,3.14.17,6.4491-.6328,6.2461,4.5573-.1523,3.89,2.4253,5.97,6.4057,6.1207,18.6145.7035,37.2233,1.7966,55.8436,2.0484,23.4788.3175,46.9711.1873,70.4486-.2382,8.5986-.1559,17.1718-1.7086,25.7565-2.6241C416.3128,150.06,421.04,150.8147,425.0072,148.0623Z"
                      transform="translate(-0.9063 -0.9065)"/>
                <path class="cls-29"
                      d="M332.02,445.1581l28.0763-.3708c11.9.0539,23.8271-1.4406,35.71-.445l.0637,2.2844c-16.87,1.8434-33.887,1.5539-50.4142,2.4757,1.8189.69,4.16.34,6.4529.3412,21.1036.0128,42.2536.9427,63.1772-2.9076a191.9547,191.9547,0,0,0,18.873-4.36c3.4948-.0506,6.9895-.1158,10.4844-.1484,6.4581-.06,10.0021-3.2192,10.7981-9.5491,2.4082-19.1481,2.0514-38.4624,3.4961-57.6682,1.8872-25.0874.5137-50.2153.9181-75.3212.0185-1.1513.251-2.2992.3838-3.4486,1.6044-1.0535,2.7842-2.0913-.11-2.9783-.7084-4.7455-1.2159-9.5331-2.2015-14.22-.58-2.7566.0837-4.2579,2.5495-5.5805a110.4017,110.4017,0,0,0,11.6711-7.0785c2.778-1.9679,2.9744-.7008,2.9545,1.673-.0489,5.8186-.0953,11.6375-.1005,17.4563-.0069,7.81.026,15.6211.0418,23.4316-.8118,6.7727-.628,13.6049-.7252,20.3858-.3461,24.1242.7437,48.3031-.8624,72.3657-1.1236,16.834,1.2855,33.5193.2713,50.2765-.152,2.51-.09,4.9948-1.4361,7.2385a5.4882,5.4882,0,0,1-3.0062,4.2994c-1.6765,2.0116-3.9543,2.2025-6.3512,2.1866-7.6532-.0507-15.304-.2885-22.9525-.411-17.4881-.28-34.9838-.1284-52.476-.0625a121.788,121.788,0,0,0-14.3759.892l-5.922.201c-7.0042,1.5868-14.2426,1.32-21.2745,2.6878-14.3225.0656-28.3732,3.6189-42.7233,3.33-2.3314,1.2224-4.8606.8377-7.3247.8492-7.7891.0362-15.5786.0162-23.3679.0121-1.8257-.0009-3.6587.0547-5.3269-.8867l-7.852-.2614c-5.0166-1.1216-10.2762-.9283-15.1542-2.8-4.2481.4816-7.6413-2.0716-11.213-3.5708-2.5022-1.05-3.7576-3.8855-3.8935-7.0108-.9831-22.5973-1.7318-45.2126-3.2265-67.7777-1.5273-23.0577-2.8271-46.1217-3.7334-69.2073-.6724-17.1288-1.1182-34.2677-1.5229-51.4055-.4873-20.64-.241-41.3163-1.3884-61.917-1.1753-21.101-2.0867-42.1869-2.1064-63.314-.0038-4.16.1485-8.3249.3593-12.4809.2372-4.6772,1.6527-8.2472,7.1975-9.0631,3.5662-.5247,6.92-2.3394,10.6355-2.48,3.7717-.5471,7.5529-1.0369,11.2735-1.89,2.5092-.5753,4.9824-1.33,5.4574,2.6265.4538,3.78-1.78,4.8018-4.7438,4.7734-6.4264-.0615-12.4534,2.059-18.6731,3.1066-.91.1532-2.0568-.0139-2.4257,1.2986,3.9955-2.01,6.1368-1.3234,7.1878,2.272-1.3145,5.0368.2829,10.0751-.0721,15.1556-1.467,20.9981-.3791,42.0556-1.1317,63.0763a30.6964,30.6964,0,0,0-3.3665,14.9256c-.0774,20.6619-.587,41.3443.1791,61.9789.4637,12.4873.7585,24.9612.7389,37.4445-.0133,8.4842-.895,16.94-1.0783,25.439-.3176,14.7234,1.9663,29.203,3.09,43.7892a19.0828,19.0828,0,0,0,1.2365,4.3077c1.3242,5.27.8075,10.7856,2.0964,16.0671-.4572,7.494,1.0083,14.8657,1.55,22.2913.4633,6.3485,5.5061,9.8954,13.9721,10.2033,7.79.2833,15.5967.1232,23.3961.1584,12.1873-.63,24.4064-.5537,36.5775-1.4013C317.5763,445.94,324.8761,446.8112,332.02,445.1581Z"
                      transform="translate(-0.9063 -0.9065)"/>
                <path class="cls-30"
                      d="M265.0208,128.9657c-1.6781-6.2675-2.3873-12.7093-3.5376-19.0712-.559-3.0921.2419-3.6508,3.0843-3.8447a678.5216,678.5216,0,0,1,90.15-.44c13.0839.8475,26.2274.2528,39.3475,1.0121,7.4077.4287,14.9036-.7041,22.3622-1.0875,1.7143-.0881,3.7527-.99,4.7077,1.4614,1.7187,5.6446,2.1664,11.31.2912,17.0172-5.3221,3.1969-11.5246,3.3931-17.315,4.0964-17.874,2.171-35.8507,1.6835-53.8389.8158-18.6038-.8973-37.0443-4.1745-55.7609-3.4558-7.6828.295-15.28.5693-22.679,2.941C269.672,129.1027,267.3853,129.9923,265.0208,128.9657Z"
                      transform="translate(-0.9063 -0.9065)"/>
                <path class="cls-30"
                      d="M574.0461,192.0171c-11.5528,6.1985-22.2216,13.8151-33.3435,20.7-11.2747,6.9795-23.03,13.1785-34.5084,19.8349-4.146,2.4042-8.4487,4.5761-12.18,7.6789-.8164.6789-2.1488.7373-3.2436,1.0815-4.4737,1.7052-6.8313-1.3806-8.9849-4.2752-2.4972-3.3564-3.5349-7.0845-.8482-10.9663,22.0576-13.9595,44.38-27.4757,67.3832-39.83,4.7576-2.5552,9.7753-4.5844,14.405-7.4509,4.7733-2.9554,8.0115-1.3044,11.3345,5.1886C575.6594,186.6612,576.5745,189.3422,574.0461,192.0171Z"
                      transform="translate(-0.9063 -0.9065)"/>
                <path class="cls-31"
                      d="M421.0114,135.9792c-5.5777,4.3908-12.4191,2.7931-18.6593,3.6674-23.9248,3.3522-48.0329,2.4855-72.0986,2.3147-8.8083-.0625-17.6163-.26-26.4242-.25-11.7876.0127-23.5209-1.0957-35.2839-1.5041-5.3594-.186-3.1967-3.7652-3.4873-6.3394,1.6583-2.6585,4.4311-3.4635,7.1932-4.0433,12.4224-2.6075,24.72-3.6643,37.6066-1.994,26.8814,3.4841,53.9373,5.7867,81.129,4.61,8.157-.3531,16.1717-1.9519,24.2412-3.0664,1.946-.2688,3.9655-.7959,5.8555.35C422.48,131.8252,422.1211,133.9068,421.0114,135.9792Z"
                      transform="translate(-0.9063 -0.9065)"/>
                <path class="cls-31"
                      d="M469.1017,208.0051c-.08,2.829-.1074,5.661-.2674,8.4854-.063,1.1107.3168,2.4178-.76,3.272-2.5361,2.0125-5.046,5.3937-8.28,4.435-2.2879-.6783-.9575-4.4718-.9921-6.8449-.3259-22.3157-.2435-44.6428-.9825-66.9433-.1915-5.7809,1.3509-12.505-4.0195-17.3035-5.6182-2.1252-11.4748-.6667-17.2034-1.138-1.6259-.1338-2.94-.5062-3.0763-2.5018-.1328-1.9422.4955-3.2345,2.5554-3.5793a22.7365,22.7365,0,0,1,2.4807-.2461,9.84,9.84,0,0,0,3.4325-.4356c-.9571-1.62-3.077-1.9139-3.8112-3.4875-.7378-2.7492,1.34-2.7541,2.8886-2.606,9.3726.8963,18.871-.2434,28.17,1.7553,2.9989,1.2084,2.4384,3.9763,2.53,6.27.1954,4.8918.1038,9.7951.13,14.6938-.7359,11.2029-.8712,22.42-.9328,33.6435-.0534,9.74-1.484,19.4386-1.0069,29.2028A6.5179,6.5179,0,0,1,469.1017,208.0051Z"
                      transform="translate(-0.9063 -0.9065)"/>
                <path class="cls-30"
                      d="M460.1815,259.8118c-14.1209,9.2824-28.836,17.5735-43.44,26.0505a34.1515,34.1515,0,0,0-5.8378,3.6611c-2.2667,2.0345-4.4835,2.7757-7.1365,1.1218-3.9334-2.4523-7.56-5.286-8.6819-10.086-.4334-1.8546,1.0755-2.9385,2.5676-3.876,5.8247-3.66,11.7376-7.1734,17.5365-10.8833,10.7136-6.8543,21.6945-13.29,32.1254-20.5938a18.7116,18.7116,0,0,1,3.6145-1.5444c1.9889-1.5812,4.4124-2.2893,4.8884.8636a35.9907,35.9907,0,0,0,4.52,11.96A3.3456,3.3456,0,0,1,460.1815,259.8118Z"
                      transform="translate(-0.9063 -0.9065)"/>
                <path class="cls-32"
                      d="M420.7609,130.0847c-20.1923,3.9535-40.6069,4.854-61.0819,3.8347-19.4031-.966-38.6956-3.349-58.0113-5.409-12.6023-1.3441-24.7554,1.1853-36.61,5.359q-.0183-2.4536-.0371-4.9035c16.0858-6.424,32.857-5.6117,49.61-4.532,8.9409.5762,17.8405,1.7739,26.7786,2.4141,8.4573.6058,16.939.8848,25.4126,1.245A243.5749,243.5749,0,0,0,420.87,123.92C422.6683,126.0075,422.7314,128.0641,420.7609,130.0847Z"
                      transform="translate(-0.9063 -0.9065)"/>
                <path class="cls-33"
                      d="M231.9951,400.0158c-2.9245-4.2177-2.12-9.2732-2.8581-13.9153-2.5666-16.1385-2.728-32.4806-1.788-48.7228a369.8336,369.8336,0,0,0,.4337-39.86c-1.2156-24.2745-.4622-48.539-.6633-72.8064-.0279-3.3646.8849-6.5593,1.4057-9.8286a3.9725,3.9725,0,0,1,3.441-3.6467q.0142,19.7157.0288,39.4265.01,57.1668.0112,114.3335a9.3533,9.3533,0,0,1,1.4687,4.67c.02,8.7588.0507,17.5177-.0208,26.2763A5.1877,5.1877,0,0,1,231.9951,400.0158Z"
                      transform="translate(-0.9063 -0.9065)"/>
                <path class="cls-34"
                      d="M433.9594,442.176a6.34,6.34,0,0,1-4.3561,2.9037c-26.5471,7.0271-53.65,6.0857-80.7112,5.8152-2.5684-.0257-4.6714-1.2705-6.8318-3.0811l52.875-2.1281-.0087-.8979q-17.4181,0-34.8331,0c.4449-.2126.8846-.6068,1.3286-.6116C385.6126,443.9168,409.7441,441.5064,433.9594,442.176Z"
                      transform="translate(-0.9063 -0.9065)"/>
                <path class="cls-35"
                      d="M320.3858,91.829c4.916-6.2167,12.0055-7.76,18.7137-9.2291,10.8953-2.3852,21.3628-1.6368,29.0784,8.1419.5813.7368,1.7875,1.1338,1.28,2.3732-.4075.9961-1.411.71-2.1807.7056-11.4391-.0622-22.8993.4276-34.2983-.8533C328.9208,92.5113,324.6942,93.8555,320.3858,91.829Z"
                      transform="translate(-0.9063 -0.9065)"/>
                <path class="cls-36"
                      d="M472.0922,459.01c.0238-19.0967-.1363-38.1958.1173-57.2895.3263-24.5716,1.259-49.1323,1.15-73.7148-.0285-6.4179.963-12.84,1.4858-19.2614.0655,16.61.1576,33.22.1876,49.831.0195,10.8016.0879,21.6061-.1336,32.4038-.1345,6.5606.9038,13.15-1.6064,19.6815a16.4444,16.4444,0,0,0-.0346,9.8506c3.2846,11.1466.9341,22.4669,1.6972,33.6678C475.1111,456.4687,473.9521,457.9369,472.0922,459.01Z"
                      transform="translate(-0.9063 -0.9065)"/>
                <path class="cls-37"
                      d="M447.901,300.8807c-4.8715-.7987-9.5946.6883-14.1886,1.6181-10.5794,2.1413-21.41,1.9251-31.9874,4.22-5.2815,1.1458-11.0374.1046-16.5749.0522a19.1331,19.1331,0,0,1,10.4075-2.5016c6.5856.17,11.9581-2.0686,16.999-5.8857.5523-.4182,1.5693-.2226,2.3708-.3118a163.3534,163.3534,0,0,0,20.5783-2.5965c4.2461-.8556,8.4676-1.62,12.7821-.4971C449.5124,297.0354,449.6818,299.0226,447.901,300.8807Z"
                      transform="translate(-0.9063 -0.9065)"/>
                <path class="cls-38"
                      d="M447.8588,295.0494c-10.237,1.5984-20.409,3.6949-30.8095,4.0411a2.24,2.24,0,0,1-2.1208-1.0192c8.8528-3.7718,17.0709-8.7683,25.54-13.28,1.5627-.8326,3.0568-1.7938,4.5826-2.6956,1.5022-2.1725,3.4127-2.1617,3.6263.4123C449.0218,286.656,450.1415,291.0157,447.8588,295.0494Z"
                      transform="translate(-0.9063 -0.9065)"/>
                <path class="cls-39"
                      d="M372.93,465.9148c7.2949-1.7324,14.7349-1.9912,22.1739-1.9932,15.14-.004,30.2867-.0833,45.4179.3308,5.6084.1535,11.2182.8754,16.8635.9306,4.0391.04,7.96-.2529,11.701-1.8741-.1734,3.9018-3.2809,2.71-5.25,2.7161-15.9861.0494-31.9726-.1115-47.9591-.145C401.5618,465.85,387.2461,465.9,372.93,465.9148Z"
                      transform="translate(-0.9063 -0.9065)"/>
                <path class="cls-40"
                      d="M233.1692,133.0067c-1.8417-3.8971-5.8076-.6267-8.3137-2.5213.2188-1.8122,1.6063-2.2218,3.1266-2.4692,6.3295-1.03,12.4483-3.4068,19.0178-2.9138,2.3237.1745,4.3262.0451,3.9965-3.3087-.3606-3.6676-2.52-2.4735-4.6346-2.1372-3.7313.5934-7.3991,1.9343-11.2714,1.1635,3.5627-1.9139,7.6447-1.5916,11.4059-2.6616,4.1991-1.1945,6.1752.6858,6.31,4.8339.0744,2.297.0552,4.597.0782,6.8957-1.0662,2.4695-3.0963,1.7017-5.0781,1.7229-4.3606.0466-8.9024-1.4058-13.0181,1.25Z"
                      transform="translate(-0.9063 -0.9065)"/>
                <path class="cls-41"
                      d="M231.9951,400.0158q.0054-17.51.0109-35.0195a4.95,4.95,0,0,1,2.9589,4.7687c-.068,15.1417-.0756,30.2838-.1032,45.4257C232.554,410.3877,232.42,405.1743,231.9951,400.0158Z"
                      transform="translate(-0.9063 -0.9065)"/>
                <path class="cls-42"
                      d="M469.1017,208.0051c-.4818-21.5014,1.3305-42.931,2.0469-64.3948a5.5919,5.5919,0,0,1,.7483-1.78c.7656,20.8308-.4369,41.634-.8684,62.4483C470.9951,205.8884,470.613,207.2113,469.1017,208.0051Z"
                      transform="translate(-0.9063 -0.9065)"/>
                <path class="cls-43"
                      d="M332.02,445.1581a3.5192,3.5192,0,0,1-3.2785,1.8246c-18.3129.7824-36.6247,1.6057-54.9617.8611,5.3671-2.18,11.097-1.07,16.6005-1.4282C304.2254,445.5144,318.1069,444.3513,332.02,445.1581Z"
                      transform="translate(-0.9063 -0.9065)"/>
                <path class="cls-44"
                      d="M438.9675,121.9168c2.3909.9233,6.4623,1.4871,6.1563,3.808-.321,2.4352-4.2266.6462-6.4993,1.1422-1.7551.3831-4.6285-.6811-4.4383,2.3978.1684,2.7246,2.7807,1.5129,4.401,1.6646,5.1092.4783,10.549-1.4054,15.2144,2.1773-5.6182-.08-11.2432-.3652-16.85-.1606-3.4182.1247-4.7229-1.2959-4.0475-4.3235.7735-3.4667-1.1305-7.1978,1.1677-10.4555A18.7926,18.7926,0,0,0,438.9675,121.9168Z"
                      transform="translate(-0.9063 -0.9065)"/>
                <path class="cls-45"
                      d="M484.2075,244.9544c-1.0957,2.9283-3.8027,2.61-5.33,1.4885-4.0974-3.01-7.8618-6.5065-7.4326-12.423a4.8978,4.8978,0,0,1,4.4642-4.9851C477.2688,235.0746,481.7526,239.4857,484.2075,244.9544Z"
                      transform="translate(-0.9063 -0.9065)"/>
                <path class="cls-46"
                      d="M484.2075,244.9544c-4.444-4.4317-8.7149-8.9536-8.2972-15.9195,2.2993.069,2.487-3.4452,5.0282-2.9648-.8977,8.8872,2.3279,13.88,9.8375,15.24C489.4126,244.0213,486.3045,243.5767,484.2075,244.9544Z"
                      transform="translate(-0.9063 -0.9065)"/>
                <path class="cls-47"
                      d="M460.1815,259.8118c.0982-2.9264-2.4041-4.5959-3.4567-6.986-.8755-1.9877-1.9389-3.8318-1.7019-6.06.3592-3.3784-1.2351-4.0468-4.0959-3.1028,2.2242-3.0869,6.1411-3.4127,8.97-5.5092a21.8135,21.8135,0,0,0,6.1066,18.0281C464.9325,258.7863,462.1658,258.6714,460.1815,259.8118Z"
                      transform="translate(-0.9063 -0.9065)"/>
                <path class="cls-48"
                      d="M438.9675,121.9168c-2.7075.1539-4.8795-.3913-4.896-3.75,10.2481-.1543,20.4988-.24,30.6973.9647,1.5421.1822,3.35.2183,4.4679,1.7354-9.2334-.1618-18.4965.9726-27.7042-.71C440.5227,119.973,438.0724,118.8288,438.9675,121.9168Z"
                      transform="translate(-0.9063 -0.9065)"/>
                <path class="cls-49"
                      d="M466.004,256.1819a13.9008,13.9008,0,0,1-6.1051-18.0286c2.7,5.0193,4.8221,10.309,8.7168,14.7213C470.4085,254.9055,467.8419,255.7819,466.004,256.1819Z"
                      transform="translate(-0.9063 -0.9065)"/>
                <path class="cls-50"
                      d="M420.761,130.0847q.0549-3.0824.11-6.1646c1.1494-5.6249-.11-11.2875.2639-16.9244.4785.4432,1.2472.8075,1.3921,1.3412a50.17,50.17,0,0,1-.3371,26.7907c-.0993.3641-.7724.5717-1.1781.8519Q420.8862,133.0319,420.761,130.0847Z"
                      transform="translate(-0.9063 -0.9065)"/>
                <path class="cls-51"
                      d="M447.8588,295.0494c.0729-3.5817.06-7.1678.2478-10.7435.1319-2.5138-.6373-3.4049-3.0553-2.2107.2243-2.98,2.4933-2.1771,4.1159-2.01,2.1624.2227,1.1382,1.8078,1.0084,3.0483-.7888,7.538,1.0488,15.0907-.1285,22.6446-.2994,1.9208.3187,4.0736-1.9432,5.2253q-.1011-5.06-.2025-10.1208Q447.88,297.964,447.8588,295.0494Z"
                      transform="translate(-0.9063 -0.9065)"/>
                <path class="cls-52"
                      d="M266.9911,472.1082l36.0195.0253c-.9213,1.77-2.5353,1.8991-4.2736,1.8941q-13.742-.0391-27.4842-.0046C269.5083,474.0276,267.9049,473.8775,266.9911,472.1082Z"
                      transform="translate(-0.9063 -0.9065)"/>
                <path class="cls-53"
                      d="M384.818,297.9476c-1.263-.2367-3.4254.3953-2.8061-1.7128a14.261,14.261,0,0,1,4.8756-7.11c.649-.5122,5.7363,5.1422,5.2184,6.0308C390.4677,297.9657,387.3831,297.4942,384.818,297.9476Z"
                      transform="translate(-0.9063 -0.9065)"/>
                <path class="cls-54"
                      d="M234.7879,132.8607c-.0066-2.834,1.9053-2.7768,4.0226-2.9809,4.7055-.4537,9.39,1.4287,14.0742.0084.0629,2.7763-1.7994,3.1067-3.93,3.09Q241.8711,132.9217,234.7879,132.8607Z"
                      transform="translate(-0.9063 -0.9065)"/>
                <path class="cls-55"
                      d="M345.7339,468.8036c6.844-2.856,14.0492-2.853,21.2747-2.6878-2.9668,3.64-7.37,1.5286-11.0226,2.5866C352.8242,469.6184,349.17,468.8355,345.7339,468.8036Z"
                      transform="translate(-0.9063 -0.9065)"/>
                <path class="cls-56"
                      d="M243.9849,469.0471c5.1895.185,10.3485.5358,15.1541,2.8C253.8948,471.9576,248.5314,472.7133,243.9849,469.0471Z"
                      transform="translate(-0.9063 -0.9065)"/>
                <path class="cls-57" d="M425.0072,148.0623c-3.6656,4.1476-8.5079,2.86-13.0776,2.8313Z"
                      transform="translate(-0.9063 -0.9065)"/>
                <path class="cls-58"
                      d="M459.93,293.0622c1.83.16,3.7995-.6742,5.8912.9589A9.1284,9.1284,0,0,1,460.04,296.04Q459.9848,294.5515,459.93,293.0622Z"
                      transform="translate(-0.9063 -0.9065)"/>
                <path class="cls-59"
                      d="M574.0461,192.0171c1.0024-2.6776.131-5.3586.0142-8.0382C577.0642,186.6637,578.4878,189.3456,574.0461,192.0171Z"
                      transform="translate(-0.9063 -0.9065)"/>
                <path class="cls-60"
                      d="M47.2482,96.6953a8.5624,8.5624,0,0,1,2.9828-5.6945c4.9883-4.7975,10.0932-9.4932,13.9315-15.3332.8675-1.32,1.952-2.3752,3.5973-2.1529,1.1122.15,2.7841.9707,1.4,2.2152C61.9487,82.2138,56.1387,90.231,47.2482,96.6953Z"
                      transform="translate(-0.9063 -0.9065)"/>
                <path class="cls-61"
                      d="M100.4518,31.7456c-1.8974-.332-2.8506-1.2772-1.4209-3.0029,3.1578-3.8113,6.4516-7.5106,9.7149-11.2337a2.1886,2.1886,0,0,1,3.08-.5975c1.4254.9067.8806,2.1979.1861,3.0052-3.3016,3.8377-6.7332,7.5643-10.1614,11.291C101.5524,31.5315,100.9414,31.5672,100.4518,31.7456Z"
                      transform="translate(-0.9063 -0.9065)"/>
                <path class="cls-62"
                      d="M40.0174,81.9953q2.5255.0537,5.0515.1078c-.9733,1.3105-1.8563,2.9152-3.7911,2.6531C39.7,84.5425,40.0211,83.1156,40.0174,81.9953Z"
                      transform="translate(-0.9063 -0.9065)"/>
                <path class="cls-63"
                      d="M64.0337,495.92c-4.3511-7.6488-12.4282-12.267-16.5111-20.1851,8.3994,6.0626,15.1309,13.8067,22.273,21.1195C67.4362,499.2488,65.6048,498.3869,64.0337,495.92Z"
                      transform="translate(-0.9063 -0.9065)"/>
                <path class="cls-64"
                      d="M102.9545,541.066c2.5871,2.951,5.123,5.9491,7.7831,8.8327,1.3,1.41,2.55,3.003.9657,4.5658-1.8308,1.8057-3.0573-.5794-3.9948-1.5431-2.738-2.8148-5.161-5.9362-7.7074-8.9375-.7332-.8627-1.7308-1.89-.8942-2.9414C100.2027,539.6663,101.6693,540.1346,102.9545,541.066Z"
                      transform="translate(-0.9063 -0.9065)"/>
                <path class="cls-65"
                      d="M102.9545,541.066c-2.5214-.5828-4.0756-.1868-2.9533,2.918-1.2735-.1216-2.9208.1639-2.7462-1.8885A3.1339,3.1339,0,0,1,99,539.2728,2.73,2.73,0,0,1,102.9545,541.066Z"
                      transform="translate(-0.9063 -0.9065)"/>
                <path class="cls-66"
                      d="M45.1781,489.7613q-2.5857.1054-5.1714.2106c.0839-1.0865-.3188-2.54,1.2722-2.7594C43.19,486.9491,44.0781,488.5942,45.1781,489.7613Z"
                      transform="translate(-0.9063 -0.9065)"/>
                <path class="cls-67"
                      d="M64.0337,495.92c1.795,1.0895,3.5579,2.3768,5.7627.9347.0194,2.696-1.9733,2.05-3.5145,2.0865C64.1507,498.9912,64.026,497.4919,64.0337,495.92Z"
                      transform="translate(-0.9063 -0.9065)"/>
                <path class="cls-2"
                      d="M265.1768,187.17c13.1732-19.6516,47.2746-14.6071,58.4555,4.2994,10.8738,18.3872,8.9,26.8105-2.2371,42.5889-8.8477,12.5347-22.5766,16.6018-37.9237,13.72-1.14-.214-2.2618-.524-3.392-.7894-8.4129-3.085-13.9691-9.3617-18.6134-16.665a13.7226,13.7226,0,0,1-.5644-2.417A279.1986,279.1986,0,0,1,260.73,199.87C261.4372,195.3686,263.9584,191.4977,265.1768,187.17Z"
                      transform="translate(-0.9063 -0.9065)"/>
                <path class="cls-2"
                      d="M288.9522,412.1249c-15.0953-5.7-23.0861-13.55-22.98-29.4342.0329-4.9282,2.723-8.6766,5.0714-12.6152,3.7128-5.1532,6.3229-11.1576,11.6552-15.0644a5.2428,5.2428,0,0,1,1.7045-.9319c1.6636-.3852,3.5445-.3517,4.4325-2.2692,1.9626-1.1325,4.2934-1.44,6.1655-2.7689,14.3917-4.072,25.7718.82,35.1081,11.7953,2.4441,5.5009,5.0639,10.7872,5.9069,17.0265.6011,4.449-1.6081,8.3575-.7308,12.5756a8.8552,8.8552,0,0,1-.5178,2.2646c-.9591,1.675-2.769,2.9283-2.57,5.1889-4.6173,10.169-12.5441,15.3324-23.654,16.1651C301.85,414.5587,295.301,414.635,288.9522,412.1249Z"
                      transform="translate(-0.9063 -0.9065)"/>
                <path class="cls-2"
                      d="M264.8557,294.1471c1.7873-4.44,2.4339-9.6133,7.8051-11.7251.5641-.2218.944-1.2877,1.1329-2.0321,2.9017-11.4327,12.3967-16.2181,22.0464-17.9091,16.3069-2.8575,25.6163,1.2034,34.555,17.97a12.4525,12.4525,0,0,1,.7149,3.3807c1.322,3.2014,1.1595,6.7759,2.6431,9.9733.986,2.1249-.4143,4.0984-1.0409,6.1418-.6218,2.0281-.2924,4.2643-.36,6.4089-2.2891,11.9169-10.8819,21.7513-21.7945,23.0245-6.0242.2943-12.0449,1.9462-18.072.0548a13.7446,13.7446,0,0,1-3.1432-.5507c-2.38-.8254-4.3311-2.7782-7.07-2.68C267.5927,321.0048,261.28,307.1881,264.8557,294.1471Z"
                      transform="translate(-0.9063 -0.9065)"/>
                <path class="cls-68"
                      d="M264.8557,294.1471c-.3933,8.16.25,15.94,5.9855,22.5935a32.5836,32.5836,0,0,0,12.0448,8.379c1.6985,1.7236,4.0087,2.08,6.1733,2.7616l2.8109.3223c6.4237,3.0767,12.8154,2.5784,19.187-.1713a23.05,23.05,0,0,0,16.4885-12.4609c1.4051-2.6674,3.79-5.1281,3.4725-8.5617,1.6437-4.4645,2.7771-9.03,2.3158-13.8282-.1149-1.1955-.2744-2.2579.6729-3.1635,7.6114,16.6431.4589,33.1912-11.4654,39.9-10.9973,6.1873-22.631,6.3958-34.6315,3.1146-9.0756-2.4814-16.134-7.3965-20.9727-15.4718-3.83-6.3918-4.5784-13.3644-3.8914-20.6106A3.4013,3.4013,0,0,1,264.8557,294.1471Z"
                      transform="translate(-0.9063 -0.9065)"/>
                <path class="cls-69"
                      d="M288.9522,412.1249c8.6424,1.7692,17.3831,2.4925,25.89-.1333,7.563-2.3346,13.525-6.9633,16.2957-14.8276a1.74,1.74,0,0,1,2.6861-.2874,23.3346,23.3346,0,0,1-13.06,15.0759c-9.7928,4.584-20.17,3.9449-30.4694,1.5179C289.7705,413.3469,289.3962,412.588,288.9522,412.1249Z"
                      transform="translate(-0.9063 -0.9065)"/>
                <path class="cls-70"
                      d="M284.9575,354.9476c-5.0066,3.1171-8.024,7.9706-10.7454,12.9261-.8556,1.558-1.4,2.4595-3.1686,2.2015,1.4317-8.9576,7.3524-14.1513,15.0046-17.8929C287.0788,353.6539,285.9728,354.2829,284.9575,354.9476Z"
                      transform="translate(-0.9063 -0.9065)"/>
                <path class="cls-71"
                      d="M334.0679,391.0658c-.1081-3.26,1.6684-7.0365,1.2108-9.3279-.96-4.8048-.1472-10.2-3.1122-14.5289a9.7842,9.7842,0,0,1-2.0574-6.3727c6.1123,6.97,7.6207,15.2368,6.8072,24.1581C335.5988,386.8455,337.4553,390.1858,334.0679,391.0658Z"
                      transform="translate(-0.9063 -0.9065)"/>
                <path class="cls-72"
                      d="M334.0069,290.0179q-.0219,5.3624-.0452,10.7246c-.0148,2.54-.5135,4.8588-2.9436,6.2671.1508-3.5333-.6019-7.1084,1.6938-10.43,1.3353-1.9324-1.352-3.4994-1.5336-5.3574-.2386-2.442-.065-4.9243-.0685-7.39C332.593,285.6516,333.9735,287.5193,334.0069,290.0179Z"
                      transform="translate(-0.9063 -0.9065)"/>
                <path class="cls-73"
                      d="M262.107,230.8638c4.3374,3.2779,6.6714,8.44,11.4668,11.5131,2.127,1.3632,5.426,1.6389,6.5049,4.6126-9.0745-1.2532-14.0027-7.6109-18.2394-14.82A.83.83,0,0,1,262.107,230.8638Z"
                      transform="translate(-0.9063 -0.9065)"/>
                <path class="cls-74"
                      d="M262.107,230.8638q-.1332.6523-.2671,1.3054c-5.1378-9.0108-6.3177-18.4559-3.1105-28.3816a2.4062,2.4062,0,0,1,1.1272,1.2238c1.3723,7.32-.3561,14.8647,1.5834,22.1535.1653.6215.0843,1.3064.5778,1.8219Z"
                      transform="translate(-0.9063 -0.9065)"/>
                <path class="cls-74"
                      d="M265.1768,187.17c.9359,4.465-2.7028,7.6655-3.2409,11.7231-1.0809,1.6681.2664,4.5684-2.6833,5.2882q-.26-.1967-.522-.3932C259.5521,197.7338,261.3,192.0392,265.1768,187.17Z"
                      transform="translate(-0.9063 -0.9065)"/>
                <path class="cls-69"
                      d="M334.0679,391.0658q1.4244-3.036,2.8486-6.0718c.5241,4.082-.12,7.8614-2.8725,11.0947-.9946-1.0065-.721-2.0579-.1107-3.1212Q334.0005,392.0167,334.0679,391.0658Z"
                      transform="translate(-0.9063 -0.9065)"/>
                <path class="cls-75"
                      d="M295.0011,349.0411c-1.2836,2.2846-3.4659,2.85-5.8381,3.0519a.9562.9562,0,0,1-1.4106-.2328A9.1187,9.1187,0,0,1,295.0011,349.0411Z"
                      transform="translate(-0.9063 -0.9065)"/>
                <path class="cls-76"
                      d="M287.7524,351.86q.7042.1158,1.4095.2323c-.0759,2.9032-2.0064,3.0762-4.2042,2.8554q.5452-1.3835,1.0907-2.766Q286.9,352.0214,287.7524,351.86Z"
                      transform="translate(-0.9063 -0.9065)"/>
                <path class="cls-71"
                      d="M333.9333,392.9675q.0554,1.56.1106,3.1206a1.5092,1.5092,0,0,1-.22.7888q-1.3438.1425-2.6868.2864C330.5223,394.7344,332.2048,393.8356,333.9333,392.9675Z"
                      transform="translate(-0.9063 -0.9065)"/>
                <path class="cls-77"
                      d="M466.3568,338.8387a30.9453,30.9453,0,0,1,2.4942,12.9293c.0793,14.6562.3919,29.3261-.1076,43.9661a409.4448,409.4448,0,0,1-3.0723,41.2122c-1.1508,8.4571-6.924,14.2994-15.4388,17.186-7.1743,2.4322-14.5856,3.0817-21.9875,3.8523-33.4861,3.4861-67.1038,3.2147-100.6921,2.8939-14.527-.1387-29.17-.1164-43.7863-3.1474,1.1256-1.2187,2.31-.8111,3.325-.8276,21.6288-.3505,43.2589-.6319,64.8878-.9791,17.6331-.283,35.2738-.3949,52.8948-1.0337a308.786,308.786,0,0,0,39.5753-4.106c9.9878-1.6653,15.24-8.07,16.8192-18.0036,2.3349-14.6846,2.1068-29.4916,2.6552-44.2459C464.5394,371.97,464.7652,355.3952,466.3568,338.8387Z"
                      transform="translate(-0.9063 -0.9065)"/>
                <path class="cls-78"
                      d="M292.1284,208.8768c-2.9741-3.0107-5.2093-6.9664-9.9225-7.7522-4.172-.6955-5.9394,1.0164-5.3535,5.189.6534,4.6521,11.2673,17.1418,15.6742,18.1,3.156.686,5.879-.8211,7.9823-3,5.0459-5.2279,7.87-12.0331,12.2509-17.7489.6048-.7891-.1272-2.7477,1.7447-2.3509,1.1184.237,1.6492,1.44,2.2543,2.48,3.5356,6.08,1.8966,11.91-.9367,17.5354-3.19,6.333-7.6257,11.52-14.7276,13.7549-5.0142,1.4469-10.0252,2.9388-15.2757,1.0982-7.36-1.6724-11.247-7.2276-14.7576-13.2031-2.3825-8.9891-1.3891-17.9872-.073-26.9863.14-3.0136,2.5784-4.1824,4.7143-5.128,10.377-4.5938,20.83-6.6764,31.1625.2313,1.2557,1.28.276,2.1216-.7019,2.6905-2.2151,1.2885-3.4114,3.4653-4.9724,5.3275l-3.3535,5.7471C296.3057,206.7276,295.6929,209.9,292.1284,208.8768Z"
                      transform="translate(-0.9063 -0.9065)"/>
                <path class="cls-79"
                      d="M259.2526,204.1816q1.3419-2.6435,2.6836-5.2876.04,15.0457.0814,30.0928C257.2918,221.1425,259.2141,212.5571,259.2526,204.1816Z"
                      transform="translate(-0.9063 -0.9065)"/>
                <path class="cls-80"
                      d="M270.9882,195.9925c.0588,8.9953-1.1635,17.9941.0729,26.9862C267.187,213.9938,268.03,204.996,270.9882,195.9925Z"
                      transform="translate(-0.9063 -0.9065)"/>
                <path class="cls-81"
                      d="M285.8188,236.1819l15.2757-1.0983C296.8743,238.2945,289.7711,238.8051,285.8188,236.1819Z"
                      transform="translate(-0.9063 -0.9065)"/>
                <path class="cls-82"
                      d="M301.1907,199.1138c-.0149-4.022,4.6957-4.6995,5.6744-8.018,1.2336.4613,1.5262,1.8042.7469,2.2786C305.0891,194.9106,304.1855,198.1876,301.1907,199.1138Z"
                      transform="translate(-0.9063 -0.9065)"/>
                <path class="cls-83"
                      d="M292.1284,208.8768c2.997.2167,3.583-2.9942,5.7088-4.0158.5157,2.8144-2.14,3.862-3.4174,5.527C293.4136,211.6992,292.1182,210.6474,292.1284,208.8768Z"
                      transform="translate(-0.9063 -0.9065)"/>
                <path class="cls-1"
                      d="M301.6808,402.8683c-7.38.5985-13.5508-2.8322-19.2674-7.1535-3.5039-2.6487-3.8993-5.8605-2.873-10.5647a37.8725,37.8725,0,0,1,12.7145-21.0521c5.5256-4.8431,11.7807-5.9286,18.7663-3.155,7.717,3.064,13.6874,11.77,13.7393,20.1351C324.8271,391.79,313.68,404.3088,301.6808,402.8683Z"
                      transform="translate(-0.9063 -0.9065)"/>
                <path class="cls-84"
                      d="M285.63,313.1434c-10.9173-4.1659-14.0929-20.5178-5.4-27.7915a73.7249,73.7249,0,0,1,12.4033-8.7951,23.9067,23.9067,0,0,1,14.3618-2.5426c1.8415,1.2966,4.1243,1.7226,5.9641,3.0226l-.0011.0194c1.4994,2.1058.3492,3.2-1.55,3.9463-1.158.455-2.5651.4-3.2734,1.7076-2.6891,3.2769-3.5448,7.4211-5.2492,11.1568-2.79,6.1155-4.6335,6.4976-9.0176,1.5949-.7693-.86-1.5074-1.75-2.2575-2.6216-1.6691-1.7789-3.5609-3.3812-5.9036-1.3809-2.1509,1.8364-1.4712,4.1188-.13,6.2412q.6582,1.0419,1.2342,2.1384c2.36,3.6975,4.3183,7.6624,7.38,10.8806.8033.8443,1.5136,1.7264,1.205,3.0211C291.8676,318.0025,288.8029,314.698,285.63,313.1434Z"
                      transform="translate(-0.9063 -0.9065)"/>
                <path class="cls-85"
                      d="M285.63,313.1434c1.5988-.3463,2.6916.52,4.0148,1.282,2.03,1.1693,4.1516.941,5.39-1.5313,8.4311.5448,11.3012-5.4287,14.4089-11.6884,1.9728-3.9738,3.0561-8.488,6.2694-11.8272,1.3433-1.1332,2.7473-1.5985,4.2982-.3877a20.74,20.74,0,0,1-14.3138,28.3628A22.6016,22.6016,0,0,1,285.63,313.1434Z"
                      transform="translate(-0.9063 -0.9065)"/>
                <path class="cls-86"
                      d="M320.0115,288.9908a6.2015,6.2015,0,0,0-3.9991,1.0085,2.781,2.781,0,0,1-1.091-2.0989c-.2243-3.8891-2.2752-5.5123-6.0953-5.0982a2.2442,2.2442,0,0,1-1.7517-.7186c-.0468-2.2669,1.7018-2.1035,3.09-2.1045,2.0718-.0016,3.0361-.825,2.7948-2.9229C317.6488,279.6521,319.322,284.0308,320.0115,288.9908Z"
                      transform="translate(-0.9063 -0.9065)"/>
                <path class="cls-87"
                      d="M311.0572,328.0322c.6429,1.4851.4284,2.7653-1.3833,2.8084-5.4033.1288-10.8117.1334-16.2162.056-1.6658-.0239-2.3079-1.0583-1.5872-2.6938C298.2807,329.8115,304.6633,328.2893,311.0572,328.0322Z"
                      transform="translate(-0.9063 -0.9065)"/>
                <path class="cls-88"
                      d="M289.0593,327.8812c-2.2871-.4078-5.7778,1.8737-6.1729-2.762C285.5732,324.6331,287.1981,326.5212,289.0593,327.8812Z"
                      transform="translate(-0.9063 -0.9065)"/>
                <path class="cls-89"
                      d="M312.96,277.0368a6.3656,6.3656,0,0,1-5.9641-3.0226A6.475,6.475,0,0,1,312.96,277.0368Z"
                      transform="translate(-0.9063 -0.9065)"/>
                <path class="cls-2"
                      d="M307.0744,282.0836c7.7239-1.5428,9.2669-.1763,8.9379,7.9158a141.1162,141.1162,0,0,1-10.3955,20.6125c-2.6434,4.5239-6.7647,2.8493-10.5818,2.2822-4.6519-3.1224-6.6423-8.1464-9.1471-12.8028-.3028-.5981-.2751-1.3265-.5971-1.884-1.3348-2.3113-2.1105-4.72.008-6.8591,2.3358-2.3583,4.5743-.3967,6.77.6a5.0642,5.0642,0,0,1,1.2643.762c6.2466,6.9685,6.4018,6.9955,9.533-1.86A40.4965,40.4965,0,0,1,307.0744,282.0836Z"
                      transform="translate(-0.9063 -0.9065)"/>
                <path class="cls-90"
                      d="M292.0685,291.9478c-7.8454-1.4037-7.49-1.504-6.18,8.1436a15.288,15.288,0,0,1-2.2545-3.2417c-.9936-2.7051-.7777-5.4321,1.9331-7.0207C288.2878,288.2345,290.6067,289.0705,292.0685,291.9478Z"
                      transform="translate(-0.9063 -0.9065)"/>
            </g>
        </g>
    </g>
</svg>
