<svg xmlns="http://www.w3.org/2000/svg" viewBox="0 0 586.19 616.189">
    <defs>
        <style>
            .cls-1 {
            fill: #fefefe;
            }

            .cls-2 {
            fill: #65ce21;
            }

            .cls-3 {
            fill: #65ce21;
            }

            .cls-4 {
            fill: #abacab;
            }

            .cls-5 {
            fill: #ababab;
            }

            .cls-6 {
            fill: #abacaa;
            }

            .cls-7 {
            fill: #acabab;
            }

            .cls-8 {
            fill: #acacac;
            }

            .cls-9 {
            fill: #acadac;
            }

            .cls-10 {
            fill: #e1e7d6;
            }

            .cls-11 {
            fill: #acadab;
            }

            .cls-12 {
            fill: #acacaa;
            }

            .cls-13 {
            fill: #e1e7d4;
            }

            .cls-14 {
            fill: #adaeac;
            }

            .cls-15 {
            fill: #e0ecd0;
            }

            .cls-16 {
            fill: #83bd3d;
            }

            .cls-17 {
            fill: #9ab57a;
            }

            .cls-18 {
            fill: #9eca68;
            }

            .cls-19 {
            fill: #94bb63;
            }

            .cls-20 {
            fill: #98c560;
            }

            .cls-21 {
            fill: #9bd05f;
            }

            .cls-22 {
            fill: #9acf59;
            }

            .cls-23 {
            fill: #adca86;
            }

            .cls-24 {
            fill: #95bc66;
            }

            .cls-25 {
            fill: #90b265;
            }

            .cls-26 {
            fill: #9acb62;
            }

            .cls-27 {
            fill: #a1cd6c;
            }

            .cls-28 {
            fill: #95c75a;
            }

            .cls-29 {
            fill: #a0cb70;
            }

            .cls-30 {
            fill: #9dc86b;
            }

            .cls-31 {
            fill: #97ca58;
            }

            .cls-32 {
            fill: #adcd83;
            }

            .cls-33 {
            fill: #94cb57;
            }

            .cls-34 {
            fill: #fdfdfb;
            }

            .cls-35 {
            fill: #f8fbf2;
            }

            .cls-36 {
            fill: #f9faf7;
            }

            .cls-37 {
            fill: #adadad;
            }

            .cls-38 {
            fill: #adaead;
            }

            .cls-39 {
            fill: #aeaeae;
            }

            .cls-40 {
            fill: #8db45f;
            }

            .cls-41 {
            fill: #ecf1e2;
            }

            .cls-42 {
            fill: #98cc5a;
            }

            .cls-43 {
            fill: #a3cc77;
            }

            .cls-44 {
            fill: #acacad;
            }

            .cls-45 {
            fill: #fafbf7;
            }

            .cls-46 {
            fill: #7db937;
            }

            .cls-47 {
            fill: #cddcb9;
            }

            .cls-48 {
            fill: #e4edd9;
            }

            .cls-49 {
            fill: #f9faf5;
            }

            .cls-50 {
            fill: #acb0a9;
            }

            .cls-51 {
            fill: #e7efdd;
            }

            .cls-52 {
            fill: #a6ce75;
            }

            .cls-53 {
            fill: #aed281;
            }

            .cls-54 {
            fill: #c8e79f;
            }

            .cls-55 {
            fill: #96ca59;
            }

            .cls-56 {
            fill: #9cce63;
            }

            .cls-57 {
            fill: #fcfcfa;
            }

            .cls-58 {
            fill: #b0b0b0;
            }

            .cls-59 {
            fill: #b0b4ac;
            }

            .cls-60 {
            fill: #daeac1;
            }

            .cls-61 {
            fill: #a2c975;
            }

            .cls-62 {
            fill: #8eba59;
            }

            .cls-63 {
            fill: #c3e19d;
            }

            .cls-64 {
            fill: #cbcbcb;
            }

            .cls-65 {
            fill: #b2b3b1;
            }

            .cls-66 {
            fill: #f9fbf4;
            }
        </style>
    </defs>

    <g id="Layer_2" data-name="Layer 2">
        <g id="Layer_1-2" data-name="Layer 1">
            <g>
                <path class="cls-1"
                      d="M1,308.5007Q1,156.75.9045,5C.9005,1.5763,1.5762.9036,5,.9055q289,.1593,578,0c3.4231-.0018,4.0966.67,4.0947,4.0943q-.1584,304,0,608c.0017,3.4227-.6695,4.0969-4.094,4.095q-289-.1593-578,0c-3.4223.0019-4.1-.6687-4.0963-4.094Q1.0811,460.7508,1,308.5007Z"
                      transform="translate(-0.9044 -0.9055)"/>
                <path class="cls-2"
                      d="M268.1109,552.7789c-3.6389,4.65-8.9359,4.03-13.7526,3.794-25.8778-1.2651-51.7542-2.2823-77.6665-2.7072-16.9156-.2774-33.8085-1.7806-50.7208-2.5238-3.9467-.1736-7.93.5187-11.8983.7924-2.5436.1755-2.004,2.1142-2.1823,3.69-1.211,10.6975-.7723,21.55-3.0245,32.1491-1.0438,2.2165-1.4554,4.6494-2.3662,6.9205a2.9749,2.9749,0,0,1-1.2482.9512,6.4038,6.4038,0,0,1-5.5224-.6358c-5.2688-2.4175-9.7511-6.1248-14.0126-9.8266-21.677-18.83-44.2687-36.5118-66.9218-54.1223-3.0875-2.4-6.5067-4.372-9.7562-6.5658C2.0877,520.0019.4026,513.693,6.9021,507.9367c9.9225-11.564,21.8313-21.1717,31.9922-32.5014,6.6973-7.5681,14.909-13.5794,21.6517-21.1033a349.1636,349.1636,0,0,1,39.8646-33.6575,23.5085,23.5085,0,0,1,2.5821-1.4979c6.8336-3.7164,9.5348-2.2549,10.35,5.6043a83.0636,83.0636,0,0,0,2.5175,21.8556,18.7673,18.7673,0,0,1,.5055,3.9952,5.3741,5.3741,0,0,0,.5848,2.9725c12.3129,2.7884,24.8006,1.8459,37.2408,1.8989a43.9277,43.9277,0,0,1,9.1255.4792c8.7478.6942,17.522,1.174,26.2739,1.3292,18.7454.3322,37.5007.0933,56.252.1105a72.7052,72.7052,0,0,0,9.4213-.6725c3.462-.448,6.9671-.7327,10.1526,1.2682,3.1911,1.95,4.1349,4.9488,4.1349,8.5,0,7.4724.2038,14.9519-.04,22.4159-.38,11.6326,1.2974,23.2227.78,34.8127-.3692,8.2647-.8546,16.5168-.8375,24.7934C269.4568,550.0671,268.5369,551.3574,268.1109,552.7789Z"
                      transform="translate(-0.9044 -0.9055)"/>
                <path class="cls-3"
                      d="M460.2246,554.1358c.3233-3.8106-2.4708-3.837-4.959-3.8751-9.984-.1527-19.971-.3151-29.955-.2388-24.1319.1843-48.2708.2205-72.39.9105-8.8441.2531-17.5944-.6193-26.3953-.5882-4.6381.0163-7.8211-4.0138-7.0966-9.8405,1.69-13.5942.8265-27.241,1.2021-40.857.3385-12.2742-1.0711-24.55,1.1912-36.8351.91-4.9411,3.1949-6.1362,7.54-6.6068,26.3159-2.85,52.7388-3.8928,79.1607-4.9962.4955-.0207.9871-.1329,1.4806-.2024,1.7688-1.5934,3.9559-1.4679,6.1083-1.4875,7.7807-.0708,15.5613.1619,23.3411.0582,6.59-.0879,7.6237-.9645,6.8331-7.6261-.8824-7.4347-.7172-14.8679-.9459-22.3035-.8616-6.2906,1.5155-12.2952,1.6352-18.5016,2.0491-3.2067,4.7119-3.8477,8.12-2.1434a335.4945,335.4945,0,0,1,37.2857,21.3317Q522.3226,440.457,551.558,461.6c10.9933,7.9946,20.8346,17.3265,31.6028,25.5542,3.5014,2.6754,3.1347,5.3956-.2517,9.315A283.8956,283.8956,0,0,1,555.26,524.1179a46.8874,46.8874,0,0,0-3.3775,3.6367c-7.3461,7.8053-14.6952,15.6077-22.5858,22.8766-9.9613,9.338-20.2042,18.3762-29.7806,28.1236-7.3708,6.8723-13.0943,15.5211-22.201,20.5241-1.7406.9564-3.299,2.25-5.2859,2.7524-2.8463.4127-5.6739.7359-8.0416-1.4638-4.33-4.6463-6.4716-9.9146-4.8446-16.353C461.655,574.2731,460.3377,564.18,460.2246,554.1358Z"
                      transform="translate(-0.9044 -0.9055)"/>
                <path class="cls-2"
                      d="M411.9888,351.7716a9.1281,9.1281,0,0,0-3.08,6.2147,60.8168,60.8168,0,0,0-2.7693,6.1953c-.7906,3.5113-.2218,5.584,4.103,4.1644a57.2393,57.2393,0,0,1,5.7686-1.2838c3.5758-1.6508,7.1372-1.5359,11.0437-.9173,5.8489.9262,11.7591-.4625,17.6334-1.0156,9.4425-.7029,18.8761-1.6692,28.3315-1.99,4.3116-.1465,5.4063-.8467,3.9782-5.3342-6.5175-20.4794-12.6484-41.0816-19.0071-61.6121-1.2368-3.9934.2807-6.6622,3.7831-7.9792,3.5571-1.3376,6.6835-.2648,7.9525,3.6764,2.4861,7.7212,4.9831,15.447,7.1471,23.2619,3.72,13.4338,8.0868,26.6574,12.4572,39.8838.3114.9422.4917,1.9277.733,2.893.1673,4.0227,3.2578,7.8266.9008,12.0382-1.3916.57-.3472,2.6039-1.863,3.0989a18.692,18.692,0,0,1-12.0328,1.6967c-4.6981-.7108-9.1653-.5126-13.2763,2.1617-7.1974,1.2008-14.6753-.3632-21.73,2.2328a18.1354,18.1354,0,0,1-5.8475,1.1826c-11.0421-.4158-21.818,1.9681-32.7248,2.9535-5.457.493-10.7824.1528-13.571-5.8266a19.31,19.31,0,0,1,3.96-16.606c6.9356-13.8685,11.8815-28.5971,18.3954-42.64,3.6475-7.8632,6.6318-16.087,11.6868-23.2521,1.5726-2.3139,2.87-4.5769-1.0853-5.8685-5.3506-.875-8.893-4.714-12.8649-7.8488-2.2463.1316-3.1627-1.5818-4.0826-3.1089-5.6111-9.315-9.0842-19.0828-6.0826-30.1449,2.685-17.0374,13.1511-27.3089,28.44-34.0839,9.716-4.3053,19.85-4.2184,29.297-2.159,13.4842,2.94,23.2873,11.8175,25.7176,26.1793,2.4371,14.4016-.4909,27.7182-11.2016,38.4954-1.9954,2.0078-4.2571,3.78-7.3871,3.5771-1.6054-.1042-3.5927.393-4.2882-1.6476a4.34,4.34,0,0,1,1.1446-4.5328c3.8634-4.3649,7.1734-9.1853,8.9052-14.7983,2.546-8.2519,3.1329-16.407-.8206-24.64-3.0648-6.382-8.6723-9.6586-14.612-10.7653-16.008-2.9825-30.9351,1.7751-40.2118,17.3227-1.4812,1.8277-1.7664,4.16-2.6334,6.2463-1.2638,11.89,1.4727,22.3452,12.1649,28.943,6.1326,3.7842,13.0082,6.3618,19.5354,9.5114,1.1534.5565,2.9724.892,2.6885,2.4912a3.2531,3.2531,0,0,1-3.2363,2.5832c-7.7056-.6662-9.6432,4.6206-11.2773,10.4365-.5808,2.0674-1.5007,4.0394-2.2658,6.055-2.648,2.48-.7787,6.19-2.4274,8.9418a8.9236,8.9236,0,0,0-3.21,5.0941l-6.3092,14.7747a26.3291,26.3291,0,0,0-1.6664,7.3808C416.0858,346.8445,412.835,348.7017,411.9888,351.7716Z"
                      transform="translate(-0.9044 -0.9055)"/>
                <path class="cls-2"
                      d="M327.8492,131.0448c2.7216,10.41,5.2586,20.814,5.9252,31.6562.4471,7.2723-4.0406,10.8047-10.504,10.7921-19.8158-.0386-39.6326-.4364-59.4448-.8838-5.4985-.1242-10.9749-.1478-16.4718.0139-3.8875.1144-8.0039.4788-10.9331-3.2716a5.2655,5.2655,0,0,1-1.29-3.0373c-.84-10.76,1.7252-20.968,4.3438-31.2951,1.5441-6.09,6.1949-11.3894,4.7086-18.319-.4059-1.8926,2.1442-2.4825,3.0327-4.13,4.9343-9.1491,9.0585-18.7773,15.17-27.2462,1.4906-2.0656,1.1727-3.0653-.6727-4.3178C250.7567,73.57,247.2661,62.17,246.0641,49.9688c-1.4914-15.1372,2.31-28.32,15.4568-37.7912,9.4581-6.8143,19.9213-8.97,31.2394-8.4656,10.0109.4465,18.4364,4.2123,24.4172,12.37,3.9606,5.4021,6.9983,11.5027,7.57,18.239.9834,11.595,1.7924,23.3156-2.9119,34.4248-2.6561,6.2725-5.3641,12.6452-11.699,16.347-2.4984,1.8483-3.1107,3.8165-.3814,5.9972a79.4406,79.4406,0,0,1,12.3909,23.7387c1.1,2.3293,1.7212,4.84,2.73,7.204l.2616,1.8232C326.1845,126.1979,326.69,128.7447,327.8492,131.0448Z"
                      transform="translate(-0.9044 -0.9055)"/>
                <path class="cls-3"
                      d="M123.9134,286.0623c-8.6939-6.4532-10.2369-15.96-9.7953-25.6148.7835-17.129,8.85-30.2032,24.1583-38.387,10.2224-5.4649,20.77-4.9346,31.2344-.8246,8.054,3.1632,15.0277,7.6666,18.6005,16.202,3.084,7.3676,4.3649,14.821,2.9639,22.7573-1.5821,8.9626-4.7352,17.11-11.2928,23.6619-.9547.9539-1.035,1.2712.1859,2.507,11.1336,11.2692,17.0568,25.4639,20.6369,40.4587,3.187,13.3485,1.6611,27.159,1.3428,40.7793-.0812,3.477-3.2233,4.6227-6.019,5.7081a144.2619,144.2619,0,0,1-29.2316,1.3284c-13.7743-.8985-27.6482-.2222-41.4795-.2319-3.1661-.0023-6.3323.0221-9.4989-.0172-5.6932-.9724-6.8747-2.0995-8.0947-7.7008.2328-7.6306-.7594-15.2813.2862-22.9034,2.2274-3.6893,2.6426-7.9839,3.95-11.9832a135.02,135.02,0,0,1,15.3668-39.71C129.4153,288.2722,125.4905,287.8125,123.9134,286.0623Z"
                      transform="translate(-0.9044 -0.9055)"/>
                <path class="cls-3"
                      d="M222.9412,294.8378c-1.9186.0635-4.4885,1.32-5.5377-.6167-1.1985-2.2124.72-3.8854,2.3151-5.8126,7.3647-8.8969,17.72-12.7164,27.7155-17.1659,9.8553-4.387,20.6709-5.551,30.8853-8.7987,2.5791-.82,3.5311-1.95,3.9373-4.2362a62.7979,62.7979,0,0,0,.907-11.4077c-.1076-17.79.9661-35.5261,2.6186-53.2309.2037-2.1821.7288-4.2375,2.8271-5.512,1.5-.9114,2.7614-1.2937,3.4445.8618a13.996,13.996,0,0,1,2.7529,7.1065c1.4942,19.9577.7177,39.9259.0744,59.8824-.13,4.0269.3635,5.7721,5.029,6.1065,15.8111,1.1334,30.6,6.7222,45.61,11.32,9.7116,2.9747,18.0273,7.9277,24.4378,15.8871.6888.8553,2.0683,1.5365,1.4591,2.8941-.7371,1.6429-2.2357,1.0717-3.4887.7482q-13.461-3.4758-26.9066-7.0117c-2.5142-1.4664-5.4827-1.5851-8.1044-2.7323l-1.8164-.3676c-1.8966-1.3405-4.1916-1.7043-6.285-2.5623-6.8936-1.5837-13.8723-2.8715-20.6592-4.8256-8.5513-2.462-16.9319-2.0487-25.3873.1369-9.401,2.43-19.0263,3.93-28.2024,7.3147-7.3456,2.7095-14.3711,6.0938-21.4867,9.3Q226.0032,293.4589,222.9412,294.8378Z"
                      transform="translate(-0.9044 -0.9055)"/>
                <path class="cls-4"
                      d="M115.16,453.8619l-.0022-2.7963c3.2477-.4041,4.7038-1.863,4.6751-5.5069-.0656-8.3221-.2621-16.5959-2.4618-24.6708-1.5-5.5065-3.51-6.652-9.1362-5.5016a29.8171,29.8171,0,0,0-10.8217,4.8765,182.6141,182.6141,0,0,0-29.1524,24.7517c-3.32,3.4808-6.784,6.8256-10.1977,10.2136-5.99,5.1478-10.4409,11.7672-16.26,17.0957-.9706.8887-2.2182,2.0006-2.036,3.6983-7.6074,8.6519-15.5757,16.9346-24.698,24.0272-2.281,1.7736-2.9432,4.7539-5.2,6.6536a5.4158,5.4158,0,0,1-2.9672,1.2335c-.0916-3.1876,2.5248-4.9814,4.0919-7.1244a434.7482,434.7482,0,0,1,28.9135-35.9441C53.636,449.7576,67.3664,434.6227,83.45,421.91c5.9739-4.722,12.0572-9.2507,19.1487-12.4084,12.8005-5.7,20.13-.0593,22.4923,12.3489a68.8514,68.8514,0,0,1-.0564,24.7508c-.7151,4.1629.7018,5.7112,5.0052,5.3413q24.0334-2.0655,48.0975-3.7661c8.1285-.567,16.2951-.5762,24.4276-1.0992,17.4413-1.1215,34.8936-1.2863,52.3612-1.111,14.1971.1425,17.9437,5.9879,18.9734,18.4057a266.5015,266.5015,0,0,1-2.136,62.5163,180.174,180.174,0,0,0-1.76,21.4924,5.2141,5.2141,0,0,1-1.894,4.4013c1.2368-14.0655.6806-28.1247.2489-42.2072-.4429-14.4481-.2679-28.9169-.2325-43.3764.0078-3.2113-.1727-6.15-3.06-8.1847-.8-3.37-3.3113-4.24-6.3586-4.4506-21.2625-1.47-42.4916-.1559-63.7223.78-9.46.4172-18.9654-.3784-28.3894,1.1056a24.27,24.27,0,0,0-3.91.6653l-8.6905-.1152a40.3545,40.3545,0,0,0-15.1-1.4663c-7.2284.5015-14.3583-1.2516-21.5716-.6553A2.7075,2.7075,0,0,1,115.16,453.8619Z"
                      transform="translate(-0.9044 -0.9055)"/>
                <path class="cls-5"
                      d="M109.1152,343.12l-.3452,23.821c-2.7407-2.631-2.7407-2.631-2.5261-7.64-.242,4.1415-2.11,7.9837-1.892,12.27a9.3294,9.3294,0,0,0,5.6375,8.6338,27.37,27.37,0,0,0,13.5307,2.9595c5.7494-.29,11.5223-.5057,17.2666-1.9846,8.0108-2.0625,16.3144-2.9747,24.3285-5.1912.6808.0075-.0239-.7708.2188-.15.04.1035-.1044.21-.437.2191-15.6214.4242-31.25,1.1462-46.8266-.812-1.2263-.1542-2.79-.131-2.9321-2.0093,19.7923.1228,39.5854-.5122,59.3787.595,7.1068.3975,14.2759-.3176,21.4143-.5235-1.0129.5158-2.068,1.5483-3.0276,1.4662-12.6883-1.0855-22.5558,6.993-33.882,10.2774-14.6038,4.2348-29.1095,9.5994-44.7051,5.8463-8.307-1.999-15.4468-5.766-18.6352-14.56-2.1957-6.0561.2019-11.66,2.3022-16.8367,3.0315-7.4717,6.1864-15.0191,10.8554-21.7347C110.6246,339.4641,109.5187,341.31,109.1152,343.12Z"
                      transform="translate(-0.9044 -0.9055)"/>
                <path class="cls-6"
                      d="M460.2246,554.1358a117.3249,117.3249,0,0,1,.42,28.7692c-.599,6.5056-.0951,12.0545,4.0737,17.0968-.5336,2.44-1.4491,5.7171.6595,6.9383,2.4154,1.399,3.73-2.3107,5.7585-3.4363a3.8513,3.8513,0,0,0,2.0638-2.6586c10.148-5.82,17.2626-15.0609,25.71-22.7992,6.8393-4.8589,12.4943-11.0783,18.85-16.4987a132.31,132.31,0,0,0,10.7111-10.12c5.4913-4.7593,10.5713-9.984,16.3335-14.433,1.2325-.9516,2.2019-2.5819,4.1842-1.85.0849.0314.15.24.1445.3621a1.8394,1.8394,0,0,1-.1472.47c-7.92,10.3245-17.6233,18.9786-26.5872,28.3226-16.0087,16.6877-33.1955,32.1242-50.6214,47.3-1.0015.8722-1.9633,1.803-3.0361,2.5785-4.6,3.3253-8.4149,2.0855-9.58-3.5421a383.6313,383.6313,0,0,1-6.0967-42.7565,26.6081,26.6081,0,0,1,.1135-7.1916c3.2071,5.9044,4.24,12.4072,5.9546,18.8007C460.7557,571.0609,459.3834,562.5446,460.2246,554.1358Z"
                      transform="translate(-0.9044 -0.9055)"/>
                <path class="cls-4"
                      d="M442.3326,378.0193c7.01-2.8784,14.427-1.4882,21.6567-2.0622,3.3921-1.0132,6.8062-2.8328,10.086.2748-24.7221,10.795-50.3136,17.36-77.5467,15.9377a27.6586,27.6586,0,0,1-4.4735-.26c-12.94-2.8543-15.7384-11.5045-6.977-21.6305,2.81-3.2473,5.0378-7.0553,8.8009-9.4175-1.51,5.28-4.135,10.3529-3.0142,16.1257-2.8412,3.9115-2.3836,5.4256,2.005,6.5368,8.28,2.0964,16.5383.5528,24.8213-.0719,11.5016-.8675,22.71-3.6486,34.1557-4.942C448.636,378.8823,445.3839,380.4984,442.3326,378.0193Z"
                      transform="translate(-0.9044 -0.9055)"/>
                <path class="cls-7"
                      d="M105.93,594.9252a7.35,7.35,0,0,0,.1452-.809c.32-.697.7437-1.2349,1.6311-1.056,1.3391,3.6544,3.4221,1.0971,4.4893.1477,3.1225-2.7777,5.8932-5.9509,9.1656-8.5881-3.41,9.59-9.4153,16.7451-19.2587,19.681-6.4982,1.9382-12.0057-1.3754-16.8385-5.1873a589.6162,589.6162,0,0,1-44.6451-39.5188c-4.0392-3.9089-8.3782-7.8424-11.9067-14.0313a55.2879,55.2879,0,0,1,11.7894,8.1431c16.2393,14.12,31.96,28.8664,49.1591,41.8313,3.0786,2.3207,7.1176,6.1373,11.61,1.4857C102.6,595.8255,105.022,597.0565,105.93,594.9252Z"
                      transform="translate(-0.9044 -0.9055)"/>
                <path class="cls-8"
                      d="M446.9749,401.1457c.87,5.9306-1.8178,11.8274-.1692,17.7654-2.73.7441-3.4634,2.6839-3.3438,5.2905a84.8385,84.8385,0,0,0,1.3629,9.8565,32.18,32.18,0,0,1,.454,8.9215c-.5648,4.9107-3.3412,7.9161-8.2017,7.384-10.0217-1.0972-20.1807-.0561-30.1144-2.1413H355.0369a339.289,339.289,0,0,1,72.8412-5.1968c2.4618.0795,4.9013.7094,7.3654.9046,2.4919.1974,3.3832-.7591,3.2042-3.5686-.4337-6.8047-.3618-13.642-.47-20.4666-.0558-3.5144,1.1238-6.3064,4.9335-6.9824,3.3532-.595,1.8335-3.4245,2.6184-5.1756C446.46,405.66,445.01,403.026,446.9749,401.1457Z"
                      transform="translate(-0.9044 -0.9055)"/>
                <path class="cls-9"
                      d="M234.9041,136.9187c-2.3081,7.15-4.7346,14.2655-6.8805,21.4642-1.3081,4.3885-2.4179,8.7389-1.3448,13.5761.73,3.2908,2.3779,4.6042,5.183,4.985,5.58.7575,11.18,1.7209,16.7874,1.8433,8.9756.196,17.6444,2.1048,26.3855,3.8319-9.6416,0-19.3012.344-28.9166-.1583-4.228-.2209-8.5238-.2539-12.8132-1.2613-8.6227-2.0249-11.2346-4.4378-10.3032-13.2365A63.9205,63.9205,0,0,1,234.9041,136.9187Z"
                      transform="translate(-0.9044 -0.9055)"/>
                <path class="cls-8"
                      d="M408.8492,283.0881c-1.8946,1.8459-3.1557-.1786-4.0475-1.0532-11.17-10.9546-17.1812-26.6413-11.05-42.8693,2.9969-7.9325,6.611-15.4541,11.9487-22.0764,1.2327-1.5293,2.404-3.1779,5.0156-3.9705-2.0448,5.9868-6.5,10.1272-8.836,15.4953-2.9843,6.8585-5.6059,13.7648-6.6,21.1745-.2686,2.0028-.8766,4.31.7692,6.1915,2.5161,1.9708,2.1845,5.1,2.9874,7.7148C401.202,270.7466,404.994,276.9213,408.8492,283.0881Z"
                      transform="translate(-0.9044 -0.9055)"/>
                <path class="cls-10"
                      d="M406.9627,448.2223c6.6238-.05,13.2478-.0789,19.8712-.1592,3.316-.04,5.9853,2.4206,9.54,1.9821,4.6648-.5755,7.4277-3.1492,7.6088-7.8774.2676-6.9859-2.362-13.6744-1.9472-20.6718.2732-4.6073.7861-4.9347,4.7712-2.583.41,9.4113.7532,18.8282,1.27,28.2356.1607,2.9253-.6731,4.17-3.818,4.1153-11.4166-.2-22.8369-.1889-34.2557-.2576C410.1787,448.78,407.7794,449.3651,406.9627,448.2223Z"
                      transform="translate(-0.9044 -0.9055)"/>
                <path class="cls-11"
                      d="M444.6883,365.1293c-9.4063,2.9061-19.088,1.7283-28.6767,1.9328,10.6225-9.2646,21.4668-18.22,34.1847-24.631-3.2234,6.6689-9.3851,10.4165-14.5767,15.0779-2.0794,1.867-4.6315,3.1982-6.8736,4.8983-.9068.6876-1.7905,1.7938-1.1185,2.9831.5358.9483,1.7969.7314,2.7447.5343A56.9512,56.9512,0,0,1,444.6883,365.1293Z"
                      transform="translate(-0.9044 -0.9055)"/>
                <path class="cls-12"
                      d="M411.9888,351.7716c-.4777-3.4634,3.3-5.38,3.1694-8.7168a10.4922,10.4922,0,0,1,2.9337-4.9531c6.1046-1.9506,10.1753-7.1646,15.8435-9.8641,2.4773-1.18,4.7137-2.8266,7.923-2.4668C432.7319,335.4155,421.1323,342.2118,411.9888,351.7716Z"
                      transform="translate(-0.9044 -0.9055)"/>
                <path class="cls-13"
                      d="M408.8492,283.0881c-4.6059-2.9377-6.6653-7.85-8.5875-12.4606-1.9328-4.6357-3.7692-9.493-4.2127-14.6474,3.8156-1.4481,1.1234-5.9914,3.7971-7.9824-.73,12.3436,2.0588,23.6114,10.1652,33.2538Q409.43,282.17,408.8492,283.0881Z"
                      transform="translate(-0.9044 -0.9055)"/>
                <path class="cls-14"
                      d="M426.8643,315.88c.3711-3.0988-.3492-6.5681,2.9427-8.6715-.255,1.2576-.5082,2.5117-.88,4.3535,4.6779-1.3706,7.2252-5.0847,10.838-7.0937,1.8067-1.0047,4.0338-3.7038,5.4846-1.99,1.7667,2.0872-1.6759,3.3828-2.9638,4.713-4.4949,4.6424-9.9706,8.0889-15.3473,11.6244A2.2134,2.2134,0,0,1,426.8643,315.88Z"
                      transform="translate(-0.9044 -0.9055)"/>
                <path class="cls-15"
                      d="M548.9859,535.9765c-6.0377,2.431-9.5745,8.0156-14.6639,11.6517-1.8637,1.3314-3.5168,2.9577-5.266,4.4494-2.7446-.5714-.2545-1.5-.1544-2.2649,7.2465-7.7836,14.6516-15.4021,22.9807-22.0579C550.06,530.1934,548.3209,532.6615,548.9859,535.9765Z"
                      transform="translate(-0.9044 -0.9055)"/>
                <path class="cls-16"
                      d="M474.0753,376.2319q-5.043-.1372-10.086-.2746a8.6213,8.6213,0,0,1,7.9956-2.9144,57.7235,57.7235,0,0,0,17.1168.0227c-1.484,2.7592-4.05,2.8518-6.7389,2.8535C479.6,375.9208,476.8378,376.1194,474.0753,376.2319Z"
                      transform="translate(-0.9044 -0.9055)"/>
                <path class="cls-17"
                      d="M109.1152,343.12q-.1377-2.6758-.2758-5.3523a8.1449,8.1449,0,0,1,3.0213-5.965C112.2164,335.8831,112.4454,339.9333,109.1152,343.12Z"
                      transform="translate(-0.9044 -0.9055)"/>
                <path class="cls-18"
                      d="M490.9646,369.9668q-.45-6.019-.9008-12.0381c1.809,2.4259,2.0336,5.3851,2.6058,8.19C492.9712,367.5961,493.2745,369.4665,490.9646,369.9668Z"
                      transform="translate(-0.9044 -0.9055)"/>
                <path class="cls-19"
                      d="M105.93,594.9252c.3,4.8256-2.7263,2.2485-4.6615,2.0971q-.768-.9054-1.54-1.8132Q102.83,595.0674,105.93,594.9252Z"
                      transform="translate(-0.9044 -0.9055)"/>
                <path class="cls-20"
                      d="M309.7548,91.09c-1.6933-.01-2.8036-.5813-2.753-2.5482.0542-2.1036.8306-3.4421,3.1344-3.449C309.6642,87.07,308.306,88.9905,309.7548,91.09Z"
                      transform="translate(-0.9044 -0.9055)"/>
                <path class="cls-21"
                      d="M123.9134,286.0623c5.51,2.0015,6.1063,3.0871,3.3142,6.0295C128.3181,288.8753,124.2851,288.475,123.9134,286.0623Z"
                      transform="translate(-0.9044 -0.9055)"/>
                <path class="cls-22"
                      d="M422.8761,289.1c1.5544-.2382,3.3442-.1965,3.647,1.5451a4.0064,4.0064,0,0,1-2.5618,4.3236C423.9894,292.9406,425.4072,290.6553,422.8761,289.1Z"
                      transform="translate(-0.9044 -0.9055)"/>
                <path class="cls-23"
                      d="M332.9177,283.12c3.02-.0335,5.9137.3091,8.105,2.7324C338.0543,285.7311,335.1294,285.483,332.9177,283.12Z"
                      transform="translate(-0.9044 -0.9055)"/>
                <path class="cls-24"
                      d="M418.0919,338.1017c.16,2.3256-1.7227,3.4408-2.9346,4.953-.0352-2.704.3307-5.2537,2.7016-7.0328Q417.9752,337.0626,418.0919,338.1017Z"
                      transform="translate(-0.9044 -0.9055)"/>
                <path class="cls-25"
                      d="M426.8643,315.88q.0369,1.4685.0739,2.9364-1.3851,1.2147-2.77,2.431C424.1979,319.0223,422.8634,316.1112,426.8643,315.88Z"
                      transform="translate(-0.9044 -0.9055)"/>
                <path class="cls-26"
                      d="M324.8753,122.0325c-2.3968-1.8379-2.7452-4.4519-2.73-7.2039A8.1509,8.1509,0,0,1,324.8753,122.0325Z"
                      transform="translate(-0.9044 -0.9055)"/>
                <path class="cls-27"
                      d="M327.8492,131.0448c-2.3526-1.85-2.73-4.4448-2.7124-7.189C327.2864,125.7822,327.9187,128.2811,327.8492,131.0448Z"
                      transform="translate(-0.9044 -0.9055)"/>
                <path class="cls-28"
                      d="M406.14,364.1816a6.0785,6.0785,0,0,1,2.7693-6.1954A7.4356,7.4356,0,0,1,406.14,364.1816Z"
                      transform="translate(-0.9044 -0.9055)"/>
                <path class="cls-29"
                      d="M324.8163,280.19c2.4981-.1342,4.8975-.0262,6.2853,2.5624C328.7677,282.4833,326.4484,282.1792,324.8163,280.19Z"
                      transform="translate(-0.9044 -0.9055)"/>
                <path class="cls-30"
                      d="M412.1959,247.1918c-.1719-2.5249-.1252-4.9577,2.6336-6.2466C414.4979,243.2579,413.9822,245.4928,412.1959,247.1918Z"
                      transform="translate(-0.9044 -0.9055)"/>
                <path class="cls-31"
                      d="M294.8068,196.0254c-1.12-2.2906-2.4186-4.5117-2.7529-7.1065C295.1544,190.4421,295.2162,193.1425,294.8068,196.0254Z"
                      transform="translate(-0.9044 -0.9055)"/>
                <path class="cls-32"
                      d="M222.9412,294.8378a6.793,6.793,0,0,1,6.14-2.7227A6.7678,6.7678,0,0,1,222.9412,294.8378Z"
                      transform="translate(-0.9044 -0.9055)"/>
                <path class="cls-33"
                      d="M107.7067,593.06q-.8157.5271-1.6312,1.0552c.3846-2.2947.6463-4.6459,2.79-6.1421A6.1835,6.1835,0,0,1,107.7067,593.06Z"
                      transform="translate(-0.9044 -0.9055)"/>
                <path class="cls-1"
                      d="M49.1981,539.7756c-9.53-7.03-17.9936-15.4563-28.135-21.67-2.758-1.69-1.7693-2.8828-.16-4.5091,10.8194-10.9341,21.5328-21.9746,32.459-32.8,3.077-3.0488,5.5035-6.8775,9.636-8.7882a6.126,6.126,0,0,1,4.0409,1.7486c1.1243,1.0377,2.1293,2.2742,3.84,1.1218,1.5193-1.0238,3.563-2.1,2.9109-4.191-1.2093-3.8773,1.1729-5.9363,3.428-8.1577,1.9-1.872,3.52-4.0362,5.5723-5.7275,2.1339-1.7582,4.3652-2.2139,5.2924,1.2242.6805,2.5236,2.1265,2.9116,4.4676,2.6315a8.4657,8.4657,0,0,1,7.9932,3.1568c2.2418,2.7412,6.1594,2.8468,8.661,5.5094,1.5457,1.6452,3.8339,2.592,4.4593,5.4442,1.0085-5.106,4.4882-5.603,8.1418-4.6638a31.9989,31.9989,0,0,0,11.3553.704,11.0846,11.0846,0,0,1,5.8922.7341c5.3948,2.5253,6.0732,7.0451,2.04,11.6406-7.3984,8.4293-17.1632,14.21-24.7829,22.3771-.5614.6018-1.4016.9178-1.9639,1.5347-.9055.9934-2.0435,2.19-1.01,3.48,1.1021,1.3756,2.5236.4,3.5294-.4212,8.3334-6.8029,18.1447-11.4221,26.2552-18.7072,6.8664-6.1676,15.2867-10.5477,22.7719-16.078a5.9218,5.9218,0,0,1,3.7519-1.2063c2.183.0847,3.0894,1.1531,2.2191,3.2665-1.1625,2.8234-3.2188,5.0083-5.2445,7.24-6.8229,7.5153-14.993,13.7387-21.0554,21.9812-.392.5329-.9493.9417-1.3486,1.4733-.6886.9169-1.7331,1.9341-.8549,3.0837,1.0413,1.363,2.6126.739,3.5913-.0334a86.5811,86.5811,0,0,0,7.2657-6.0612c7.5107-7.4123,16.78-12.5808,24.5078-19.6936,3.7962-3.4941,7.7-6.8829,11.1556-10.7111a7.3393,7.3393,0,0,1,6.081-2.7295c4.496.1224,8.9981.0171,13.4975.043,1.6639.01,3.4873-.1554,4.206,1.8644.6189,1.7392-.0555,3.2677-1.1324,4.6421-1.8772,2.3959-4.7946,3.7258-6.7,5.9324-7.1137,8.2388-16.65,13.7707-23.8922,21.8349-1.8992,2.1148-3.8855,4.1-4.9242,6.8361a8.9229,8.9229,0,0,1-3.8527,4.4762,20.0574,20.0574,0,0,0-8.9665,11.513c-.9773,3.1061-3.7974,3.425-5.9846,4.7984.301,2.2948,3.3265,1.5351,3.893,4.241a21.2042,21.2042,0,0,1-15.113-.7747,33.23,33.23,0,0,0-11.8863-3.1093c-2.3454-.1466-4.6929-.1128-6.5732-1.84-1.8244-1.6759-3.5331-1.428-5.2791.19a10.7423,10.7423,0,0,1-11.2669,2.1293c-5.0056-1.8091-8.3229-.1093-11.4566,3.3372a6.0077,6.0077,0,0,1-3.1262,2.1884c1.4944.5061,3.3483.6353,2.728,2.9882-.4632,11.7757-3.1,23.3738-2.6011,35.2586.1481,3.5286-2.5068,1.5437-3.6684.52-3.925-3.4585-7.7122-7.1072-11.4389-10.7471-8.7791-8.5748-18.1365-16.4291-27.6128-24.1755C52.9776,542.6256,51.4733,540.703,49.1981,539.7756Z"
                      transform="translate(-0.9044 -0.9055)"/>
                <path class="cls-34"
                      d="M100.1319,543.2676c-.8626-1.96-1.9308-2.4942-3.7489-.8668-.7.6265-1.6031-.0584-1.9264-.9123-.3464-.9148.1943-2.0248.9377-1.9668,4.2984.3351,5.0638-4.1629,8.0306-5.7892,2.5036-1.3725,4.1877-1.669,6.8186-.7321,4.6521,1.6565,9.41,2.3822,13.128-2.32.8105-1.0249,2.5045-2.176,3.4531-1.0917,4.6222,5.2832,11.2354,2.5647,16.648,4.483.6229.2207,1.479.25,1.8348.6866,4.3888,5.3893,10.2825,2.4818,15.779,3.3372-.6028-1.4823-1.6491-.9179-2.31-1.29-1.251-.7056-3.3216-.8621-3.244-2.6333.0785-1.7923,2.0136-1.9182,3.4592-2.1615,2.3386-.3935,3.6839-1.2673,4.1589-4.0234a13.938,13.938,0,0,1,5.8568-8.8892c4.43-2.73,6.2134-7.0088,9.2643-10.5329A107.2591,107.2591,0,0,1,195.04,493.1583c5.993-4.508,10.843-10.5869,16.6922-15.4562a2.9309,2.9309,0,0,0,.9553-3.5947c-.6047-1.3886-1.94-1.0743-3.0507-1.0828-4.83-.0368-9.6614-.0014-14.492-.026a4.0951,4.0951,0,0,0-3.4418,1.5058C182.885,484.51,172.2638,492.4092,161.6067,500.3a136.1439,136.1439,0,0,0-12.2477,10.8344,11.67,11.67,0,0,1-4.2959,2.3408,2.9306,2.9306,0,0,1-3.5326-1.0949,2.7194,2.7194,0,0,1,.3464-3.6542c3.6189-4.0862,7.1357-8.2786,10.97-12.1548,5.8275-5.8912,12.2174-11.2373,17.1129-18.0141.6772-.9374,1.4519-1.8185,1.2305-3.2266-3.4668-1.067-5.781,1.4522-7.87,3.2055-5.8321,4.8942-13.3883,7.659-18.4866,12.9766-7.3772,7.6946-17.3858,11.2349-25.07,18.1764-.9769.8824-2.1807,1.5093-3.2489,2.296-1.6816,1.2383-3.4973,1.6152-4.8628-.158a3.2127,3.2127,0,0,1,.9367-4.8316c6.6131-4.4979,11.2608-11.18,18.0484-15.5982,4.3547-2.8347,7.8458-7.1206,11.3592-11.08,2.3544-2.6532-.6422-7.9752-4.8841-8.17-6.0343-.2767-12.0941.5279-18.0943-1.0582-1.6351-.4323-3.9312-.3345-3.2094,2.7813a2.5906,2.5906,0,0,1-2.1626,3.3617c-1.8785.1552-1.29-1.8218-1.6969-2.9773-1.3741-3.8973-5.5035-4.773-8.2739-7.1459-.691-.5918-2.4282-.1323-3.1193-1.1727-2.6217-3.9471-5.7249-5.2525-10.4339-3.2962-2.3146.9616-2.6427-1.7874-3.0778-3.5081-.23-.9113.289-2.2123-.8966-2.6113-1.2374-.4164-2.1692.48-2.9807,1.344-2.39,2.5441-4.7987,5.0715-7.1556,7.6462-.8449.923-2.0286,1.5883-1.5159,3.3434a7.4828,7.4828,0,0,1-4.8239,8.6907c-.7322.209-1.662.1417-1.7521-.388-.491-2.8855-3.755-3.0033-4.9213-5.15,5.5947-7.5245,13.0718-13.1864,19.6234-19.7629,4.768-4.786,9.8362-9.2726,14.758-13.906.7316-.6888,1.4961-1.6091,2.5189-1.2839,1.4522.4618.9668,1.8924,1.0355,3.001.37,5.9657.4994,11.9586,1.1716,17.89.8285,7.31,1.7179,7.9213,8.94,8.3006,11.934.6267,23.8692,1.2321,35.8,1.9121,3.1479.1794,6.2822.5992,9.4228.9087,3.0686.4328,3.6881,1.6041,1.3031,3.9235-3.2275,3.1388-7.24,5.2283-10.605,8.2029-9.3056,8.2271-18.5,16.5829-28.0186,24.5669a3.8261,3.8261,0,0,0-1.6922,1.5312c.7777-.214,1.2767-.8639,1.9426-1.2623,14.4821-10.7377,29.9769-20.1136,43.31-32.3754,5.5079-5.0653,11.9666-3.2037,18.2611-2.646l.37.1062c1.3913,2.1541-.14,3.3819-1.5105,4.6012-11.0251,9.8087-21.7242,19.948-30.9824,30.5866,14.2919-10.0674,27.6976-22.2992,41.4628-34.0926l.1175-.0734c9.4842-1.14,18.98-.7633,28.4771-.2193l2.5518.12c1.9394,1.7611.1851,2.4744-.9532,3.3644-11.1321,8.7034-21.3554,18.4267-31.6591,28.068-7.1727,6.7114-13.0675,14.5456-20.1289,21.9407,2.1328-.6981,3.3749-2.9968,5.5391-1.3553,1.1278,1.5408.2736,2.908-.5341,4.128-1.877,2.8351-.2943,3.1287,2.14,3.6233,8.519,1.7311,13.161-3.8112,17.9154-9.204,12.7484-14.46,25.2605-29.1465,40.3161-41.359a25.5874,25.5874,0,0,0,6.0736-6.9755c-5.331,1.1369-9.7476,2.4525-12.6321,5.8794-6.5844,7.8225-15.6935,12.8834-22.19,20.6671-6.1458,7.363-14.9115,11.6342-21.1936,18.8706-2.2186,2.5556-5.1763,5.9177-9.7427,4.5261-1.1385-2.3071.7882-3.4208,2.0409-4.4648,17.1-14.2507,33.4857-29.2888,49.4979-44.74a25.3236,25.3236,0,0,1,4.0171-2.9176l8.5132-.2956c2.6291-.6022,5.2956-.249,7.94-.2395s2.9375,1.5529,1.2628,3.1138c-2.313,2.1557-4.4513,4.4783-6.7575,6.6378-16.5056,15.4552-32.8759,31.0465-47.333,48.5025a12.1166,12.1166,0,0,0-1.9371,2.6768c4.5056-2.24,7.4364-5.6976,10.8473-8.5173a406.3023,406.3023,0,0,0,45.2674-43.48c2.2813-2.5719,4.0234-6.2436,8.3134-6.3429l.0126,29.922c-9.1256,8.3338-16.3077,18.3292-23.9107,27.965a56.2417,56.2417,0,0,0-4.03,6.0569c9.6677-7.5545,18.2693-14.8035,24.2585-24.6468.8487-1.3948,1.6737-2.982,3.7952-2.5662.0855,10.139.1286,20.2787.2875,30.4165.0377,2.4058-.8483,3.2429-3.2338,3.0213-5.9485-.5528-11.9259-.8163-17.864-1.4539-15.3976-1.6533-30.8587-1.9205-46.3071-1.8886-19.7894.0409-39.4313-2.5767-59.1914-2.8014-6.4749-.0736-12.9632-.0324-19.4262.3151A15.7177,15.7177,0,0,0,100.1319,543.2676Z"
                      transform="translate(-0.9044 -0.9055)"/>
                <path class="cls-8"
                      d="M255.8779,474.1447c-10.1136,10.3375-19.9129,21.0086-30.4294,30.9186-10.501,9.8956-21.7056,19.0458-32.6534,28.4629-.8116.6982-1.8925,1.3551-4.4048.8725,17.5777-23.0126,38.7507-41.6864,59.183-61.5019-2.8746-2.2525-6.348-.013-9.3035-1.1027,5.6165-2.1926,11.1681-.5626,16.714.3318C255.8763,472.27,255.9879,473.2828,255.8779,474.1447Z"
                      transform="translate(-0.9044 -0.9055)"/>
                <path class="cls-35"
                      d="M162.6852,457.1139c2.9538-4.1492,7.6714-2.5377,11.3671-2.7748,14.7622-.9473,29.5764-1.1265,44.3743-1.4631,13.7615-.3131,27.5185-1.4738,41.2945-.0078,5.0484.5371,6.2469,1.62,5.3445,6.1448-1.8872-1.3563-4.04-1.382-6.2136-1.1856-23.5165,2.1245-47.087,1.1843-70.6342,1.079C179.7044,458.8684,171.1959,457.743,162.6852,457.1139Z"
                      transform="translate(-0.9044 -0.9055)"/>
                <path class="cls-36"
                      d="M56.9676,454.95c13.7329-14.58,27.47-29.14,45.354-38.9022a24.12,24.12,0,0,1,8.49-2.5018c3.693-.5157,6.0818,1.04,7.1433,4.585,3.0372,10.1436,3.5255,20.5792,3.0208,31.0355-.2065,4.28-3.2842,3.022-5.8184,1.8975l-.2756-4.0443c-1.2247-7.7027-1.1565-15.5565-2.712-23.2206-1.0829-5.8937-2.1032-6.2372-7.2084-3.9478-8.859,3.9727-15.5137,10.8389-22.8132,16.8321-7.19,5.9031-14.0315,12.23-21.026,18.3712a8.1869,8.1869,0,0,1-2.9158,1.8215C56.4249,457.2837,56.2108,456.351,56.9676,454.95Z"
                      transform="translate(-0.9044 -0.9055)"/>
                <path class="cls-37"
                      d="M229.7614,472.0887c-12.9669,13.2019-26.0383,26.2819-40.5314,37.8621a137.49,137.49,0,0,0-15.32,13.988l.0317-.0286a14.0514,14.0514,0,0,1-2.2327.9986c-1.9318.4992-3.0029,4.42-5.07,2.3261-1.257-1.2732,1.65-3.28,2.8348-4.6529,15.5168-17.9829,32.3039-34.6483,51.4671-48.8015.3443-.2542.2163-1.148.3117-1.7432Q225.51,472.0633,229.7614,472.0887Z"
                      transform="translate(-0.9044 -0.9055)"/>
                <path class="cls-38"
                      d="M180.7692,471.0084c-9.8735-1.4884-16.8306,3.0347-24.223,9.333a264.3863,264.3863,0,0,1-37.5113,26.7075c-1.5979.028-1.8244-.62-.9046-1.8341,12.3409-10.6276,23.7262-22.3712,37.1508-31.7537.8476-.5924,5.086-2.0158.9833-4.3936C164.4426,469.6208,172.729,468.76,180.7692,471.0084Z"
                      transform="translate(-0.9044 -0.9055)"/>
                <path class="cls-39"
                      d="M190.1089,472.21c-1.7443,4.1955-5.7457,6.2961-8.8372,9.1519a347.5651,347.5651,0,0,1-35.6268,28.2254c1.5035-4.38,4.9353-7.3634,7.9246-10.52q11.9515-12.621,25.0908-24.0426c1.2676-1.1036,2.7068-1.9306,2.4756-3.91Z"
                      transform="translate(-0.9044 -0.9055)"/>
                <path class="cls-37"
                      d="M256.0034,510.8756c-4.7019,4.6133-7.2261,10.9683-12.3614,15.2649-4.9444,4.1368-9.7228,8.4723-14.5618,12.7345-.76.6689-1.5177,1.4813-2.5341.62-.7981-.6765-.3657-1.5087.1386-2.2006a371.0851,371.0851,0,0,1,23.4175-29.4822c1.4818-1.6512,3.8369-2.5186,5.7886-3.7466Q255.9469,507.4718,256.0034,510.8756Z"
                      transform="translate(-0.9044 -0.9055)"/>
                <path class="cls-40"
                      d="M115.16,453.8619c9.38.0662,18.76.1726,28.14.1791a19.554,19.554,0,0,1,10.6945,2.9577c-8.6421-.0118-17.2848.031-25.9261-.0608-3.8-.04-7.34-2.6235-11.39-1.0655C115.6451,456.27,115.0818,455.0005,115.16,453.8619Z"
                      transform="translate(-0.9044 -0.9055)"/>
                <path class="cls-41"
                      d="M56.9676,454.95c1.2976,3.5068,2.8039-1.2813,4.1548.1046-5.0417,6.5983-11.84,11.4047-17.6133,17.2562-1.233,1.25-2.493,2.4727-3.7411,3.71-1.4882-1.6682.0539-3.0361.8814-3.8357C46.3476,466.6786,50.7016,459.9044,56.9676,454.95Z"
                      transform="translate(-0.9044 -0.9055)"/>
                <path class="cls-42"
                      d="M112.17,423.7991c3.6514,7.4194,2.5421,15.3948,2.712,23.2207C112.15,439.493,111.8087,431.6871,112.17,423.7991Z"
                      transform="translate(-0.9044 -0.9055)"/>
                <path class="cls-39"
                      d="M218.7035,471.9171q-14.24.11-28.4784.2195c1.1966-1.7077,3.0139-1.1007,4.5379-1.0211C202.7392,471.5317,210.7746,470.2065,218.7035,471.9171Z"
                      transform="translate(-0.9044 -0.9055)"/>
                <path class="cls-43"
                      d="M49.1981,539.7756a6.6774,6.6774,0,0,1,5.6126,4.348C51.8618,544.0659,50.9493,541.3794,49.1981,539.7756Z"
                      transform="translate(-0.9044 -0.9055)"/>
                <path class="cls-1"
                      d="M373.7318,466.0915c23.701-1.2633,47.4127-2.3073,71.1518-1.7527,5.5465.13,9.6174-1.5295,12.1545-6.5312,1.6039-7.3955,3.4942-14.75,1.6038-22.4241a21.5716,21.5716,0,0,1-.0968-5.9689c.0559-1.3867-.6862-3.1575,1.2052-3.9372,1.5939-.6571,2.8564.3137,4.1325,1.1162a230.5946,230.5946,0,0,1,28.24,21.2239,260.901,260.901,0,0,0,37.8313,27.5443c5.2928,3.1374,10.4627,6.4631,15.6524,9.7614,10.0672,6.3981,11.694,18.5168,3.5077,27.2887a80.3547,80.3547,0,0,1-7.9068,7.5913q-27.57,25.8949-55.1117,51.8205c-3.0118,2.8479-5.6213,6.1187-8.456,9.1574-.9993,1.0714-2.0367,2.5323-3.7084,1.9627-1.619-.5516-1.0053-2.2623-1.099-3.51-.3108-4.1437-.5494-8.2927-.8157-12.44-1.0664-3.0573-.5851-6.2361-.419-9.3127.2527-4.682-.9653-9.1777-1.1658-13.7871-.1129-2.594-1.7807-3.6555-4.272-3.8784-8.7015-.7781-17.3685-2.0955-26.1415-1.5306-2.7672-.6974-5.6-.3922-8.4087-.5113-4.2814-.1816-5.4668-1.8023-3.5486-5.7258,2.9081-5.9482,5.5585-11.9477,6.6107-18.4937a36.3639,36.3639,0,0,0-6.8752,13.8489c-.4292,1.6005-.7086,3.2363-1.1693,4.8341-1.08,3.7468-3.0126,6.24-7.4192,5.58a10.3492,10.3492,0,0,0-3.9359.4547c-4.42.031-8.8368.001-13.2467.0166-3.49-1.655-1.3792-3.8648-.3529-5.6551,4.5478-7.9338,9.0047-15.9105,12.81-24.2329a14.9476,14.9476,0,0,0,1.757-8.5781c-5.6568,6.7924-9.38,13.57-12.887,20.482a136.87,136.87,0,0,0-5.6507,13.8451c-.8988,2.3859-2.2461,4.0512-4.9892,4.14q-9.2205-.01-18.4165.0024c-3.2475-1.0739-1.0124-2.9414-.35-4.1319,3.4779-6.2536,6.7146-12.6392,10.4594-18.75,5.3482-8.7274,7.9449-18.5418,10.6073-28.41a31.3641,31.3641,0,0,0-5.9245,7.9824,322.9469,322.9469,0,0,0-16.3922,36.9333c-.7519,2.007-1.3429,4.1348-2.8549,5.7875a7.6524,7.6524,0,0,1-1.2724.7467c-7.2457,1.1885-14.602.1549-21.8839,1.1484-3.25.4434-4.1967-1.8688-1.8887-4.9567,8.6991-11.6392,14.9694-24.7519,22.6987-36.9757a127.6946,127.6946,0,0,0,10.0869-20.4683c-5.4483,4.7626-9.2563,10.7487-13.1786,16.6211-8.44,12.6369-14.7571,26.413-21.27,40.08-1.4377,3.0167-2.74,6.1628-6.6364,6.7931-3.1842-.0282-3.89-2.2678-3.893-4.7289-.01-9.2978-.47-18.6018.233-27.8881,2.0809-5.9512,6.771-10.1349,10.3579-15.0623a108.0663,108.0663,0,0,0,12.6081-23.0189c1.1727-2.8793,3.0022-3.8492,6.0957-3.7637C365.83,466.5382,369.8146,467.0209,373.7318,466.0915Z"
                      transform="translate(-0.9044 -0.9055)"/>
                <path class="cls-44"
                      d="M541.2073,520.0032c1.2322-2.659,3.7622-4.1272,5.68-6.1543,4.484-4.7393,6.1216-10.5249,6.16-16.8328.0316-5.2256-3.7832-8.1471-7.563-10.45-17.1385-10.4423-34.1381-21.0725-49.7742-33.7123-7.8688-6.361-14.8663-13.786-23.5229-19.1909-3.0822-1.9245-6.0894-3.97-9.115-5.9838-.94-.6259-1.7187-1.8213-3.0357-1.2236-1.4007.6357-.8652,2.0652-.8058,3.1116.4234,7.4621,1.0774,14.9105-.0749,22.3765-.329,2.132-.1392,4.3668-2.1181,5.8666,2.4336-13.8776.9158-27.8341.88-41.7609-.0032-1.25-.6324-2.8544.81-3.6122,1.4235-.748,2.5127-.0036,3.0061,1.5195-2.726,3.1005-.3287,4.8693,1.8676,6.3906,5.5886,3.8707,11.6174,7.0447,17.035,11.2293,5.255,4.0589,10.6553,7.9421,15.7527,12.199,13.3011,11.1079,27.8422,20.3957,42.6233,29.3448,4.5454,2.7519,8.939,5.742,13.4158,8.6017a17.6579,17.6579,0,0,1,8.6808,14.3278c.1421,2.19.7583,3.8335,2.6306,4.9638Z"
                      transform="translate(-0.9044 -0.9055)"/>
                <path class="cls-45"
                      d="M563.7392,501.0135c-1.9036.57-3.96,1.62-3.6926-2.0127.7026-9.5358-5.1376-14.6073-12.5175-19.0976-15.974-9.7191-32.1451-19.2206-46.7549-30.9547-8.9213-7.1654-17.8473-14.3018-27.1934-20.8933-4.0431-2.8516-8.3081-5.3984-12.5517-7.9517-2.3993-1.4437-2.1048-3.6788-1.782-5.7379.2331-1.487,1.6874.08,2.4888-.408,15.4864,10.7269,31.0387,21.3652,46.53,32.0877,15.5089,10.7347,30.1125,22.7019,45.9049,33.0076,5.267,3.4371,10.6486,6.6127,15.2108,11.0574,2.6327,2.5648,4.2216,4.3119-.2564,6.535C567.1048,497.6482,565.5211,499.53,563.7392,501.0135Z"
                      transform="translate(-0.9044 -0.9055)"/>
                <path class="cls-37"
                      d="M373.7318,466.0915c-2.466,1.4927-5.2963,1.0439-7.7433.639-6.272-1.0378-9.06,2.3972-10.7642,7.448-3.1833,9.4351-9.1315,17.1851-14.9653,25.0111-1.9658,2.6372-4.0775,5.1657-6.1225,7.7438-2.3222-2.4769-1.5116-5.3768-1.1239-8.2165,5.0943-9.8594,10.6368-19.4782,16.917-29.5771-4.3716.1916-8.2134.1692-12.059.2283-2.5418.0391-3.4829,1.483-3.5224,3.8333-.0529,3.1528.1333,6.3146-.1028,9.4544-.1231,1.6361.54,3.8194-1.99,4.4666-1.8888-4.9844.1793-10.2583-1.1349-15.2826l-.01-3.7c2.3751-3.4636,6.2207-.4156,9.0123-2.0352Q356.9274,466.0983,373.7318,466.0915Z"
                      transform="translate(-0.9044 -0.9055)"/>
                <path class="cls-46"
                      d="M331.1209,471.84c1.5457,3.1274.4894,6.5.929,9.7288.2339,1.717-.6961,3.663.9474,5.1194,3.5659,3.465,2.6327,7.3639,1.0921,11.3215q.0229,4.4636.0465,8.9254c-.0778,9.8753-.0278,19.7557-.3027,29.6269-.0991,3.5589,1.6818,3.7406,4.2844,3.3448,1.8027-1.183,3.4389-2.3687,5.8172-.8325,2.5189,1.6269,5.0376-.6708,7.6436-.5949,5.5977.1632,11.2021-.0565,16.803.1083q.3607.2612.7209.523a31.5512,31.5512,0,0,1-11.597,1.851c-7.1472-.3765-14.2093.7219-21.3155,1.0121-3.2829.1341-5.2532-.9675-5.227-4.8559C331.11,515.359,331.0862,493.5992,331.1209,471.84Z"
                      transform="translate(-0.9044 -0.9055)"/>
                <path class="cls-46"
                      d="M400.8825,537.9357l15.2465-.01c7.5822-1.1231,15.1645-.7,22.7469-.0026,8.27-.04,16.5319.1285,24.7775.8523,6.518.5723,8.0809,1.9779,8.262,8.3978.1862,6.6026.08,13.2135.1011,19.8208-1.5494-1.2959-1.1523-3.121-.9606-4.6694.809-6.5355-1.4234-12.7-2.0635-19.0515-.175-1.7371-1.1831-2.1649-2.6787-2.25-8.927-.51-17.7052-2.2579-26.75-2.109-23.4825.3865-46.9749.17-70.4626.196l-.2874-.3113a.5034.5034,0,0,1,.117-.8152l.0652-.0395c1.3635-.7446,2.73-1.2968,4.1282-.0723l20.9729.0425C396.3614,537.1973,398.6271,535.9772,400.8825,537.9357Z"
                      transform="translate(-0.9044 -0.9055)"/>
                <path class="cls-47"
                      d="M528.9016,549.8127c.069.7533-.9525,1.5805.1541,2.2642-4.2055,4.08-8.2815,8.3046-12.6529,12.1978-4.5723,4.0722-9.3394,7.9159-13.6179,12.3236-.92.9477-1.7077,3.3877-3.8748,1.4467A364.6227,364.6227,0,0,1,528.9016,549.8127Z"
                      transform="translate(-0.9044 -0.9055)"/>
                <path class="cls-48"
                      d="M473.2,600.8452c.8039.3154,1.721.7447.7727,1.676a36.5017,36.5017,0,0,1-4.5266,3.8305c-1.5125,1.064-2.7117,4.7215-4.8591,2.1891-1.8936-2.2331-3.5776-5.77.1324-8.5377C467.3493,602.2539,470.304,601.2531,473.2,600.8452Z"
                      transform="translate(-0.9044 -0.9055)"/>
                <path class="cls-46"
                      d="M340.123,466.105c-2.739,1.8547-6.43-.5118-9.013,2.0345C333.268,463.712,337.1469,466.9077,340.123,466.105Z"
                      transform="translate(-0.9044 -0.9055)"/>
                <path class="cls-49"
                      d="M442.3326,378.0193h10.692c-3.5107,3.3011-7.84,2.6754-11.7681,3.43a226.3081,226.3081,0,0,1-40.77,4.4637,32.5662,32.5662,0,0,1-11.1927-1.8357c-2.4381-.8617-2.6846-2.8284-2.1595-4.8757.4534-1.7679,1.1942-3.6741,3.7312-2.2143,2.6178,4.3985,6.72,5.6789,11.4352,4.9758C415.583,379.9828,428.9772,379.2134,442.3326,378.0193Z"
                      transform="translate(-0.9044 -0.9055)"/>
                <path class="cls-1"
                      d="M259.1892,54.7656c-.08-4.6185.0585-9.2532-.2855-13.8519-.6913-9.2411,8.8169-19.8651,17.071-22.0044a49.6586,49.6586,0,0,1,10.124-2.7971l8.7008.0731c2.0644.9406,4.3807,1.2789,6.2751,2.6256,8.0817,3.912,10.4794,11.6768,11.5253,19.3574,1.6269,11.9456.77,23.888-6.399,34.3394-3.0136,4.3932-6.39,8.5507-9.7877,12.661-1.4425,1.7449-1.7422,3.188-.0046,4.6733,5.9013,5.0446,7.7306,12.3621,10.7372,19.0251.9647,2.0436,1.5,4.277,2.7384,6.2,4.2662,13.5795,8.4849,27.156,10.5575,41.3165.4453,3.0425-.16,3.9629-3.03,3.9306-16.8044-.1893-33.6167.6293-50.4148-.3952-1.9241-1.1056-5.1281-.4721-5.3316-3.92,3.1752-4.3882,8.0291-6.8166,12.0537-10.2128,6.475-5.4642,12.8715-10.9763,18.2133-17.6008a6.357,6.357,0,0,0,1.8019-3.6108c-7.5831,3.98-13.4136,9.2118-18.8885,14.9191-4.36,4.545-7.9758,9.772-12.77,13.9262-2.0042,5.4859-6.5955,5.9653-11.4818,6.1046-2.37.0676-3.3363-.7541-3.0918-3.1277.4053-3.9346.6367-7.9051,3.347-11.134,2.2086-3.3969,5.4155-5.8035,8.5214-8.2573,7.219-5.7034,13.3477-12.4585,19.1892-19.4969,1.1289-1.36,2.557-2.6662,2.5391-4.6428a1.0773,1.0773,0,0,0-1.7516-.0809c-7.1609,6.4223-15.1675,11.9446-21.03,19.7521a8.3461,8.3461,0,0,1-4.2006,3.3942c-2.3758.6734-3.175-.2284-2.1493-2.5482q2.0877-6.1389,4.1753-12.2778c1.2021-2.2674,1.5012-4.8935,2.826-7.112l.3222-2.0232c2.3987-6.6336,8.4489-9.5213,13.68-13.2021,2.45-1.7236,4.9092-3.2877,5.7651-6.6471-2.96-.98-4.528,1.3564-6.6145,1.9977-2.5624.7876-5.3672,1.7663-4.1828-2.9061-.3177-4.8063,1.47-7.2048,6.647-5.9891a19.5961,19.5961,0,0,0,3.4707.05,2.2756,2.2756,0,0,0,2.437-1.3294c.392-1.0916-.6616-1.7277-1.3992-2.3164-4.6943-3.7465-9.3089-7.51-12.7981-12.5534a54.1654,54.1654,0,0,1-4.45-8.02C260.7784,59.0345,260.0754,56.8614,259.1892,54.7656Z"
                      transform="translate(-0.9044 -0.9055)"/>
                <path class="cls-37"
                      d="M251.9678,133.3827c1.1118,4.3224,3.037,1.0652,3.8.1035,6.12-7.7146,13.646-13.92,21.12-20.1951.8825-.7409,1.7284-1.5255,2.6118-2.2654.7908-.6625,1.7507-1.26,2.6956-.6122,1.1688.8013.8825,2.0848.3718,3.1449a21.1289,21.1289,0,0,1-2.0555,3.3693c-8.0294,10.8523-18.3,19.417-28.6018,27.9475a1.2068,1.2068,0,0,1-1.9368.1422C250.3588,141.0914,248.8077,136.8331,251.9678,133.3827Z"
                      transform="translate(-0.9044 -0.9055)"/>
                <path class="cls-50"
                      d="M267.939,91.2121c.0851,2.3738.8917,3.4947,3.346,2.029,1.7-1.0155,3.4256-2.0017,5.2022-2.8737a2.8923,2.8923,0,0,1,3.6666.3963c1.2653,1.3645.0333,2.335-.5628,3.4906-2.123,4.1156-6.4143,5.6874-9.8206,8.1767-3.8776,2.8339-7.7717,5.4891-10.48,9.5406-1.0277-3.0166,1.6252-4.8277,2.9694-6.3681,3.4518-3.9556,1.829-9.3859,4.7371-13.2911C267.2848,91.9261,267.6238,91.5779,267.939,91.2121Z"
                      transform="translate(-0.9044 -0.9055)"/>
                <path class="cls-51"
                      d="M249.9728,145.0174q.969-.07,1.9374-.1415c-2.1407,3.0706-2.6206,6.7633-3.6645,10.2173-.9272,3.0678.6313,3.7244,3.7387,3.8671,5.4224.2491,7.0487-4.1606,10.0543-6.9314,1.2941,1.3733-.09,2.7459-.0012,4.1188.9518,2.18,3.6766,2.0273,4.96,3.7709-5.6271.08-11.254.169-16.8812.2324-1.4774.0167-3.2622.2315-3.1386-2.0366C247.2243,153.5892,246.17,148.7377,249.9728,145.0174Z"
                      transform="translate(-0.9044 -0.9055)"/>
                <path class="cls-52"
                      d="M286.0987,16.1122c-3.212,1.5217-6.4487,2.9537-10.1242,2.7972C278.7405,15.7733,282.3687,15.7585,286.0987,16.1122Z"
                      transform="translate(-0.9044 -0.9055)"/>
                <path class="cls-53"
                      d="M258.9691,113.9929c-.1321,2.6925-.5914,5.255-2.826,7.112C256.0871,118.3376,256.3683,115.7044,258.9691,113.9929Z"
                      transform="translate(-0.9044 -0.9055)"/>
                <path class="cls-54"
                      d="M309.8842,115.0667c-2.75-1.2548-2.8418-3.6841-2.7385-6.1995A7.1435,7.1435,0,0,1,309.8842,115.0667Z"
                      transform="translate(-0.9044 -0.9055)"/>
                <path class="cls-55"
                      d="M259.1892,54.7656a7.6779,7.6779,0,0,1,2.6569,6.2882C258.9317,59.8148,259.1218,57.2643,259.1892,54.7656Z"
                      transform="translate(-0.9044 -0.9055)"/>
                <path class="cls-56"
                      d="M301.0746,18.8109c-2.3859-.1719-4.609-.733-6.2749-2.6257C297.2981,16.088,299.821,15.9327,301.0746,18.8109Z"
                      transform="translate(-0.9044 -0.9055)"/>
                <path class="cls-1"
                      d="M122.8642,337.2116c1.1948-6.103,2.1057-12.271,4.1565-18.1784,1.2513-1.627,1.0648-4,2.7877-5.3834,4.9073-7.3217,9.3771-14.9129,14.322-22.1844-1.8911-1.2832-4.8049,4.2086-5.2378-1.3694,1.9991-3.0451.3322-4.9964-1.7765-7.1837-4.6887-4.8635-9.9135-9.1463-10.6361-16.9183-.9442-10.1542,1.9309-18.63,8.1821-26.39,2.8274-3.51,6.6122-5.497,10.32-7.7007,6.6817-3.1749,13.3554-2.4683,20.0253.0416,5.97,2.1664,11.1119,5.2617,13.2,11.7791,3.1818,7.8228,2.1037,15.63-.085,23.4334-.3216,4.3273-2.7853,7.7018-5.0081,11.1711-3.418,5.3348-3.0595,11.235.4428,16.4873a86.1733,86.1733,0,0,1,10.5543,21.09c1.0281,2.68,1.8075,5.4457,2.7861,8.1429,2.9444,10.6276,3.3071,21.4891,2.85,32.4109-.0641,1.5324.7531,3.3437-.9683,4.5565-8.933,1.05-17.8986.215-26.8461.4531-3.6587.0973-7.3255.1071-10.9815-.0319-1.3272-.05-3.3353.9412-3.845-1.0722-.3914-1.5463,1.0674-2.6714,2.1789-3.6808,4.1822-3.7983,8.8722-7.0425,12.5845-11.3485a23.2942,23.2942,0,0,0,4.8745-7.7289c-2.4193.5451-3.69,1.9512-5.052,3.1676-5.4992,4.91-9.6461,11.002-14.3544,16.5965-2.4451,2.9054-5.0966,4.36-8.9958,4.1974-4.2949-.1791-8.6284-.4313-12.9341.3993-4.8747.94-4.9032.8441-4.8845-4.2926a9.8286,9.8286,0,0,1,.2486-3.4618l.3336-4.2981c.973-2.1989,2.8117-3.5893,4.5074-5.2026a195.3661,195.3661,0,0,0,26.8548-31.3554,3.5936,3.5936,0,0,0,.6515-2.86,35.9639,35.9639,0,0,0-7.1117,5.71c-6.8479,7.0236-13.7294,14.018-19.0908,22.3218-.8649,1.3394-1.91,3.2123-3.8372,2.2716C121.6475,340.1022,122.4593,338.4605,122.8642,337.2116Z"
                      transform="translate(-0.9044 -0.9055)"/>
                <path class="cls-57"
                      d="M115.1383,373.2372c4.454,1.4485,9.1173,1.4738,13.6862,1.5494,12.9645.2146,25.9348.0752,40.0569.0752-5.8875,3.9159-11.783,5.0528-17.2311,5.7195-8.0258.9823-15.6716,3.7295-23.8939,3.953-6.8246.1856-13.1756-.4288-19.2006-3.4594-5.6954-2.8648-7.7337-10.0482-4.9628-16.8739.7352-1.811,1.7451-3.5105,2.818-5.6356,1.4986,2.8542.4338,6.0732,2.3595,8.3773C109.138,370.8147,111.582,372.5885,115.1383,373.2372Z"
                      transform="translate(-0.9044 -0.9055)"/>
                <path class="cls-38"
                      d="M122.8642,337.2116l.659,3.7973c4.0968-5.6084,7.7308-10.7831,12.016-15.4438a191.888,191.888,0,0,1,15.085-15.1021c1.3864-1.2069,2.8649-2.31,4.3238-1.176,1.7929,1.3939-.3182,2.6837-.9948,3.6989-9.222,13.8371-19.75,26.5338-32.8485,36.93C121.5921,345.6667,119.6581,341.0833,122.8642,337.2116Z"
                      transform="translate(-0.9044 -0.9055)"/>
                <path class="cls-58"
                      d="M120.7714,354.2129c.4218,7.0367.507,6.2729,7.3134,7.033,10.4684,1.169,17.9006-1.9227,23.5277-11.116a42.5523,42.5523,0,0,1,13.0511-13.5711c1.1675-.7532,2.39-2.4753,3.8435-.9134,1.2233,1.3143.1035,2.6938-.6928,4.024-4.1849,6.9906-10.39,12.0152-16.5052,17.1237-1.2686,1.06-2.7648,1.85-3.9951,4.2214,14.1074,0,27.7886,0,41.467.0006-1.5483,1.499-3.48.7883-5.2254.8025-16.9559.1375-33.9126.1853-50.8688.294a35.3259,35.3259,0,0,0-5.4569.4029C119.5889,363.7644,118.22,362.0348,120.7714,354.2129Z"
                      transform="translate(-0.9044 -0.9055)"/>
                <path class="cls-59"
                      d="M138.8926,290.096c.9705,2.7336,1.9741,1.2328,2.9921.0306.8777-1.0365,1.9473-2.1346,3.2966-1.12,1.4656,1.1027.3286,2.7455-.2828,3.574-5.1791,7.0177-8.8175,15.0829-14.7107,21.604a.8322.8322,0,0,1-.3007-1.2652C131.7279,304.8538,135.1571,297.4145,138.8926,290.096Z"
                      transform="translate(-0.9044 -0.9055)"/>
                <path class="cls-60"
                      d="M178.1217,267.157c.737-7.8085,1.5781-15.6166.0849-23.4333C182.3007,248.4747,182.256,260.7988,178.1217,267.157Z"
                      transform="translate(-0.9044 -0.9055)"/>
                <path class="cls-61"
                      d="M165.0072,231.9445a46.8121,46.8121,0,0,0-20.0256-.0415C149.7455,227.7247,158.7905,227.7435,165.0072,231.9445Z"
                      transform="translate(-0.9044 -0.9055)"/>
                <path class="cls-62"
                      d="M129.8871,312.92q.15.632.3,1.2647a8.4592,8.4592,0,0,1-3.1668,4.8486C127.4339,316.7411,125.3955,313.3,129.8871,312.92Z"
                      transform="translate(-0.9044 -0.9055)"/>
                <path class="cls-63"
                      d="M186.8968,324.0483c-1.9665-2.3592-3.2785-4.9424-2.7861-8.1429C186.5556,318.101,187.0972,320.9477,186.8968,324.0483Z"
                      transform="translate(-0.9044 -0.9055)"/>
                <path class="cls-1"
                      d="M251.9141,499.8642c.1836,2.2252.0871,3.7389-1.5836,4.4742-6.1027,2.686-7.6486,9.2821-11.7279,13.7254-3.4316,3.7377-5.8642,8.43-10.3914,11.11-1.9592,1.1595-2.5042,3.0052-3.0674,4.8757-.5657,1.8784-1.6193,4.0989-3.4456,3.6514-6.8548-1.68-13.8737.1664-20.757-1.5135-3.4653-.8458-2.9387-2.272-1.4405-3.8621,6.2819-6.6678,12.1424-13.6523,20.317-18.469,6.9922-4.12,11.4963-11.3322,17.2161-17.0623,3.72-3.7267,7.3375-7.5557,11.023-11.3171.5584-.57,1.17-1.2984,2.11-.9291.9828.3863.7888,1.3591.8159,2.1517C251.1408,491.3226,250.443,496.0064,251.9141,499.8642Z"
                      transform="translate(-0.9044 -0.9055)"/>
                <path class="cls-1"
                      d="M173.91,523.9388c4.4629-.3326,7.6709-3.1744,10.4047-6.1245a36.0523,36.0523,0,0,1,6.0564-5.7641,105.4292,105.4292,0,0,0,18.0585-16.1494c5.8562-6.34,13.7229-10.3744,18.904-17.504,2.229-3.0672,6.6544-3.5037,10.0486-5.1881,1.11-.5509,3.2235-.9472,4.0333.6553.6546,1.2957-.7792,2.2467-1.6456,3.2708-5.0581,5.9788-12.09,9.7525-17.1875,15.7171-9.3441,10.9333-20.3587,20.3053-28.9822,31.9918-4.2233,5.7235-10.2761,10.2417-18.6314,8.2117-1.6077-.3907-3.5574-.1745-4.3824-1.7763-.7629-1.4812,1.1338-2.1618,1.7754-3.2419.7636-1.2857,1.63-2.5295,1.58-4.1264Z"
                      transform="translate(-0.9044 -0.9055)"/>
                <path class="cls-1"
                      d="M143.6591,471.1776c2.4291-1.5173,4.9333-1.2106,8.0455-.8955C148.84,473.0526,146.19,471.6433,143.6591,471.1776Z"
                      transform="translate(-0.9044 -0.9055)"/>
                <path class="cls-64"
                      d="M118.13,505.2148a1.7494,1.7494,0,0,0,.9044,1.8337c-.8182,1.1632-1.5015,2.5405-3.1938,2.52-.2526-.0032-.7366-.692-.7053-1.0253C115.3054,506.7351,116.5178,505.7743,118.13,505.2148Z"
                      transform="translate(-0.9044 -0.9055)"/>
                <path class="cls-37"
                      d="M368.931,537.983a1.4934,1.4934,0,0,1-.1161.8163c-9.1377-.2571-18.2447,1.2288-27.3969.4615a12.269,12.269,0,0,0-3.3026.6462c4.4867-5.6351,6.8908-12.4055,9.86-18.8056A211.8246,211.8246,0,0,1,375.354,476.898c.9679-1.1986,1.9208-3.279,3.8617-1.95,1.6567,1.1349.1882,2.8966-.3436,4.0572A277.4654,277.4654,0,0,1,362.41,508.9835c-5.963,9.6626-10.8322,20.0061-18.64,28.9995Z"
                      transform="translate(-0.9044 -0.9055)"/>
                <path class="cls-37"
                      d="M373.1244,537.8712l-4.1284.0726a383.2953,383.2953,0,0,1,19.2534-43.92c1.4418-2.7674,3.3663-5.2843,5.0824-7.9074.6118-.9353,1.0372-2.3755,2.4973-1.9467,1.7808.5231,1.357,2.2177,1.03,3.3639a143.4257,143.4257,0,0,1-4.4345,14.1106C387.307,514.4043,379.8874,525.9693,373.1244,537.8712Z"
                      transform="translate(-0.9044 -0.9055)"/>
                <path class="cls-37"
                      d="M400.8825,537.9357q-3.3942-.0107-6.7868-.0215c3.92-5.2486,5.02-11.7578,7.822-17.5186a166.5237,166.5237,0,0,1,11.1559-18.7014c.9259-1.4036,2.2124-4.2321,4.4529-2.9394,1.4564.84.5634,3.3468.0629,5.1271-1.6676,5.933-5.0086,11.1016-7.5127,16.6514C407.3705,526.5308,402.6691,531.4626,400.8825,537.9357Z"
                      transform="translate(-0.9044 -0.9055)"/>
                <path class="cls-65"
                      d="M438.8759,537.9228l-22.749.0027c7.9036.4126,9.1431-5.1043,10.5632-11.1359a28.9153,28.9153,0,0,1,9.1043-15.8933c.4594,7.4274-2.4492,12.95-4.8607,18.591a22.9041,22.9041,0,0,1-1.6867,3.0573c-2.1931,3.52-.9236,4.63,2.8659,4.5969C434.3552,537.1218,436.7831,536.3521,438.8759,537.9228Z"
                      transform="translate(-0.9044 -0.9055)"/>
                <path class="cls-66"
                      d="M334.0894,498.01l-1.0917-11.3184c.0007-4.4706.2714-8.9593-.077-13.3994-.3137-3.9994.7091-5.65,5.0581-5.447,4.5852.2142,9.2506.4537,14.7333-.8609-4.114,6.8559-7.7548,13.1211-11.6,19.2585C338.6852,490.117,337.6747,494.8346,334.0894,498.01Z"
                      transform="translate(-0.9044 -0.9055)"/>
                <path class="cls-39"
                      d="M262.0375,156.1477c-2.0026-1.3734.2907-2.7461.001-4.119,3.4331-3.7917,7.0778-7.4157,10.2513-11.4136,5.2374-6.598,11.8447-11.5056,18.71-16.1691,1.3578-.9224,2.9007-2.5687,4.2915-.8994,1.2339,1.4811-.38,3.1828-1.3692,4.361a138.2975,138.2975,0,0,1-19.2182,18.6367C270.582,149.87,266.2661,152.9546,262.0375,156.1477Z"
                      transform="translate(-0.9044 -0.9055)"/>
                <path class="cls-39"
                      d="M161.6363,326.006c-.0972.1313-.505.6217-.8475,1.1541-8.003,12.4388-19.1584,21.8033-30.3886,31.0825-.7479.618-1.6816,2.1785-2.8681.8929-.9744-1.0558.17-2.0783.7484-3.0666,7.2176-12.33,17.4582-21.894,28.2446-30.9663a4.5833,4.5833,0,0,1,4.1618-1.0406C161.4027,324.2217,161.8081,324.7145,161.6363,326.006Z"
                      transform="translate(-0.9044 -0.9055)"/>
            </g>
        </g>
    </g>
</svg>
