<svg height="682pt" viewBox="-22 -21 682 682.66669" width="682pt" xmlns="http://www.w3.org/2000/svg"><path d="m167.609375 478.132812c6-8.90625 9.507813-19.621093 9.507813-31.148437v-32.707031c0-.613282-.027344-1.226563-.046876-1.835938.011719-.257812.039063-.519531.035157-.78125-.449219-29.378906-24.722657-53.28125-54.105469-53.28125h-3.546875c-29.84375 0-54.121094 24.28125-54.121094 54.125v1.460938c0 .101562-.007812.207031-.007812.3125v32.707031c0 11.488281 3.492187 22.179687 9.457031 31.070313-21.929688 1.734374-41.746094 13.488281-53.804688 32.1875-13.558593 21.046874-20.726562 45.402343-20.726562 70.429687v46.828125c0 6.90625 5.597656 12.5 12.5 12.5h215.863281c6.90625 0 12.5-5.59375 12.5-12.5v-46.828125c0-25.027344-7.167969-49.382813-20.726562-70.429687-11.871094-18.40625-31.253907-30.089844-52.777344-32.109376zm-46.386719-94.75c12.808594 0 23.816406 7.835938 28.496094 18.964844-12.003906-.710937-23.433594 3.683594-35.421875 8.292969-2.269531.875-4.597656 1.765625-6.980469 2.644531-.539062.199219-4.855468 1.550782-16.929687-.828125.941406-16.191406 14.410156-29.074219 30.835937-29.074219zm-30.898437 54.4375c4.390625.6875 8.40625 1.03125 12.054687 1.03125 5.257813 0 9.769532-.703124 13.578125-2.109374 2.5-.917969 4.9375-1.855469 7.320313-2.773438 11.085937-4.261719 20.65625-7.945312 27.828125-6.257812.332031.078124.671875.140624 1.011719.203124v19.070313c0 16.4375-12.910157 29.921875-29.128907 30.835937h-3.539062c-16.214844-.914062-29.125-14.398437-29.125-30.835937zm125.785156 177.179688h-24.144531v-52.164062c0-6.902344-5.601563-12.5-12.503906-12.5-6.90625 0-12.5 5.597656-12.5 12.5v52.164062h-91.480469v-52.164062c0-6.902344-5.597657-12.5-12.5-12.5-6.90625 0-12.5 5.597656-12.5 12.5v52.164062h-25.230469v-34.328125c0-20.210937 5.792969-39.886719 16.742188-56.882813 8.464843-13.125 22.832031-20.960937 38.449218-20.960937h28.28125v27.625c0 6.90625 5.59375 12.5 12.5 12.5 6.902344 0 12.5-5.59375 12.5-12.5v-27.625h27.203125c15.613281 0 29.984375 7.835937 38.445313 20.960937 10.953125 16.996094 16.742187 36.671876 16.742187 56.882813v34.328125zm0 0"/><path d="m617.292969 510.242188c-11.867188-18.40625-31.257813-30.089844-52.773438-32.109376 6-8.90625 9.503907-19.621093 9.503907-31.148437v-32.707031c0-.621094-.023438-1.230469-.042969-1.847656.011719-.25.039062-.511719.035156-.769532-.453125-29.375-24.722656-53.277344-54.101563-53.277344h-3.550781c-29.84375 0-54.121093 24.277344-54.121093 54.121094v1.4375c0 .113282-.007813.222656-.007813.335938v32.707031c0 11.492187 3.488281 22.179687 9.457031 31.070313-21.929687 1.734374-41.75 13.488281-53.804687 32.1875-13.558594 21.046874-20.726563 45.402343-20.726563 70.429687v46.828125c0 6.90625 5.59375 12.5 12.5 12.5h215.863282c6.90625 0 12.5-5.59375 12.5-12.5v-46.828125c-.003907-25.027344-7.171876-49.382813-20.730469-70.429687zm-99.167969-126.859376c12.8125 0 23.824219 7.835938 28.503906 18.964844-12.007812-.707031-23.4375 3.683594-35.421875 8.285156-2.273437.882813-4.597656 1.773438-6.988281 2.652344-.53125.195313-4.851562 1.550782-16.925781-.828125.945312-16.191406 14.414062-29.074219 30.832031-29.074219zm-30.890625 54.445313c4.382813.679687 8.40625 1.023437 12.054687 1.023437 5.253907 0 9.765626-.703124 13.578126-2.109374 2.5-.917969 4.933593-1.855469 7.316406-2.773438 11.082031-4.261719 20.664062-7.949219 27.824218-6.257812.339844.078124.675782.144531 1.015626.203124v19.074219c0 16.441407-12.910157 29.917969-29.125 30.839844h-3.539063c-16.214844-.921875-29.125-14.398437-29.125-30.839844zm125.785156 177.171875h-24.152343v-52.164062c0-6.902344-5.59375-12.5-12.5-12.5-6.902344 0-12.5 5.597656-12.5 12.5v52.164062h-91.476563v-52.164062c0-6.902344-5.601563-12.5-12.5-12.5-6.90625 0-12.507813 5.597656-12.507813 12.5v52.164062h-25.222656v-34.328125c0-20.210937 5.785156-39.886719 16.742188-56.882813 8.457031-13.125 22.832031-20.960937 38.449218-20.960937h28.273438v15.125c0 6.90625 5.601562 12.5 12.507812 12.5 6.902344 0 12.5-5.59375 12.5-12.5v-15.125h27.195313c15.617187 0 29.992187 7.835937 38.449219 20.960937 10.949218 16.996094 16.742187 36.671876 16.742187 56.882813zm0 0"/><path d="m208.984375 281.621094h215.867187c6.898438 0 12.5-5.601563 12.5-12.503906v-38.46875c0-6.902344-5.601562-12.5-12.5-12.5-6.90625 0-12.507812 5.597656-12.507812 12.5v25.96875h-24.144531v-52.164063c0-6.90625-5.601563-12.5-12.503907-12.5-6.898437 0-12.5 5.59375-12.5 12.5v52.164063h-91.480468v-52.164063c0-6.90625-5.59375-12.5-12.5-12.5-6.902344 0-12.5 5.59375-12.5 12.5v52.164063h-25.230469v-34.320313c0-20.222656 5.792969-39.894531 16.746094-56.890625 8.457031-13.125 22.832031-20.960938 38.445312-20.960938h28.28125v65.992188c0 6.90625 5.597657 12.5 12.5 12.5 6.90625 0 12.5-5.59375 12.5-12.5v-65.992188h27.203125c8.746094 0 17.261719 2.488282 24.632813 7.199219 5.8125 3.714844 13.546875 2.019531 17.261719-3.800781 3.71875-5.816406 2.015624-13.546875-3.800782-17.265625-9.511718-6.082031-20.261718-9.757813-31.417968-10.8125 6.003906-8.90625 9.515624-19.632813 9.515624-31.164063v-32.703124c0-.621094-.023437-1.226563-.042968-1.839844.007812-.261719.039062-.519532.03125-.777344-.453125-29.378906-24.71875-53.28125-54.101563-53.28125h-3.546875c-29.84375 0-54.121094 24.277344-54.121094 54.121094v1.464844c0 .101562-.011718.203124-.011718.3125v32.703124c0 11.492188 3.492187 22.179688 9.457031 31.070313-21.933594 1.738281-41.75 13.488281-53.800781 32.195313-13.5625 21.039062-20.730469 45.394531-20.730469 70.429687v46.820313c0 6.902343 5.597656 12.503906 12.5 12.503906zm108.472656-256.621094c12.808594 0 23.820313 7.835938 28.496094 18.96875-12.007813-.710938-23.433594 3.679688-35.417969 8.289062-2.273437.871094-4.601562 1.765626-6.984375 2.644532-.535156.199218-4.859375 1.550781-16.933593-.832032.949218-16.1875 14.414062-29.070312 30.839843-29.070312zm-30.898437 54.445312c4.386718.675782 8.410156 1.027344 12.054687 1.027344 5.253907 0 9.765625-.703125 13.582031-2.109375 2.5-.921875 4.933594-1.859375 7.3125-2.777343 11.089844-4.261719 20.664063-7.945313 27.828126-6.257813.335937.078125.671874.144531 1.015624.203125v19.070312c0 16.441407-12.910156 29.917969-29.125 30.84375h-3.542968c-16.214844-.925781-29.125-14.402343-29.125-30.84375zm0 0"/><path d="m318.425781 374.457031c-25.964843 0-47.085937 21.125-47.085937 47.085938 0 25.960937 21.121094 47.085937 47.085937 47.085937 25.960938 0 47.082031-21.125 47.082031-47.085937 0-25.960938-21.121093-47.085938-47.082031-47.085938zm0 69.171875c-12.179687 0-22.085937-9.910156-22.085937-22.085937s9.90625-22.085938 22.085937-22.085938c12.175781 0 22.082031 9.910157 22.082031 22.085938s-9.90625 22.085937-22.082031 22.085937zm0 0"/><path d="m304.566406 307.53125v40.625c0 6.902344 5.597656 12.5 12.5 12.5 6.90625 0 12.5-5.597656 12.5-12.5v-40.625c0-6.90625-5.59375-12.5-12.5-12.5-6.902344 0-12.5 5.59375-12.5 12.5zm0 0"/><path d="m444.84375 421.542969c0-6.902344-5.59375-12.503907-12.5-12.503907h-40.625c-6.902344 0-12.5 5.601563-12.5 12.503907 0 6.902343 5.597656 12.5 12.5 12.5h40.625c6.90625 0 12.5-5.597657 12.5-12.5zm0 0"/><path d="m241.089844 409.039062h-40.628906c-6.90625 0-12.5 5.601563-12.5 12.503907 0 6.902343 5.59375 12.5 12.5 12.5h40.628906c6.90625 0 12.5-5.597657 12.5-12.5 0-6.902344-5.59375-12.503907-12.5-12.503907zm0 0"/><path d="m128.425781 568.679688-.332031-.25c-5.488281-4.1875-13.335938-3.125-17.519531 2.367187-4.1875 5.488281-3.125 13.335937 2.367187 17.519531l.328125.246094c2.265625 1.726562 4.925781 2.5625 7.566407 2.5625 3.769531 0 7.492187-1.695312 9.953124-4.921875 4.183594-5.496094 3.125-13.335937-2.363281-17.523437zm0 0"/><path d="m407.800781 191.230469.324219.25c2.261719 1.71875 4.914062 2.542969 7.550781 2.542969 3.773438 0 7.503907-1.703126 9.964844-4.945313 4.175781-5.5 3.101563-13.339844-2.402344-17.515625l-.328125-.25c-5.496094-4.167969-13.339844-3.09375-17.511718 2.402344-4.175782 5.5-3.101563 13.339844 2.402343 17.515625zm0 0"/></svg>