<svg height="682pt" viewBox="-144 -21 682 682.66595" width="682pt" xmlns="http://www.w3.org/2000/svg"><path d="m381.492188 156.09375-184.074219-153.199219c-4.628907-3.851562-11.351563-3.863281-15.984375-.015625l-184.824219 153.257813c-4.058594 3.363281-5.570313 8.917969-3.785156 13.871093 1.792969 4.960938 6.496093 8.269532 11.769531 8.269532h62.328125v128.429687c0 6.914063 5.605469 12.515625 12.507813 12.515625 6.910156 0 12.511718-5.601562 12.511718-12.515625v-140.941406c0-6.910156-5.601562-12.507813-12.511718-12.507813h-40.148438l150.121094-124.484374 149.527344 124.449218-44.140626.035156c-.207031 0-.40625.019532-.605468.027344-.226563.011719-.449219.011719-.671875.035156-.203125.019532-.410157.0625-.613281.09375-.207032.03125-.421876.050782-.625.097657-.214844.042969-.414063.105469-.625.160156-.191407.046875-.386719.085937-.578126.144531-.203124.070313-.402343.152344-.605468.226563-.179688.0625-.363282.121093-.539063.199219-.222656.09375-.429687.207031-.644531.308593-.152344.074219-.304688.136719-.449219.21875-.222656.117188-.425781.253907-.640625.386719-.128906.082031-.265625.152344-.390625.238281-.214843.148438-.425781.3125-.628906.472657-.113281.085937-.226563.164062-.332031.246093-.203125.164063-.386719.347657-.578125.523438-.101563.097656-.214844.183593-.3125.285156-.171875.171875-.320313.351563-.484375.535156-.105469.117188-.21875.234375-.324219.355469-.148437.179688-.28125.371094-.417969.5625-.101562.128906-.207031.261719-.300781.398438-.132813.195312-.246094.402343-.363281.601562-.085938.144531-.183594.28125-.261719.433594-.097656.175781-.175781.367187-.265625.546875-.085938.179687-.183594.363281-.261719.546875-.070312.160156-.121093.332031-.1875.5-.078125.21875-.164062.429687-.234375.648437-.058594.183594-.097656.371094-.144531.554688-.054687.214843-.117187.425781-.160156.644531-.046875.203125-.066407.410156-.09375.617188-.035157.210937-.078125.414062-.097657.625-.019531.210937-.019531.429687-.035156.640624-.007812.214844-.027344.421876-.027344.632813v155.851563c0 6.90625 5.597657 12.511718 12.507813 12.511718s12.511719-5.605468 12.511719-12.511718v-143.351563l66.183594-.042969c5.265624-.003906 9.96875-3.3125 11.757812-8.261718 1.789062-4.953126.289062-10.5-3.757812-13.867188zm0 0"/><path d="m236.199219 167.363281c-5.988281-3.457031-13.632813-1.402343-17.089844 4.578125l-11.988281 20.769532c-3.457032 5.980468-1.40625 13.632812 4.574218 17.082031 1.972657 1.140625 4.121094 1.679687 6.246094 1.679687 4.320313 0 8.53125-2.238281 10.84375-6.253906l11.992188-20.765625c3.453125-5.980469 1.402344-13.632813-4.578125-17.089844zm0 0"/><path d="m230.71875 225.945312c2.1875 4.40625 6.613281 6.949219 11.21875 6.949219 1.867188 0 3.769531-.417969 5.554688-1.308593l21.476562-10.667969c6.183594-3.078125 8.710938-10.585938 5.632812-16.773438-3.074218-6.1875-10.582031-8.710937-16.773437-5.632812l-21.46875 10.667969c-6.191406 3.074218-8.710937 10.582031-5.640625 16.765624zm0 0"/><path d="m156.398438 213.960938c2.125 0 4.277343-.542969 6.246093-1.679688 5.980469-3.453125 8.03125-11.105469 4.578125-17.089844l-11.992187-20.769531c-3.457031-5.980469-11.101563-8.03125-17.089844-4.574219-5.980469 3.453125-8.03125 11.105469-4.574219 17.085938l11.988282 20.765625c2.3125 4.015625 6.523437 6.261719 10.84375 6.261719zm0 0"/><path d="m99.738281 206.628906c-3.070312 6.1875-.546875 13.691406 5.640625 16.769532l21.46875 10.667968c1.792969.890625 3.6875 1.3125 5.5625 1.3125 4.597656 0 9.023438-2.546875 11.210938-6.945312 3.074218-6.1875.550781-13.699219-5.636719-16.773438l-21.472656-10.667968c-6.1875-3.074219-13.695313-.554688-16.773438 5.636718zm0 0"/><path d="m71.085938 365.386719.386718.292969c2.261719 1.710937 4.917969 2.539062 7.546875 2.539062 3.78125 0 7.519531-1.710938 9.980469-4.953125 4.171875-5.507813 3.09375-13.355469-2.414062-17.527344l-.386719-.292969c-5.503907-4.171874-13.351563-3.09375-17.523438 2.414063s-3.09375 13.355469 2.410157 17.527344zm0 0"/><path d="m179.46875 431.0625.386719.292969c2.257812 1.710937 4.914062 2.539062 7.542969 2.539062 3.785156 0 7.519531-1.707031 9.980468-4.953125 4.175782-5.503906 3.097656-13.355468-2.410156-17.527344l-.386719-.292968c-5.503906-4.167969-13.355469-3.089844-17.523437 2.417968-4.175782 5.507813-3.097656 13.355469 2.410156 17.523438zm0 0"/><path d="m294.796875 614.980469h-45.214844v-86.925781c11.457031-7.289063 22.5625-18.585938 25.199219-21.339844.386719-.402344.738281-.828125 1.066406-1.269532 9.625-13.179687 14.710938-28.765624 14.710938-45.078124v-43.511719c0-21.59375-6.179688-42.601563-17.875-60.746094-9.601563-14.898437-24.835938-24.734375-41.964844-27.527344 4.289062-7.304687 6.757812-15.800781 6.757812-24.867187v-27.730469c0-1.019531-.042968-2.035156-.101562-3.039063.0625-.558593.101562-1.125.09375-1.695312-.195312-12.71875-5.226562-24.308594-14.160156-32.621094-8.980469-8.351562-21.015625-12.589844-33.957032-11.949218h-2.390624c-13.140626-.566407-25.3125 3.832031-34.3125 12.398437-8.882813 8.457031-13.773438 20.144531-13.773438 32.917969v3.703125c0 .089843-.011719.1875-.011719.285156v27.730469c0 9.007812 2.441407 17.453125 6.679688 24.726562-17.488281 2.597656-33.085938 12.515625-42.84375 27.667969-11.699219 18.148437-17.882813 39.152344-17.882813 60.746094v43.511719c0 6.292968.777344 12.578124 2.316406 18.671874.242188.964844.605469 1.867188 1.042969 2.714844 1.34375 6.738282 7.875 28.457032 37.738281 46.769532l-.105468 86.457031h-44.664063c-6.902343 0-12.507812 5.601562-12.507812 12.507812 0 6.910157 5.605469 12.511719 12.507812 12.511719h213.652344c6.910156 0 12.511719-5.601562 12.511719-12.511719 0-6.90625-5.601563-12.507812-12.511719-12.507812zm-156.285156-223.964844c-6.90625 0-12.511719 5.601563-12.511719 12.507813v40.738281h-15.953125v-27.191407c0-16.773437 4.800781-33.097656 13.886719-47.199218 6.820312-10.578125 18.40625-16.898438 30.996094-16.898438h19.78125v20.25c0 6.910156 5.597656 12.507813 12.507812 12.507813s12.511719-5.597657 12.511719-12.507813v-20.25h20.730469c12.589843 0 24.175781 6.320313 30.992187 16.898438 9.089844 14.101562 13.890625 30.421875 13.890625 47.199218v27.191407h-15.957031v-40.738281c0-6.90625-5.601563-12.507813-12.507813-12.507813s-12.511718 5.601563-12.511718 12.507813v40.738281h-73.34375v-40.738281c0-6.90625-5.605469-12.507813-12.511719-12.507813zm111.070312 105.28125v-27.015625h15.179688c-1.296875 7.4375-4.21875 14.476562-8.640625 20.742188-1.855469 1.898437-4.117188 4.078124-6.539063 6.273437zm-61.410156-244.59375c7.957031 0 15.019531 3.867187 19.449219 9.804687-8.945313.566407-17.578125 3.878907-26.003906 7.121094-1.917969.734375-3.886719 1.492188-5.898438 2.234375-.148438.054688-2.953125 1.011719-11.179688-.390625 2.507813-10.738281 12.136719-18.769531 23.632813-18.769531zm-24.289063 43.960937c2.976563.378907 5.75.574219 8.320313.574219 4.695313 0 8.730469-.632812 12.167969-1.898437 2.125-.785156 4.199218-1.582032 6.230468-2.363282 8.769532-3.375 16.382813-6.292968 21.851563-5.339843v17.078125c0 12.25-9.125 22.382812-20.933594 24.027344h-6.699219c-11.804687-1.644532-20.929687-11.777344-20.929687-24.027344v-8.050782zm-51.210937 180.972657.035156.261719-.984375.117187c.105469-1.335937.019532-2.71875-.332031-4.097656-.304687-1.199219-.546875-2.414063-.761719-3.636719h15.355469l-.035156 28.058594c-11.464844-10.820313-13.1875-20.167969-13.277344-20.703125zm111.890625 51.359375v86.984375h-24.363281v-93.574219c0-6.90625-5.601563-12.511719-12.511719-12.511719s-12.507812 5.605469-12.507812 12.511719v93.574219h-24.351563l.113281-91.171875c.3125-1.585938.300782-3.195313.003906-4.746094l.058594-49.78125h73.558594zm0 0"/></svg>