<?xml version="1.0" encoding="utf-8"?>
<svg version="1.1" xmlns="http://www.w3.org/2000/svg" xmlns:xlink="http://www.w3.org/1999/xlink" x="0px" y="0px" viewBox="0 0 1000 1000" enable-background="new 0 0 1000 1000" xml:space="preserve">
    <g>
        <g transform="translate(0,511) scale(0.1,-0.1)">
            <path d="M4705.8,4985.3c-557.6-65.4-1047.8-310.5-1331.7-669.9c-132.8-169.5-269.6-447.3-328.8-674c-49-179.7-53.1-243.1-63.3-692.4c-8.2-494.3-8.2-494.3-57.2-527c-100.1-65.4-136.8-181.8-147.1-451.4c-8.2-204.2-2-275.7,34.7-418.7c71.5-286,222.6-571.9,433-815c63.3-75.6,112.3-159.3,140.9-245.1c271.7-814.9,992.7-1372.6,1703.5-1321.5c661.8,47,1276.6,580.1,1523.7,1321.5c28.6,85.8,77.6,169.5,140.9,245.1c210.4,243.1,361.5,529,433,815c59.2,234.9,51.1,623-18.4,751.6c-24.5,47-63.3,98-87.8,116.4c-42.9,28.6-44.9,42.9-40.8,324.7c8.2,531.1-89.9,921.2-283.9,1143.8c-55.2,63.3-87.8,126.6-112.3,218.5c-49,187.9-122.5,320.7-243.1,439.1C6082.5,4863.6,5316.6,5061.8,4705.9,4992.3z"/>
            <path d="M2906.4-551c-1386.9-574-1728-772.1-2071.1-1205.1c-386-484.1-674-1295-729.2-2038.4c-20.4-292.1-18.4-296.2,477.9-467.7c2026.2-698.5,6805.6-698.5,8831.8,0c496.3,171.6,498.4,175.6,477.9,467.7c-34.7,457.5-149.1,919.1-335,1356.2c-296.2,688.3-647.5,1056-1321.5,1384.8c-529,257.4-1558.4,686.3-1582.9,659.7c-8.2-8.2-34.7-98-61.3-200.2c-94-375.8-328.8-1174.4-439.1-1497.1c-196.1-578-547.4-1399.1-582.1-1358.3c-14.3,16.3-163.4,925.3-163.4,990.6c0,18.4,18.4,38.8,38.8,47c53.1,16.3,53.1,18.4,155.2,549.4c83.8,428.9,87.8,473.9,61.3,516.8l-30.6,47H5000h-633.2l-30.6-47c-26.5-42.9-22.5-87.8,59.2-514.7c51.1-259.4,96-486.1,104.2-504.5c8.2-20.4,30.6-40.9,53.1-47c22.5-8.2,38.8-30.6,36.8-57.2c-2-104.2-155.2-984.5-169.5-984.5c-22.5,0-243.1,475.9-369.7,796.6c-194,496.3-392.2,1119.3-592.3,1868.9c-59.2,218.6-114.4,398.3-124.6,402.4C3323.1-383.6,3131.1-457.1,2906.4-551z"/>
        </g>
    </g>
</svg>