<svg xmlns="http://www.w3.org/2000/svg" viewBox="0 0 17.52 19.4">
    <defs>
        <style>.cls-1{fill:#999;}</style>
    </defs>
    <g id="Layer_2" data-name="Layer 2">
        <g id="Layer_1-2" data-name="Layer 1">
            <path class="cls-1"
                  d="M16.46,8.6,8.33,16.73a4,4,0,0,1-5.66-5.66l8.84-8.84A2.5,2.5,0,1,1,15,5.77L7.62,13.19a1,1,0,1,1-1.41-1.41l6.72-6.72L11.87,4,5.15,10.72a2.5,2.5,0,0,0,3.54,3.54l7.42-7.42a4,4,0,0,0-5.66-5.66L1.61,10a5.5,5.5,0,0,0,7.78,7.78l8.13-8.13Z"/>
        </g>
    </g>
</svg>