<svg xmlns="http://www.w3.org/2000/svg" viewBox="0 0 33.27 30.26">
    <defs>
        <style>
            .energy { fill: #385eff; }
        </style>
    </defs>
    <g class="energy">
        <path class="cls-1" d="M14,21.09l3.45-8.31L11.1,13.89l4-9.32,6.65-1L16.58,9.8,22.82,9ZM28.78,4.58A6.75,6.75,0,0,0,24.71.84,6.18,6.18,0,0,0,19.34.77c-3.15-1.35-7.69-1-10,1.67A7,7,0,0,0,4.64,3.93,5.69,5.69,0,0,0,2.64,8C-.09,9.44-.56,14.19.57,16.7c1.49,3.38,6.13,4.28,9.37,3a3.75,3.75,0,0,0,.69,1.82,4.58,4.58,0,0,0,3.23,1.63,4.87,4.87,0,0,0,3.31-.32,9,9,0,0,0,3.23.18.78.78,0,0,0,.15.21,3.6,3.6,0,0,0,1.23.77c.83,1.74.22,3.7-.44,5.51-.18.59.29.59.88.66a1.2,1.2,0,0,1,.21,0c1.89.15,2,.07,2.87-1.71s1.6-3.66,2.58-5.4a6.25,6.25,0,0,0,4.1-6.5,7.4,7.4,0,0,0,1.24-3.77c.4-3.59-1.12-6.87-4.43-8.25"/>
    </g>
</svg>