<?xml version="1.0" encoding="iso-8859-1"?>

<!DOCTYPE svg PUBLIC "-//W3C//DTD SVG 1.1//EN" "http://www.w3.org/Graphics/SVG/1.1/DTD/svg11.dtd">
<svg xmlns="http://www.w3.org/2000/svg" version="1.1" id="Capa_1" x="0px" y="0px"
     viewBox="0 0 978 978" style="enable-background:new 0 0 978 978;">
    <g>
        <path
            d="M969,579V60c0-33.1-26.899-60-60-60H69C35.9,0,9,26.9,9,60v519c0,33.1,26.9,60,60,60h840C942.2,639,969,612.2,969,579z"
            fill="#6fbe10"/>
        <path d="M888,761c0-28.2-22.8-51-51-51H141c-28.2,0-51,22.8-51,51s22.8,51,51,51h696C865.2,812,888,789.1,888,761z"
              fill="#6fbe10"/>
        <path d="M203.9,876c-28.2,0-51,22.8-51,51s22.8,51,51,51h590.2c28.199,0,31-22.8,31-51s-22.801-51-51-51H203.9z"
              fill="#6fbe10"/>
    </g>
</svg>
