<svg xmlns="http://www.w3.org/2000/svg" viewBox="0 0 24.84 30.12">
    <defs>
        <style>
            .life { fill: #a51732; }
        </style>
    </defs>
    <g class="life">
        <path class="cls-1" d="M11.38,10.94C12.7,10,15,4.85,15.08,0H7.71c.21,2.08,1,9,3.68,10.94"/>
        <path class="cls-1" d="M24,9.2A4.49,4.49,0,0,0,22.1,6.83,19,19,0,0,1,17,16l2.27,2.37-.32.32-.34.32-2.31-2.41a7.58,7.58,0,0,1-3.13,1.74l-.16,0-.69-.47A15.28,15.28,0,0,0,21.22,6.48a27,27,0,0,0,.36-5.09H16.1c-.26,5.54-2.95,10-4.75,11-3.79-2.95-4.12-8.23-4.55-11H1.28a34.88,34.88,0,0,0,2.36,9c-.16,0-.33.08-.48.14s-.37.13-.55.22A4.31,4.31,0,0,0,.07,15.52c1.13,7.17,10,16.14,16.6,14.38S26.46,15.57,24,9.2"/>
    </g>
</svg>