<?xml version="1.0" encoding="utf-8"?>

<!DOCTYPE svg PUBLIC "-//W3C//DTD SVG 1.1//EN" "http://www.w3.org/Graphics/SVG/1.1/DTD/svg11.dtd">
<svg version="1.1" xmlns="http://www.w3.org/2000/svg" xmlns:xlink="http://www.w3.org/1999/xlink" x="0px" y="0px"
     viewBox="0 0 1000 1000" enable-background="new 0 0 1000 1000">
    <g transform="translate(0.000000,512.000000) scale(0.100000,-0.100000)">
        <path fill="#6fbe10"
              d="M7471,5002.3c-178.2-23-442.7-103.5-626.7-189.7c-264.5-124.6-561.6-348.8-601.8-456.1c-26.8-67.1-21.1-191.7,9.6-249.2c34.5-63.3,2687-2711.9,2746.4-2742.6c57.5-28.8,189.7-26.8,253,5.7c118.8,61.3,322,333.5,444.6,594.1c272.2,580.7,272.2,1243.8-1.9,1826.5C9301.3,4628.6,8396.7,5123.1,7471,5002.3z"/>
        <path fill="#6fbe10"
              d="M5439.4,3775.7c-53.7-15.3-492.6-444.6-2114-2064.1C1071.6-540.4,1148.2-454.1,927.8-919.9C676.8-1445,531.1-2000.8,312.6-3246.6c-59.4-337.3-132.2-753.2-164.8-925.7c-36.4-197.4-53.7-335.4-46-373.7c21.1-93.9,95.8-178.2,189.7-214.7c82.4-30.7,92-30.7,473.4,36.4c214.6,38.3,642.1,107.3,946.8,157.1c1201.7,189.7,1694.2,314.3,2204.1,563.5c440.8,214.7,385.2,164.8,2280.7,2043C8617.1,439,8630.5,452.4,8659.3,557.8c47.9,180.2,118.8,99.7-1481.5,1701.9c-803.1,805-1481.5,1473.8-1508.3,1487.3C5596.6,3785.3,5514.2,3794.9,5439.4,3775.7z M5863,2315.3c138-92,191.7-264.5,124.6-392.9c-15.3-28.7-699.5-722.5-1519.8-1540.9C2848.2-1236.1,2942.1-1153.7,2762-1119.2c-93.9,17.2-208.9,132.2-226.2,226.2c-34.5,180.2-115,86.3,1500.7,1705.7c818.4,822.2,1516,1504.5,1546.7,1519.8C5673.3,2372.8,5788.3,2365.1,5863,2315.3z M7108.7,1107.9c138-92,191.7-264.5,124.6-392.9C7218,686.2,6533.8-7.6,5713.5-825.9C4094-2443.5,4187.9-2361.1,4007.7-2326.6c-93.9,17.2-208.9,132.2-226.2,226.2c-34.5,180.2-115,88.2,1491.1,1698.1c814.5,814.5,1506.4,1498.8,1537.1,1517.9C6890.3,1167.3,7026.3,1163.5,7108.7,1107.9z M2679.6-2211.6c605.6-605.6,1096.3-1103.9,1092.4-1107.8c-65.2-61.3-458.1-205.1-766.6-281.7c-205.1-51.8-983.2-191.7-1065.6-191.7c-23,0-203.2,166.7-454.2,417.8l-419.7,419.7l51.8,285.6c76.7,437,178.2,875.9,258.7,1119.3c80.5,245.3,164.8,440.8,185.9,440.8C1571.8-1109.6,2073.9-1606,2679.6-2211.6z"/>
    </g>
</svg>