<svg xmlns="http://www.w3.org/2000/svg" viewBox="0 0 16.0001 15.8035">
  <defs>
    <style>
      .pencil {
          fill: #333;
      }
    </style>
  </defs>

  <g>
    <path class="pencil" d="M13,.1418a1.6771,1.6771,0,0,0-1.655.144,1.0827,1.0827,0,0,0-.083.072l-9.819,9.819a1.0533,1.0533,0,0,0-.2671.436l1.329.024Z"/>
    <path class="pencil" d="M14.6526,1.1553A5.25,5.25,0,0,0,14.0145.65L3.3315,11.3333l-.0341,1.295,2.198-.002-.02,2.023a1.113,1.113,0,0,0,.251-.189l9.82-9.819a1.0209,1.0209,0,0,0,.114-.134c.019-.017.0391-.032.057-.051.637-.688.161-2.166-1.0649-3.301"/>
    <path class="pencil" d="M.614,12.9835,0,15.8035l2.778-.554A3.33,3.33,0,0,0,.614,12.9835"/>
  </g>
</svg>
