<svg xmlns="http://www.w3.org/2000/svg" viewBox="0 0 16.0001 15.8035">
  <defs>
    <style>
      .cls-1 {
        fill: #ccc;
      }
    </style>
  </defs>
  <title>icpencil</title>
  <g id="Layer_2" data-name="Layer 2">
    <g id="Layer_1-2" data-name="Layer 1">
      <g>
        <path class="cls-1" d="M13.0005.1418a1.6772,1.6772,0,0,0-1.655.1441,1.0772,1.0772,0,0,0-.083.0719l-9.819,9.8191a1.0522,1.0522,0,0,0-.2671.4359l1.329.0241Z"/>
        <path class="cls-1" d="M14.6526,1.1551A5.2564,5.2564,0,0,0,14.0145.65L3.3315,11.3332l-.034,1.295,2.198-.0021-.02,2.0231a1.1174,1.1174,0,0,0,.251-.189l9.82-9.819a1.1071,1.1071,0,0,0,.115-.134c.0181-.017.0381-.0321.056-.051.637-.688.161-2.1661-1.0649-3.3011"/>
        <path class="cls-1" d="M.614,12.9835,0,15.8035,2.778,15.25A3.33,3.33,0,0,0,.614,12.9835"/>
      </g>
    </g>
  </g>
</svg>
