<?xml version="1.0" standalone="no"?><!-- Generator: Gravit.io -->
<svg xmlns="http://www.w3.org/2000/svg" style="isolation:isolate" viewBox="8.985 -12.148 332.933 275.743">
    <g>
        <path
            d=" M 231.465 40.534 C 188.299 83.557 164.896 106.883 159.881 111.883 C 155.789 115.968 149.152 115.968 145.051 111.883 C 143.005 109.845 141.985 107.171 141.985 104.497 C 141.985 101.822 143.005 99.14 145.051 97.102 C 154.003 88.182 225.587 16.835 234.53 7.916 C 238.631 3.831 245.268 3.831 249.361 7.916 C 258.313 16.835 329.896 88.182 338.849 97.102 C 342.941 101.186 342.941 107.799 338.849 111.883 C 334.748 115.968 328.111 115.968 324.018 111.883 L 324.018 111.883 C 319.003 106.883 295.594 83.557 252.435 40.535 C 252.435 73.073 252.435 210.624 252.435 253.143 C 252.435 258.915 247.738 263.595 241.95 263.595 C 236.161 263.595 231.465 258.915 231.465 253.143 C 231.465 231.883 231.465 77.582 231.465 40.534 Z  M 105.256 25.396 C 106.626 25.396 107.816 24.899 108.819 23.896 C 109.822 22.893 110.327 21.711 110.327 20.349 C 110.327 19.338 110.327 11.25 110.327 10.248 C 110.327 8.878 109.822 7.696 108.819 6.693 C 107.816 5.69 106.626 5.193 105.256 5.193 C 96.133 5.193 23.171 5.193 14.056 5.193 C 12.678 5.193 11.496 5.69 10.493 6.693 C 9.491 7.696 8.985 8.878 8.985 10.248 C 8.985 11.25 8.985 19.338 8.985 20.349 C 8.985 21.711 9.491 22.893 10.493 23.896 C 11.496 24.899 12.678 25.396 14.056 25.396 C 32.295 25.396 96.133 25.396 105.256 25.396 L 105.256 25.396 L 105.256 25.396 L 105.256 25.396 Z  M 135.659 55.701 C 137.028 55.701 138.219 55.195 139.222 54.201 C 140.224 53.198 140.722 52.016 140.722 50.646 C 140.722 49.635 140.722 41.555 140.722 40.544 C 140.722 39.175 140.224 37.992 139.222 36.998 C 138.219 35.995 137.028 35.497 135.659 35.497 C 123.503 35.497 26.212 35.497 14.056 35.497 C 12.678 35.497 11.496 35.995 10.493 36.998 C 9.491 37.992 8.985 39.175 8.985 40.544 C 8.985 41.555 8.985 49.635 8.985 50.646 C 8.985 52.016 9.491 53.198 10.493 54.201 C 11.496 55.195 12.678 55.701 14.056 55.701 C 38.377 55.701 123.503 55.701 135.659 55.701 L 135.659 55.701 L 135.659 55.701 L 135.659 55.701 Z  M 115.39 85.997 C 116.76 85.997 117.95 85.5 118.953 84.497 C 119.956 83.503 120.461 82.312 120.461 80.951 C 120.461 79.94 120.461 71.86 120.461 70.849 C 120.461 69.479 119.956 68.297 118.953 67.294 C 117.95 66.3 116.76 65.794 115.39 65.794 C 105.256 65.794 24.19 65.794 14.056 65.794 C 12.678 65.794 11.496 66.3 10.493 67.294 C 9.491 68.297 8.985 69.479 8.985 70.849 C 8.985 71.86 8.985 79.94 8.985 80.951 C 8.985 82.32 9.491 83.503 10.493 84.497 C 11.496 85.5 12.678 85.997 14.056 85.997 C 34.325 85.997 105.256 85.997 115.39 85.997 L 115.39 85.997 L 115.39 85.997 Z "
            fill-rule="evenodd" fill="rgb(111,190,16)"/>
    </g>
</svg>
