<?xml version="1.0" standalone="no"?><!-- Generator: Gravit.io -->
<svg xmlns="http://www.w3.org/2000/svg" style="isolation:isolate" viewBox="8.985 -12.148 332.933 275.743">
    <g>
        <path
            d=" M 231.465 227.913 C 188.299 184.89 164.896 161.564 159.881 156.564 C 155.789 152.479 149.152 152.479 145.051 156.564 C 143.005 158.602 141.985 161.276 141.985 163.951 C 141.985 166.625 143.005 169.307 145.051 171.345 C 154.003 180.265 225.587 251.612 234.53 260.531 C 238.631 264.616 245.268 264.616 249.361 260.531 C 258.313 251.612 329.896 180.265 338.849 171.345 C 342.941 167.261 342.941 160.649 338.849 156.564 C 334.748 152.479 328.111 152.479 324.018 156.564 L 324.018 156.564 C 319.003 161.564 295.594 184.89 252.435 227.912 C 252.435 195.375 252.435 57.823 252.435 15.304 C 252.435 9.532 247.738 4.852 241.95 4.852 C 236.161 4.852 231.465 9.532 231.465 15.304 C 231.465 36.564 231.465 190.865 231.465 227.913 Z  M 105.256 243.051 C 106.626 243.051 107.816 243.549 108.819 244.551 C 109.822 245.554 110.327 246.736 110.327 248.098 C 110.327 249.109 110.327 257.197 110.327 258.2 C 110.327 259.569 109.822 260.751 108.819 261.754 C 107.816 262.757 106.626 263.254 105.256 263.254 C 96.133 263.254 23.171 263.254 14.056 263.254 C 12.678 263.254 11.496 262.757 10.493 261.754 C 9.491 260.751 8.985 259.569 8.985 258.2 C 8.985 257.197 8.985 249.109 8.985 248.098 C 8.985 246.736 9.491 245.554 10.493 244.551 C 11.496 243.549 12.678 243.051 14.056 243.051 C 32.295 243.051 96.133 243.051 105.256 243.051 L 105.256 243.051 L 105.256 243.051 L 105.256 243.051 Z  M 135.659 212.746 C 137.028 212.746 138.219 213.252 139.222 214.247 C 140.224 215.249 140.722 216.432 140.722 217.801 C 140.722 218.812 140.722 226.892 140.722 227.903 C 140.722 229.273 140.224 230.455 139.222 231.449 C 138.219 232.452 137.028 232.95 135.659 232.95 C 123.503 232.95 26.212 232.95 14.056 232.95 C 12.678 232.95 11.496 232.452 10.493 231.449 C 9.491 230.455 8.985 229.273 8.985 227.903 C 8.985 226.892 8.985 218.812 8.985 217.801 C 8.985 216.432 9.491 215.249 10.493 214.247 C 11.496 213.252 12.678 212.746 14.056 212.746 C 38.377 212.746 123.503 212.746 135.659 212.746 L 135.659 212.746 L 135.659 212.746 L 135.659 212.746 Z  M 115.39 182.45 C 116.76 182.45 117.95 182.947 118.953 183.95 C 119.956 184.945 120.461 186.135 120.461 187.496 C 120.461 188.507 120.461 196.587 120.461 197.598 C 120.461 198.968 119.956 200.15 118.953 201.153 C 117.95 202.147 116.76 202.653 115.39 202.653 C 105.256 202.653 24.19 202.653 14.056 202.653 C 12.678 202.653 11.496 202.147 10.493 201.153 C 9.491 200.15 8.985 198.968 8.985 197.598 C 8.985 196.587 8.985 188.507 8.985 187.496 C 8.985 186.127 9.491 184.945 10.493 183.95 C 11.496 182.947 12.678 182.45 14.056 182.45 C 34.325 182.45 105.256 182.45 115.39 182.45 L 115.39 182.45 L 115.39 182.45 Z "
            fill-rule="evenodd" fill="rgb(111,190,16)"/>
    </g>
</svg>
