<?xml version="1.0" standalone="no"?><!-- Generator: Gravit.io -->
<svg xmlns="http://www.w3.org/2000/svg" style="isolation:isolate" viewBox="8.985 4.852 350.933 284.74" >
    <g>
        <g>
            <path
                d=" M 105.256 126.396 C 106.626 126.396 107.816 125.899 108.819 124.896 C 109.822 123.893 110.327 122.711 110.327 121.349 C 110.327 120.338 110.327 112.25 110.327 111.248 C 110.327 109.878 109.822 108.696 108.819 107.693 C 107.816 106.69 106.626 106.193 105.256 106.193 C 96.133 106.193 23.171 106.193 14.056 106.193 C 12.678 106.193 11.496 106.69 10.493 107.693 C 9.491 108.696 8.985 109.878 8.985 111.248 C 8.985 112.25 8.985 120.338 8.985 121.349 C 8.985 122.711 9.491 123.893 10.493 124.896 C 11.496 125.899 12.678 126.396 14.056 126.396 C 32.295 126.396 96.133 126.396 105.256 126.396 L 105.256 126.396 Z  M 135.659 156.701 C 137.028 156.701 138.219 156.195 139.222 155.201 C 140.224 154.198 140.722 153.016 140.722 151.646 C 140.722 150.635 140.722 142.555 140.722 141.544 C 140.722 140.175 140.224 138.992 139.222 137.998 C 138.219 136.995 137.028 136.497 135.659 136.497 C 123.503 136.497 26.212 136.497 14.056 136.497 C 12.678 136.497 11.496 136.995 10.493 137.998 C 9.491 138.992 8.985 140.175 8.985 141.544 C 8.985 142.555 8.985 150.635 8.985 151.646 C 8.985 153.016 9.491 154.198 10.493 155.201 C 11.496 156.195 12.678 156.701 14.056 156.701 C 38.377 156.701 123.503 156.701 135.659 156.701 L 135.659 156.701 Z  M 115.39 186.997 C 116.76 186.997 117.95 186.5 118.953 185.497 C 119.956 184.503 120.461 183.312 120.461 181.951 C 120.461 180.94 120.461 172.86 120.461 171.849 C 120.461 170.479 119.956 169.297 118.953 168.294 C 117.95 167.3 116.76 166.794 115.39 166.794 C 105.256 166.794 24.19 166.794 14.056 166.794 C 12.678 166.794 11.496 167.3 10.493 168.294 C 9.491 169.297 8.985 170.479 8.985 171.849 C 8.985 172.86 8.985 180.94 8.985 181.951 C 8.985 183.32 9.491 184.503 10.493 185.497 C 11.496 186.5 12.678 186.997 14.056 186.997 C 34.325 186.997 105.256 186.997 115.39 186.997 Z "
                fill-rule="evenodd" fill="rgb(111,190,16)"/>
            <g>
                <g>
                    <g/>
                    <g/>
                </g>
                <path
                    d=" M 270.398 253.952 C 270.424 253.686 270.435 253.415 270.435 253.143 C 270.435 210.624 270.435 73.073 270.435 40.535 C 313.594 83.557 337.003 106.883 342.018 111.883 C 346.111 115.968 352.748 115.968 356.849 111.883 C 360.941 107.799 360.941 101.186 356.849 97.102 C 347.896 88.182 276.313 16.835 267.361 7.916 C 263.268 3.831 256.631 3.831 252.53 7.916 C 243.587 16.835 172.003 88.182 163.051 97.102 C 161.005 99.14 159.985 101.822 159.985 104.497 C 159.985 107.171 161.005 109.845 163.051 111.883 C 167.152 115.968 173.789 115.968 177.881 111.883 C 182.896 106.883 206.299 83.557 249.465 40.534 C 249.465 77.582 249.465 231.883 249.465 253.143 C 249.465 253.412 249.475 253.679 249.501 253.942 C 206.323 210.901 182.902 187.563 177.885 182.562 C 173.793 178.477 167.156 178.477 163.055 182.562 C 158.962 186.647 158.962 193.259 163.055 197.343 C 172.007 206.263 243.591 277.61 252.543 286.529 C 256.636 290.614 263.272 290.614 267.373 286.529 C 276.317 277.61 347.901 206.263 356.853 197.343 C 358.899 195.305 359.918 192.623 359.918 189.948 C 359.918 187.274 358.899 184.6 356.853 182.562 C 352.752 178.477 346.115 178.477 342.022 182.562 C 337.006 187.564 313.588 210.905 270.398 253.952 Z  M 260.759 263.558 C 260.493 263.584 260.223 263.595 259.95 263.595 C 259.68 263.595 259.413 263.585 259.149 263.559 C 259.325 263.735 259.639 264.047 259.954 264.361 C 260.269 264.047 260.583 263.734 260.759 263.558 Z "
                    fill-rule="evenodd" fill="rgb(111,189,16)"/>
            </g>
        </g>
    </g>
</svg>
