<?xml version="1.0" encoding="UTF-8" standalone="no"?>
<!DOCTYPE svg PUBLIC "-//W3C//DTD SVG 1.1//EN" "http://www.w3.org/Graphics/SVG/1.1/DTD/svg11.dtd">
<svg version="1.1" xmlns="http://www.w3.org/2000/svg" xmlns:xlink="http://www.w3.org/1999/xlink"
     preserveAspectRatio="xMidYMid meet"
     viewBox="55.42703639976821 2.185687259397536 531.1459272004636 602.6286254812051">
    <defs>
        <path d="M56.43 601.81L56.43 438.07L583.57 438.07L583.57 601.81L56.43 601.81Z" id="b6Mh2ToeOg"></path>
        <path
            d="M459.7 257.1C454.15 251.55 444.91 251.55 439.37 257.1C432.42 264.05 397.71 298.77 335.21 361.26C335.21 155.04 335.21 40.48 335.21 17.57C335.2 9.55 328.83 3.19 320.82 3.19C312.81 3.19 306.23 9.55 306.23 17.57C306.23 40.48 306.23 155.04 306.23 361.26C243.86 298.77 209.21 264.05 202.28 257.1C196.53 251.55 187.27 251.55 181.74 257.1C175.99 262.85 175.99 272.1 181.74 277.64C194.62 290.53 297.66 393.57 310.55 406.45C316.1 412.2 325.34 412.2 330.88 406.45C339.47 397.87 382.41 354.93 459.7 277.64C463.53 267.78 463.53 260.94 459.7 257.1Z"
            id="cav9Mv8oQ"></path>
    </defs>
    <g>
        <g>
            <use xlink:href="#b6Mh2ToeOg" opacity="1" fill="#6fbd10" fill-opacity="1"></use>
        </g>
        <g>
            <use xlink:href="#cav9Mv8oQ" opacity="1" fill="#6fbd10" fill-opacity="1"></use>
        </g>
    </g>
</svg>
