<?xml version="1.0" encoding="iso-8859-1"?>
<!-- Generator: Adobe Illustrator 18.0.0, SVG Export Plug-In . SVG Version: 6.00 Build 0)  -->
<!DOCTYPE svg PUBLIC "-//W3C//DTD SVG 1.1//EN" "http://www.w3.org/Graphics/SVG/1.1/DTD/svg11.dtd">
<svg version="1.1" id="Capa_1" xmlns="http://www.w3.org/2000/svg" xmlns:xlink="http://www.w3.org/1999/xlink" x="0px" y="0px"
	 viewBox="0 0 472.927 472.927" style="enable-background:new 0 0 472.927 472.927;" xml:space="preserve">
<path style="fill:#6fbd10;" d="M431.623,0H41.304C18.49,0,0,18.49,0,41.304v124.867v265.451c0,22.814,18.49,41.305,41.304,41.305
	h265.452h124.867c22.814,0,41.304-18.49,41.304-41.305V41.304C472.927,18.49,454.437,0,431.623,0z M41.304,441.397
	c-5.388,0-9.775-4.387-9.775-9.775V197.699h243.699v243.698H41.304z M441.398,431.622c0,5.389-4.387,9.775-9.775,9.775H306.756
	V187.739l51.472-51.465l33.846,33.838c1.855,1.863,4.649,2.416,7.073,1.417c2.425-1.001,4.003-3.372,4.003-6.005l0.008-89.982
	c0-3.572-2.902-6.48-6.489-6.48l-89.998-0.016c-2.625,0-4.996,1.586-5.997,4.003c-1.007,2.433-0.454,5.218,1.402,7.081
	l33.853,33.854l-52.181,52.188H31.529V41.304c0-5.388,4.387-9.775,9.775-9.775h390.318c5.388,0,9.775,4.388,9.775,9.775V431.622z"/>
<g>
</g>
<g>
</g>
<g>
</g>
<g>
</g>
<g>
</g>
<g>
</g>
<g>
</g>
<g>
</g>
<g>
</g>
<g>
</g>
<g>
</g>
<g>
</g>
<g>
</g>
<g>
</g>
<g>
</g>
</svg>
