<svg xmlns="http://www.w3.org/2000/svg" viewBox="0 0 226.699 207.6209">
  <defs>
    <style>
      .cls-1 {
        fill: #d1d3d4;
      }

      .cls-2 {
        fill: #65ce21;
      }
    </style>
  </defs>
  <title>Personnel reserve</title>
  <g id="Layer_2" data-name="Layer 2">
    <g id="Layer_2-2" data-name="Layer 2">
      <g>
        <path class="cls-1" d="M11.7708,52.9354c1.6107,12.2839,6.1354,24.4738,9.0159,36.53,2.8985,12.1317,5.3519,24.3378,7.2414,36.67a420.7846,420.7846,0,0,1,4.5043,78.7589,2.7384,2.7384,0,0,0,3.4393,2.62,338.9711,338.9711,0,0,1,62.289-12.8764c3.3021-.3786,3.402-5.5715,0-5.2606A311.8367,311.8367,0,0,0,34.5272,202.274l3.4392,2.62a423.1177,423.1177,0,0,0-4.2344-77.7645,383.1667,383.1667,0,0,0-7.8392-39.0716c-3.035-11.8059-6.1245-25.0189-12.3625-35.599-.4382-.743-1.8873-.4981-1.76.4766Z"/>
        <path class="cls-1" d="M.0018,42.8786c3.74,11.672,9.1239,22.78,12.8448,34.4981,3.73,11.7484,6.3849,23.7432,9.0261,35.7689.186.8471,1.38.4628,1.2681-.35a210.972,210.972,0,0,0-8.9721-37.0592C10.5223,64.6528,6.4778,52.6813.0634,42.8526c-.02-.0306-.0738-.012-.0616.026Z"/>
        <path class="cls-1" d="M127.1269,178.0089c6.8511.636,13.8465-.553,20.7-.94,6.9143-.39,13.91-.1057,20.7952-.7343a1.316,1.316,0,0,0,0-2.63c-7.2671-.6438-14.834.0976-22.0925.6855-6.4931.5259-13.3151.8749-19.4653,3.1553a.2373.2373,0,0,0,.0627.4637Z"/>
        <path class="cls-1" d="M136.1137,171.3234c10.61.2542,21.208-1.3407,31.8453-1.2452,2.54.0228,2.5423-3.99,0-3.9454-10.62.1839-22.0094.7723-31.8963,5.0021-.0978.0418-.0407.1863.051.1885Z"/>
        <path class="cls-1" d="M208.4442,129.1485a70.6358,70.6358,0,0,1-8.4644,22.876c-.4492.809.67,1.7628,1.324,1.0216a31.402,31.402,0,0,0,7.1735-23.8931c-.0021-.017-.03-.0251-.0331-.0045Z"/>
        <path class="cls-1" d="M213.7249,133.4569c-1.06,3.0521-1.8662,6.1721-2.8309,9.2533a90.8677,90.8677,0,0,1-4.1167,9.74c-.3979.8952.7208,2.0265,1.4829,1.1442,4.5489-5.2665,5.5328-13.4279,5.4973-20.1327a.0167.0167,0,0,0-.0326-.0044Z"/>
        <path class="cls-1" d="M190.4873,120.4444a50.9791,50.9791,0,0,1-4.917,27.1371.6412.6412,0,0,0,1.1064.6467A32.8115,32.8115,0,0,0,190.52,120.44c-.0053-.0169-.0343-.015-.0326.0044Z"/>
        <path class="cls-1" d="M194.7966,117.9944c-.1971,5.422.1294,10.732-.7261,16.1269-.7557,4.765-2.5878,9.0762-3.9347,13.6684a.6946.6946,0,0,0,1.2635.5327c5.4067-8.1163,6.2053-21.1644,3.43-30.3324a.0167.0167,0,0,0-.0326.0044Z"/>
        <path class="cls-1" d="M152.336,131.9752c.8331,6.9679-1.1067,14.28-3.4542,20.716-.2743.752.7526,1.2188,1.2681.7382,4.45-4.1482,4.5295-16.3285,2.2171-21.4626a.0168.0168,0,0,0-.031.0084Z"/>
        <path class="cls-1" d="M159.8064,134.7144c.7226,5.5595-1.1128,10.9178-2.274,16.2157-.1615.7373.815,1.4849,1.3809.8039,3.4138-4.1082,3.0972-12.4075.9245-17.0281-.0069-.0146-.0336-.008-.0314.0085Z"/>
        <path class="cls-1" d="M167.0123,136.2826a48.7137,48.7137,0,0,0-.4691,5.3918c-.2733,2.1675-1.0834,4.2041-1.3887,6.3236a.9411.9411,0,0,0,1.3623,1.0473c1.9189-1.0719,1.6238-4.7612,1.6254-6.63.0017-1.897.1254-4.543-1.0683-6.1405a.0342.0342,0,0,0-.0616.0081Z"/>
        <path class="cls-1" d="M173.3367,136.1256c.0051,1.9653-.663,3.9359-.5735,5.8934a.5951.5951,0,0,0,1.1.2979c.578-.9445.2564-2.24.12-3.2722a29.0811,29.0811,0,0,0-.6133-2.9236.0167.0167,0,0,0-.0326.0045Z"/>
        <path class="cls-1" d="M163.8075,73.302a.0125.0125,0,0,0,0-.025.0125.0125,0,0,0,0,.025Z"/>
        <path class="cls-2" d="M163.9148,76.8345a2.8579,2.8579,0,0,0-1.3669-.9472,10.8394,10.8394,0,0,0-1.5637-.4707c-.83-.16-1.7349.0542-2.5486-.1785-2.0224-.5783-.37-5.1632-.9374-6.8255a.8685.8685,0,0,0-1.6584,0,4.9444,4.9444,0,0,0-.5691,1.5525,22.4122,22.4122,0,0,0-.1443,2.6181c.0133,1.28-.1408,3.0066.77,4.052,1.2331,1.4146,3.3215.76,4.9263.8851a5.32,5.32,0,0,0,1.7247-.1748,8.215,8.215,0,0,1,1.26-.2519.1536.1536,0,0,0,.1073-.2591Z"/>
        <path class="cls-1" d="M67.8717,60.1931c-.8538,2.7929-2.0922,7.608.2536,10.0388,2.5846,2.6782,9.04.6623,12.3026.3682L122.92,66.77c8.9009-.8023,16.664-1.3748,18.9615-11.3769,2.7665-12.0443,1.6958-25.8888-.9955-37.8495-.4127-1.834-3.5808-1.4757-3.3451.4527a154.79,154.79,0,0,1,1.35,28.2777c-.2312,3.775-.1469,9.1166-2.4741,12.3559-3.3084,4.6051-12.4326,3.906-17.4489,4.3851l-27.011,2.58L79.1469,66.8182c-1.1281.1077-6.71,1.2466-7.6863.7341-2.0729-1.0884-1.1879-4.9887-1.2706-7.0454a1.1859,1.1859,0,0,0-2.3183-.3138Z"/>
        <g>
          <path class="cls-2" d="M171.7885,132.3752c-10.7549-5.2747-20.64-10.9488-25.5134-22.6011a.339.339,0,0,0-.6624.09c-.0891,6.4424,4.3728,11.5553,8.8942,15.6754,4.5428,4.1395,10.4494,8.5593,16.89,8.2813C172.113,133.79,172.52,132.7341,171.7885,132.3752Z"/>
          <path class="cls-2" d="M226.0614,106.35c-9.65-2.8015-20.5184-2.2465-30.4343-1.5065-1.4253.1063-2.8758,1.6616-2.2433,3.1056-1.7139.1684-3.4416.4586-5.1395.4761-2.4276.0252-4.8493-.196-7.2711-.2839a4.7585,4.7585,0,0,0-3.5928-.7,50.4357,50.4357,0,0,0-3.544-13.6452c-2.8831-6.9138-6.4091-13.2477-8.4195-20.5394-1.0983-3.9835-1.9613-11.1952-5.8664-13.7331-6.4583-4.1974-12.6256,6.7059-13.9767,11.5746-1.6524,5.9544-.0752,11.7765,1.3121,17.6a56.68,56.68,0,0,1,1.1754,7.8781c-4.3226,3.5632-13.23,3.0532-18.0485,3.1553-4.228.09-7.968-.1961-11.8182,1.724a34.0831,34.0831,0,0,1-9.1133,3.2731,12.6972,12.6972,0,0,0-4.5338,1.3528,10.2045,10.2045,0,0,0-4.2131,6.6355c-.857,3.8236-.1542,6.8838,1.7092,9.1083a9.2913,9.2913,0,0,0-.098,9.18,9.4945,9.4945,0,0,0,2.7882,3.2436,7.9413,7.9413,0,0,0-1.5563,8.0875c1.5442,4.4774,5.4837,6.65,9.7706,7.5547a7.44,7.44,0,0,0,1.9261,6.8715c3.1945,3.7275,8.372,4.086,12.92,3.4521a33.0413,33.0413,0,0,0,8.0089-2.0675c7.6923,3.9093,20.4194-.1713,27.6119-3.2289a30.08,30.08,0,0,0,9.9288-6.624,13.8518,13.8518,0,0,0,2.0124.563c.591.1437,1.1871.2946,1.7855.4377a1.8694,1.8694,0,0,0,1.589,1.5512c3.282.5062,7.3031,1.7267,11.0352,1.87a2.48,2.48,0,0,0,2.3951,2.1272,166.2429,166.2429,0,0,1,23.7024,3.7611c3.1918.7352,4.552-4.1951,1.3536-4.91a193.3288,193.3288,0,0,0-20.5025-3.3818c8.6048-12.8055,10.3081-27.0765,2.8862-40.9816,8.8143-.3284,17.7784-.045,26.4609-1.2578C226.9826,107.9443,226.8375,106.5749,226.0614,106.35ZM104.4631,123.877a18.2659,18.2659,0,0,0,5.2437,1.8584c9.1111,2.1725,25.0922-.2412,26.64-.563,2.118-.4405,5.41-2.2062,6.8927.2563.8025,1.3323.3144,2.9014-.4547,4.3418-5.24,3.8165-13.4264,3.4283-19.655,3.5687C115.2211,133.5172,103.5523,133.26,104.4631,123.877ZM140.7184,147.5c-1.2951,3.9285-4.9306,6.0344-8.5829,7.2868-5.3337,1.8291-16.3617,3.0809-16.9012-4.53a29.1456,29.1456,0,0,0,2.999.1807c5.0946.0406,16.2317-1.1051,23.0012-5.0828A14.957,14.957,0,0,1,140.7184,147.5Zm-5.6915-4.277A42.0559,42.0559,0,0,1,124.906,145.33a48.5988,48.5988,0,0,1-8.9916.5127c-5.1654-.3476-12.8663-4.853-9.0294-10.3168a28.027,28.027,0,0,0,8.8361,2.009c5.044.5138,18.4165,1.6568,26.4385-1.5821C140.7456,139.2959,139.2862,141.5362,135.0269,143.2229Zm41.06,1.6178a20.3812,20.3812,0,0,0,3.1054-8.5993c.0718-.5828-.851-.8019-1.1-.2979-6.9434,14.0754-21.6492,16.9729-35.8348,17.74.2984-.3406.61-.6663.8775-1.041,2.0939-2.93,3.4861-6.7392,1.2625-9.7248,2.237-2.3269,3.138-5.32,1.7056-9.1377,4.54-2.645,4.6288-10.1994.3695-13.9409a10.8733,10.8733,0,0,0-1.8516-1.32,7.8865,7.8865,0,0,0-1.7133-7.7619,10.3206,10.3206,0,0,0-8.7181-2.995c-2.7143.221-6.1095.7825-7.6791,3.1987l-.007-.0023a26.2406,26.2406,0,0,0-12.3351-.97.6411.6411,0,0,0,0,1.2814,44.2451,44.2451,0,0,1,10.9058,2.4761c2.7429,1.01,5.3964,3.486,8.3746,3.3508a.851.851,0,0,0,.8129-1.0672,6.2566,6.2566,0,0,0-3.0952-3.2544c2.1247-.392,4.2572-.8347,6.2614-.1232,1.5686.5568,3.1455,2.0129,2.7848,3.8753a3.1877,3.1877,0,0,1-.4433,1.066,5.9413,5.9413,0,0,1-2.11,1.0582c-2.8151.9044-19.1547,2.8588-23.646,2.586-1.68-.1022-4.6493.1576-6.1743-.7558-5.5745-3.3384-3.5074-8.5026.3881-10.2254,3.0078-1.33,6.1324-1.4147,9.0912-2.9089a27.1789,27.1789,0,0,1,12.6933-3.2086,64.0429,64.0429,0,0,0,9.36-.7335c3.2169-.5719,6.7048-1.4479,8.9744-3.5928a56.4691,56.4691,0,0,0,1.8066,11.4977,1.26,1.26,0,0,0,2.4063,0c2.9939-7.9941.1064-18.1245-1.8706-26.12-1.4807-5.9887-2.7628-12.2182.284-17.9654,1.436-2.7088,4.4616-7.3942,8.0755-2.3624.9415,1.3109.6691,4.6878.9948,6.2143,2.0714,9.7065,7.1748,17.1334,10.7712,26.1767,4.02,10.1074,3.6355,20.2416,2.26,30.8038-.1.7665,1.17,1.1008,1.4767.4a39.7828,39.7828,0,0,0,3.1056-17.5c5.8893,2.1923,6.3788,12.6507,6.3162,17.7207a28.3081,28.3081,0,0,1-5.04,16.61A12.8858,12.8858,0,0,0,176.0873,144.8407Zm16.1842,3.1451a40.9188,40.9188,0,0,0-8.5081-1.2019c5.0715-7.55,5.676-16.7817,3.7217-25.8278a33.8684,33.8684,0,0,0-3.3471-9.2614c1.1162.16,2.2436.2679,3.3722.339,2.582.1626,5.6708.4314,8.3356-.2156C202.5831,123.6464,199.7853,137.0355,192.2715,147.9858Z"/>
          <path class="cls-2" d="M79.5291,43.8079c9.7554-.0041,21.6778,1.6642,31.027-1.4754a.7825.7825,0,0,0,0-1.4957c-5.1891-1.5741-10.7857-.7958-16.1355-.4906-5.1043.2912-10.1816.6745-15.0439,2.3357A.576.576,0,0,0,79.5291,43.8079Z"/>
          <path class="cls-2" d="M101.7328,48.34c-3.9044-.9284-7.8591-.6072-11.829-.2646-3.4417.2971-7.005.5123-10.15,2.02a.4086.4086,0,0,0,.0967.74c3.5668.745,7.2731.1729,10.8843-.0391,3.7131-.2179,7.3849-.1909,10.9979-1.1556A.68.68,0,0,0,101.7328,48.34Z"/>
          <path class="cls-2" d="M172.3952,168.46c-1.2427-4.4-8.1088-2.53-6.8611,1.8915a36.8955,36.8955,0,0,0,3.7018,8.7088A1066.9325,1066.9325,0,0,0,50.6187,190.5C49.1152,135.3576,39.6822,80.7186,18.881,29.5053q17.3355-3.023,34.6458-6.1868c8.2048-1.4853,16.5422-2.8378,24.7486-4.6415-2.2964,5.54-4.1153,11.38-6.0063,16.7009-1.7647,4.9654-3.5239,9.9372-5.1868,14.9379-1.1365,3.4174-2.6989,7.4081-2.3265,11.1376.6474,6.4822,18.7748-.1208,25.9358-1.3712l26.646-4.6524c4.5989-.803,9.2156-1.5373,13.8016-2.41,1.6018-.3048,3.8007-.3848,5.0271-1.613,2.1491-2.1524,2.288-6.9565,2.71-9.8224a95.0891,95.0891,0,0,0,.806-19.0961c-.1156-2.0451.0851-6.0448-.5309-9.1479a82.3336,82.3336,0,0,1,8.6254-.728c.0784,4.6877,1.13,10.8911,1.6239,15.5674.4669,4.42,2.19,18.3056,3.7662,22.8457.5692,1.64,4.0141,1.43,3.9137-.5114-.2256-4.3642-1.9028-18.0852-2.4966-22.237-.8034-5.6188-1.7418-13.1371-2.1217-18.8-.08-1.1906-1.065-2.6277-2.45-2.45-4.2409.5439-19.81,1.1234-22.2455.8014-1.4329-.19-2.8669-.3655-4.3013-.5385-.2423-4.3-1.905-7.6915-6.8707-7.2523-3.6527.3232-6.7346,2.6777-9.1641,5.88Q96.7847,5.374,86.1124,5.79c-1.3541.0549-2.2679-.1781-3.1533,1.15-1.0621,1.5311-1.0306,4.1147-1.9221,5.8064-9.39,1.0273-18.7459,2.9026-27.9827,4.5209-13.1141,2.2976-26.2257,4.612-39.3637,6.77A3.1605,3.1605,0,0,0,11.4857,27.92C32.9951,80.7771,41.89,137.8778,43.4769,194.6668c.0713,2.55,2.2525,3.8877,4.5979,3.5025a984.6433,984.6433,0,0,1,127.8276-12.2586,3.6061,3.6061,0,0,0,2.517-6.0765A28.9044,28.9044,0,0,1,172.3952,168.46ZM115.93,3.6483c4.1608-.14,3.5521,1.9078,3.6071,3.2058-.8674-.0915-1.7335-.1939-2.6023-.2748-1.5927-.1482-3.1854-.2487-4.7782-.3633A10.7374,10.7374,0,0,1,115.93,3.6483Zm3.7462,7.8317c-.0868.2805-1.1218,5.3144-1.747,7.501-.5955,2.0828-4.2329,13.6227-5.6867,13.0416-1.3432-.5369-.3378-8.3943-.0588-9.663a22.8874,22.8874,0,0,1,3.8807-8.0651c.7281-1.0763-.6834-2.3428-1.73-1.73-4.07,2.3822-6.3158,6.3368-7.1228,10.9221-.5632,3.2-1.0488,9.3957,1.423,12.1659,6.8464,7.6728,12.1349-10.829,12.9208-14.49a87.2983,87.2983,0,0,0,1.7557-9.4455c2.8881.1527,10.78.0231,10.6486,3.3021-.0261.6478.112,1.71.1416,2.2817.1324,2.56.1684,5.14.1269,7.7025a122.059,122.059,0,0,1-1.3794,15.1885c-.2377,1.6654-.9,3.4577-.9786,5.119-.0073.1529-.2.7079-.3156,1.1661a9.0655,9.0655,0,0,1-1.38.4544c-6.48.8676-12.94,2.2481-19.3817,3.3655L90.2478,53.8609c-3.2571.565-16.1961,3.4351-19.3124,3.719.6343-3.2963,3.0573-7.8419,3.8407-10.23,1.5064-4.5916,3.0754-9.1617,4.6121-13.7431,2.5192-7.5109,5.8783-15.3949,7.0193-23.3356,6.08-.1062,12.1675-.0607,18.2452.1809A34.2485,34.2485,0,0,0,101.1953,22.29c-.0861,1.1226,1.5667,1.2439,1.8878.2554A46.875,46.875,0,0,1,108.4082,10.62"/>
          <path class="cls-2" d="M49.8877,75.3392c8.0091.5872,16.29-1.0535,24.2394-1.9694,7.35-.8469,15.0383-1.0963,22.2407-2.7971,1.9477-.46,1.4593-3.3586-.4617-3.4112C88.54,66.9593,80.8975,68.4772,73.61,69.55c-7.9146,1.1656-16.3882,2.0544-23.8077,5.16A.322.322,0,0,0,49.8877,75.3392Z"/>
          <path class="cls-2" d="M56.4243,86.4049c8.29,1.5122,17.3495-.4672,25.6365-1.44,8.5623-1.0055,17.79-1.2731,26.0849-3.66a1.9819,1.9819,0,0,0-.5245-3.8748c-8.6028-.1592-17.63,1.9741-26.145,3.2153-8.2434,1.2014-17.5175,1.6373-25.12,5.2361A.2893.2893,0,0,0,56.4243,86.4049Z"/>
          <path class="cls-2" d="M66.4768,42.1424c-5.9235-.0579-11.9446,1.5613-17.7084,2.8295-5.6143,1.2353-11.6848,2.3155-16.6,5.4138a.4083.4083,0,0,0,.2041.754c5.3833.5681,11.0423-.7988,16.35-1.6788,6.0341-1.0005,12.48-1.4259,18.2965-3.3111A2.05,2.05,0,0,0,66.4768,42.1424Z"/>
        </g>
      </g>
    </g>
  </g>
</svg>
