<svg xmlns="http://www.w3.org/2000/svg" viewBox="0 0 232.2469 181.7053">
  <defs>
    <style>
      .cls-1 {
        fill: #d1d3d4;
      }

      .cls-2 {
        fill: #65ce21;
      }
    </style>
  </defs>
  <title>weak-link</title>
  <g id="Layer_2" data-name="Layer 2">
    <g id="Layer_2-2" data-name="Layer 2">
      <g>
        <g>
          <path class="cls-1" d="M216.2591,124.7356c-2.1331,2.7812-3.9743,5.6434-6.6017,7.9961-2.5938,2.3228-5.5707,3.8923-8.4946,5.69-.42.2584-.2853,1.0163.265.9026,6.4734-1.3373,13.3028-7.8239,15.1706-14.3978a.1965.1965,0,0,0-.3393-.1909Z"/>
          <path class="cls-1" d="M218.4974,130.6357a26.5705,26.5705,0,0,1-5.2786,6.59c-2.4321,2.038-5.1486,3.6267-7.3243,5.9839-.2483.2691-.0113.85.3676.6144,4.4507-2.7628,12.1557-6.8662,12.53-13.0725.01-.16-.2005-.2636-.2949-.1159Z"/>
          <path class="cls-1" d="M220.6943,136.8926c-.3232,1.1849-1.8109,2.4345-2.6255,3.2687a35.5419,35.5419,0,0,1-2.8892,2.6168c-1.919,1.5747-4.0283,2.8686-5.8724,4.5408-.3928.3562-.0079,1.05.4857.8119a31.491,31.491,0,0,0,8.0262-5.781c1.1441-1.11,4.2483-3.6824,3.3046-5.472-.0859-.1628-.37-.2026-.4294.0148Z"/>
          <path class="cls-1" d="M223.0921,142.7609c-2.7,4.32-7.5115,7.5786-11.3291,10.78-.327.2742.0062.8734.3938.6583a35.5693,35.5693,0,0,0,7.2629-5.3334c1.7361-1.6489,3.8061-3.3762,4.1941-5.8995a.29.29,0,0,0-.5217-.2049Z"/>
          <path class="cls-1" d="M194.8467,144.3146a16.75,16.75,0,0,1,.15,3.4567c-.4272,2.6136-2.7027.2323-3.184-.8462-.42-.9409-.8565-2.73-.1147-3.6408,1.29-1.5839,2.409,1.1636,3.0053,1.8716a.5483.5483,0,0,0,.9552-.4531c-.3311-1.77-2.33-3.8831-4.1894-2.8305-1.8264,1.034-1.4112,3.9536-.6719,5.5368.6711,1.4373,2.5994,3.5585,4.2777,2.2686,1.55-1.1912.8579-4.1028-.05-5.4474-.0638-.0945-.1823-.0085-.1777.0843Z"/>
          <path class="cls-1" d="M191.7386,93.2634a61.6774,61.6774,0,0,1-7.5509.3866c-2.2672-.1569-4.37-.9941-6.6012-1.2448a.57.57,0,0,0-.3768,1.0141c3.8329,2.6135,10.666,2.3507,14.5543-.0694a.0459.0459,0,0,0-.0254-.0865Z"/>
          <path class="cls-1" d="M186.7018,88.9841c-1.8031-.204-3.6251-.1087-5.4321-.2853-1.8267-.1784-3.61-.8813-5.4264-.8932a.5841.5841,0,0,0-.3856,1.0377c2.8725,2.0278,8.23,1.8353,11.2519.1906a.0266.0266,0,0,0-.0078-.05Z"/>
          <path class="cls-1" d="M184.9993,84.9279c-1.4878-.3619-3.0271-.3756-4.534-.6307-1.5205-.2574-2.9462-.8277-4.4494-1.1286-.5582-.1117-.9.7991-.4074,1.0967,2.5339,1.5308,6.6918,2.0618,9.4.7247a.0332.0332,0,0,0-.01-.0621Z"/>
          <path class="cls-1" d="M183.4066,80.5334a21.94,21.94,0,0,0-3.539-.7488c-1.3475-.2782-2.648-.8278-4.0029-1.0278a.6494.6494,0,0,0-.4293,1.1557c2.0423,1.2789,5.7491,1.81,7.9745.7532a.0737.0737,0,0,0-.0033-.1323Z"/>
          <path class="cls-1" d="M186.7735,60.68a13.5908,13.5908,0,0,0-2.9505,2.3535,10.7414,10.7414,0,0,0-2.3126,2.7637c-.2284.4861.4025.86.767.5754a25.2857,25.2857,0,0,0,2.4928-2.7636c.7746-.8252,1.6389-1.6058,2.3563-2.48a.2972.2972,0,0,0-.353-.4487Z"/>
          <path class="cls-1" d="M181.8963,58.7749a5.5963,5.5963,0,0,0-2.2457,1.5844,6.0394,6.0394,0,0,0-1.5709,2.224c-.106.4136.3117.8137.6785.509a15.0511,15.0511,0,0,0,1.5842-2.055,18.7253,18.7253,0,0,0,1.6614-2.1258.0907.0907,0,0,0-.1075-.1366Z"/>
          <path class="cls-1" d="M179.094,55.5147a5.6506,5.6506,0,0,0-2.3962,1.71,8.2576,8.2576,0,0,0-1.91,2.52.4525.4525,0,0,0,.6982.5238,23.3232,23.3232,0,0,0,1.9221-2.3473,11.81,11.81,0,0,0,1.81-2.2489.1161.1161,0,0,0-.1242-.1579Z"/>
          <path class="cls-1" d="M175.5342,53.0664a6.6162,6.6162,0,0,0-3.3767,3.153.428.428,0,0,0,.6589.4943,8.9277,8.9277,0,0,0,1.4211-1.6864,14.1456,14.1456,0,0,0,1.4006-1.7865c.0441-.0716-.0065-.2058-.1039-.1744Z"/>
          <path class="cls-1" d="M172.1779,50.9467a3.9608,3.9608,0,0,0-1.1874.7738,2.3549,2.3549,0,0,0-.8694,1.1829c-.0944.406.3772.6049.6734.4986.4379-.1571.722-.6453.978-1.0222a4.1355,4.1355,0,0,0,.5916-1.2512.142.142,0,0,0-.1862-.1819Z"/>
          <path class="cls-1" d="M197.59,155.5551a6.7954,6.7954,0,0,1,.2958,2.41q.0032,1.0369-1.3295.7523a2.2488,2.2488,0,0,1-.4657-.5074,5.1469,5.1469,0,0,1-.5785-1.0955c-.3095-.7638-.8853-2.6994.4657-2.7079.9847-.0061,1.272,1.0788,1.82,1.6936.21.2352.7142.0838.6109-.29-.34-1.2314-1.5951-2.554-2.94-2.1163-1.5571.5068-1.0172,2.5731-.5193,3.6885.4292.9616,1.4984,2.6642,2.7532,1.8914,1.1633-.7164.5557-2.8812-.046-3.7508a.0382.0382,0,0,0-.0666.0316Z"/>
          <g>
            <g>
              <path class="cls-2" d="M231.9814,161.6973c-1.63-7.9731-5.0159-15.6184-7.9753-23.1341-3.0038-7.6282-5.82-15.672-9.91-22.7627a1.7935,1.7935,0,0,0-2.7914-.6082,33.1319,33.1319,0,0,0-3.0972-6.996,1.9644,1.9644,0,0,0-1.751-1.02c-.061-.3659-.1216-.731-.2035-1.1082-.4185-1.9281-.81-3.8593-1.1987-5.7943-.7153-3.5653-1.3969-7.1359-2.0764-10.709-1.3991-7.358-3.0155-14.7744-5.945-21.6532-6.2825-14.7515-18.7987-23.77-33.0037-29.357-2.14-.8417-3.254,2.3731-1.2767,3.3911,6.77,3.4859,13.698,6.2587,19.539,11.3944A45.9027,45.9027,0,0,1,194.6529,71.72c2.4918,6.5646,3.8184,13.5322,5.2018,20.423.7156,3.5644,1.3829,7.1484,2.3061,10.6611.37,1.4071.751,2.815,1.1922,4.2a16.3642,16.3642,0,0,0,.9414,2.307,39.8012,39.8012,0,0,1-15.6851,13.4506c-2.2245,1.0483-6.932,1.51-7.3916,4.616-.219,1.48.8111,3.3,1.3328,4.5914.4077,1.0088.8347,2.0076,1.27,3.0026-.0406-.0078-.0793-.0081-.12-.0161a2.2424,2.2424,0,0,0-2.363,2.6208c1.77,7.49,4.53,14.7752,7.0836,21.9984q2.1819,6.1713,4.4714,12.3c1.12,2.9935,2.0135,6.536,4.1209,8.9508a1.7482,1.7482,0,0,0,3.0433-1.4436c-.2314-3.05-1.7908-6.0017-2.8626-8.8157q-2.3077-6.0593-4.5019-12.165c-2.208-6.131-4.5315-12.3155-6.2939-18.6267.1557.0061.3111.0114.4658.014a2.2509,2.2509,0,0,0,1.0793-.0113c10.9786-.3885,19.2988-9.5217,24.5822-19.32,3.3828,6.316,5.8478,13.3518,8.4983,19.9545,2.9517,7.3534,5.4537,15.1952,9.558,21.95C231.01,163.0653,232.1376,162.4608,231.9814,161.6973ZM188.7951,135.219a38.3759,38.3759,0,0,1-2.8957-6.7187c.7726-.3217,1.9026-.5163,2.4487-.7468q1.6527-.6974,3.2373-1.5515a40.8483,40.8483,0,0,0,6.4736-4.294,42.2254,42.2254,0,0,0,8.3538-9.3711.5779.5779,0,0,0,.1988-.0151c.945,1.9547,1.7761,3.9841,2.8194,5.8674C204.8891,126.594,197.8958,134.4186,188.7951,135.219Z"/>
              <path class="cls-2" d="M198.3106,181.7053a1.9712,1.9712,0,0,1-1.4853-.7158c-1.7051-1.9531-2.6133-4.583-3.4922-7.1269-.2237-.6465-.4444-1.2852-.6748-1.9-1.4756-3.9453-2.9805-8.085-4.4727-12.3047q-.564-1.5937-1.1367-3.1914a178.9931,178.9931,0,0,1-5.9541-18.833,2.4535,2.4535,0,0,1,.6953-2.2129,2.2816,2.2816,0,0,1,1.6133-.7442l.0156.001c-.4258-.98-.7783-1.8193-1.1-2.6152-.1025-.253-.2246-.5274-.3535-.8145a7.7568,7.7568,0,0,1-.9951-3.9062c.3652-2.4678,3.2031-3.3594,5.4843-4.0762a17.2549,17.2549,0,0,0,2.0479-.73,39.4981,39.4981,0,0,0,15.5019-13.2461,16.3744,16.3744,0,0,1-.8906-2.2089c-.4521-1.4229-.8418-2.8653-1.1953-4.212-.7754-2.9482-1.3789-5.9912-1.9629-8.9336l-.57-2.8569C198.1,84.6477,196.77,78,194.42,71.8084a45.3743,45.3743,0,0,0-12.293-18.28c-4.5635-4.0127-9.69-6.5244-15.1191-9.1831-1.4336-.7022-2.9151-1.4282-4.3692-2.1768a2.17,2.17,0,0,1-.96-2.8647,1.8221,1.8221,0,0,1,2.4424-.9815c16.4052,6.4527,27.5566,16.3755,33.1425,29.4917,3.0557,7.1748,4.6787,14.9654,5.961,21.7041.6552,3.4512,1.3554,7.12,2.0752,10.7071.3476,1.7343.7617,3.7783,1.1972,5.791.0674.3095.1211.6123.1719.9131a2.2356,2.2356,0,0,1,1.7578,1.1464,34.6805,34.6805,0,0,1,3.0215,6.709,1.9453,1.9453,0,0,1,1.334-.249,2.2262,2.2262,0,0,1,1.5312,1.14c3.3829,5.8681,5.9131,12.4248,8.3594,18.7656.5215,1.3515,1.04,2.6982,1.5654,4.0312.4883,1.24.9883,2.4844,1.49,3.7325,2.5234,6.2753,5.1318,12.7636,6.498,19.4433h0a1.088,1.088,0,0,1-.7129,1.2.903.903,0,0,1-1.1455-.3564c-3.1318-5.1543-5.3545-10.9922-7.5039-16.6377-.6709-1.7637-1.3652-3.5879-2.0732-5.35-.6045-1.5069-1.2-3.0371-1.7988-4.5752a144.6462,144.6462,0,0,0-6.47-14.9434c-3.9072,7.1123-12.123,18.6006-24.57,19.041a2.4057,2.4057,0,0,1-1.1465.0049c-.0224.001-.0478.001-.0752.001,1.5069,5.331,3.4287,10.6367,5.2881,15.77l.9092,2.5127c1.5117,4.2012,3.0264,8.293,4.5,12.1611.2559.6709.5391,1.3506.8262,2.0371a22.7144,22.7144,0,0,1,2.0517,6.85,2.166,2.166,0,0,1-1.2734,2.1934A1.8543,1.8543,0,0,1,198.3106,181.7053ZM183.4034,135.177a1.7792,1.7792,0,0,0-1.2529.5908,1.95,1.95,0,0,0-.5694,1.75,178.7874,178.7874,0,0,0,5.9385,18.78q.5713,1.5981,1.1367,3.1934c1.4912,4.2158,2.9951,8.3525,4.4707,12.2949.2315.6191.4531,1.2617.6787,1.9131.8633,2.498,1.7559,5.081,3.3965,6.9619a1.3986,1.3986,0,0,0,1.6377.4346,1.648,1.648,0,0,0,.9678-1.6954,22.3486,22.3486,0,0,0-2.0156-6.6943c-.2881-.6914-.5743-1.376-.8311-2.0517-1.4756-3.8711-2.99-7.9649-4.5039-12.169l-.9082-2.5127c-1.9-5.2471-3.8662-10.6728-5.3916-16.1308l-.0918-.33.3428.0127c.1533.0058.3066.0107.4609.0136a2.1393,2.1393,0,0,0,1.0137-.0039c12.4912-.4482,20.66-12.2187,24.4228-19.1963l.2207-.4091.22.41a140.9637,140.9637,0,0,1,6.7119,15.4082c.5986,1.5371,1.1933,3.0655,1.7978,4.5713.708,1.7656,1.4033,3.5908,2.0762,5.3565,2.1406,5.625,4.3555,11.4414,7.4639,16.5566a.4111.4111,0,0,0,.5351.15.5986.5986,0,0,0,.4053-.6348h0c-1.3565-6.6347-3.957-13.1025-6.4717-19.3564-.5019-1.249-1.0029-2.4942-1.4912-3.7354q-.7881-2.0023-1.5674-4.0351c-2.4394-6.3233-4.9619-12.8614-8.3262-18.6953a1.7321,1.7321,0,0,0-1.1835-.8965,1.4865,1.4865,0,0,0-1.23.3545l-.2989.2529-.1045-.377a33.0062,33.0062,0,0,0-3.0742-6.9414,1.7051,1.7051,0,0,0-1.52-.8916l-.2217.0108-.0361-.2188c-.0674-.3965-.125-.7412-.2021-1.0967-.4375-2.0156-.8516-4.0625-1.1993-5.7988-.7207-3.5879-1.4209-7.2588-2.0771-10.7109-1.2764-6.7134-2.8926-14.4727-5.93-21.6016-5.5313-12.9887-16.5889-22.8208-32.8652-29.2231a1.32,1.32,0,0,0-1.8028.7226,1.6562,1.6562,0,0,0,.7325,2.2144c1.45.7461,2.93,1.4712,4.36,2.1719,5.2188,2.5566,10.6162,5.2,15.23,9.2568a45.8513,45.8513,0,0,1,12.43,18.478c2.3642,6.23,3.6992,12.8994,4.9892,19.3482l.5713,2.8574c.5821,2.9355,1.1846,5.9707,1.9561,8.9043.3515,1.34.7383,2.7754,1.1875,4.1865a16,16,0,0,0,.9277,2.2734l.0645.1319-.083.12a40.0337,40.0337,0,0,1-15.7842,13.5352,17.8108,17.8108,0,0,1-2.1113.7548c-2.2588.709-4.82,1.5137-5.14,3.6719a7.4411,7.4411,0,0,0,.958,3.6289c.1309.294.2549.5733.3594.8311.3623.8965.7646,1.8486,1.2676,2.9961l.19.4375-.4678-.0918c-.0635-.0069-.0908-.01-.1191-.0157A1.34,1.34,0,0,0,183.4034,135.177Zm5.2441.3057-.3515-.7012a34.6882,34.6882,0,0,1-2.6377-6.2158l-.0576-.2119.2031-.084a11.7214,11.7214,0,0,1,1.4433-.4463,8.6058,8.6058,0,0,0,1.003-.3008c1.0849-.457,2.167-.9756,3.2168-1.54a40.6463,40.6463,0,0,0,6.4336-4.2676,41.9508,41.9508,0,0,0,8.3046-9.3174l.0821-.123.1474.0127a.331.331,0,0,0,.11-.0069l.2012-.0556.09.1884c.3291.68.6445,1.3682.959,2.0577.5791,1.2656,1.1777,2.5761,1.8545,3.7968l.0674.1211-.0674.1211c-3.2871,5.9375-10.3643,16.0371-20.833,16.958Zm-2.4463-6.8311a35.7936,35.7936,0,0,0,2.542,5.9053l.1983.3975c10.0761-.9873,16.9541-10.7325,20.2031-16.5665-.6572-1.2021-1.24-2.4755-1.8037-3.71-.2783-.6074-.5567-1.2149-.8438-1.8174a42.309,42.309,0,0,1-8.28,9.2412,41.009,41.009,0,0,1-6.5137,4.32c-1.0625.5733-2.1592,1.0977-3.2588,1.5616a8.8454,8.8454,0,0,1-1.07.3242C186.9913,128.4085,186.5645,128.52,186.2012,128.6516Z"/>
            </g>
            <g>
              <path class="cls-2" d="M189.7493,119.6977c.1712-.1952-.0488-.4881-.269-.4514-4.7378.789-9.3074,2.2884-13.9406.1485-4.5222-2.0886-6.5815-6.8007-8.1926-11.3389-.6-1.6887-1.1825-3.3468-1.8213-4.9693a.972.972,0,0,0,.1781-.332c.686-2.1945.937-4.1656,2.2466-6.1427.8785-1.3261,2.0972-2.5579,2.6634-4.0651a.0777.0777,0,0,0-.0828-.1052c-2.82.5-5.7006,3.8744-6.5444,7.1337a31.0734,31.0734,0,0,0-2.0714-3.64c-2.4165-3.61-5.7053-7.2276-6.3053-11.6075a25.4672,25.4672,0,0,0,6.9831,5.9815c2.3234,1.3854,5.9925,2.6117,7.2278-.8519a6.9482,6.9482,0,0,0-.6041-5.1311,3.9012,3.9012,0,0,0,1.97-1.012,4.7773,4.7773,0,0,0,.9565-1.2948,19.71,19.71,0,0,0-.1672,2.152,31.8324,31.8324,0,0,0,1.3291,9.3373c1.7273,5.7318,5.2355,10.7424,10.662,13.0766,1.38.5936,2.387-1.4376,1.2407-2.3468a24.8373,24.8373,0,0,1-8.941-13.3532,32.9463,32.9463,0,0,1-.9037-9.0535c.0693-2.0585.6573-4.2183-.5441-6.0261-1.1944-1.7973-3.519-2.9625-5.1095-4.3723a50.39,50.39,0,0,1-5.88-6.2676c-3.2857-4.1067-6.8968-11.1344-2.3861-15.5181a193.2332,193.2332,0,0,0,13.9054,14.1436q3.9227,3.5909,8.0313,6.957c2.5754,2.105,5.3125,4.517,8.4171,5.7179a.4459.4459,0,0,0,.4888-.6968c-1.9738-2.5516-4.7555-4.4814-7.192-6.5358-2.5743-2.1707-5.1086-4.3884-7.58-6.6844a207.9126,207.9126,0,0,1-14.9768-15.5083,1.2585,1.2585,0,0,0-1.7671-.178c-4.2079,3.0588-4.9384,8.7522-3.2627,13.48a23.6741,23.6741,0,0,0,1.8882,3.9925,5.4735,5.4735,0,0,0-4.12,4.964,8.5052,8.5052,0,0,0,.9258,4.6236c-2.23.6707-2.9932,4.1541-2.5366,6.5382a.8941.8941,0,0,0-.0793.1611c-1.469,5.804,1.0526,10.8176,4.2452,15.4053,3.666,5.2677,5.2062,10.9472,7.7716,16.7614,2.1175,4.7992,5.4421,8.6484,10.5144,10.0174C180.6114,124.02,186.4469,123.4627,189.7493,119.6977ZM161.0761,67.3952a1.356,1.356,0,0,0,.4684.12,49.2417,49.2417,0,0,0,7.79,7.8989c.36.2967.7381.56,1.1025.824.5887,1.9035,1.43,4.5892-.4463,5.5557-1.2272.6323-3.8691-.4771-4.89-1.2622a22.8178,22.8178,0,0,1-2.7507-2.5677,30.2242,30.2242,0,0,1-3.2711-3.99A7.2823,7.2823,0,0,1,157.74,70.53C157.6317,68.5937,158.9763,66.4258,161.0761,67.3952Zm.0274,12.6908c1.4174,1.4017,3.6238,3.3654,5.86,4.0521a6.0979,6.0979,0,0,1,.983,2.8061c-.0709,4.7787-4.7926.6785-6.255-.5866a24.5689,24.5689,0,0,1-4.2617-4.3738,4.2259,4.2259,0,0,1-.8864-3.5924,3.9648,3.9648,0,0,1,1.1975-2.0169A35.2273,35.2273,0,0,0,161.1035,80.086Z"/>
              <path class="cls-2" d="M180.461,123.6233a17.0809,17.0809,0,0,1-4.4092-.5752c-4.666-1.26-8.2588-4.6768-10.6777-10.1582-.7676-1.7393-1.45-3.4834-2.11-5.1709A53.1992,53.1992,0,0,0,157.626,96.17c-2.9853-4.2891-5.8291-9.4986-4.2822-15.6094a.5641.5641,0,0,1,.06-.1421c-.3936-2.2388.2588-5.727,2.4551-6.6382a8.5447,8.5447,0,0,1-.8311-4.5058,5.7943,5.7943,0,0,1,3.9854-5.1045,23.2984,23.2984,0,0,1-1.74-3.7437c-1.59-4.4839-1.17-10.479,3.3506-13.7656a1.5076,1.5076,0,0,1,2.1035.2158,208.8072,208.8072,0,0,0,14.958,15.49c2.2871,2.125,4.7637,4.309,7.5713,6.6762.584.4922,1.1875.9776,1.7959,1.4659a31.9861,31.9861,0,0,1,5.4326,5.1084.6966.6966,0,0,1,.001.8491.6607.6607,0,0,1-.7773.2339c-2.8223-1.0923-5.294-3.1294-7.6846-5.0992l-.8008-.6587c-2.6816-2.1918-5.3877-4.5356-8.042-6.9663a194.0979,194.0979,0,0,1-13.747-13.9633c-3.7745,3.9433-1.1622,10.3061,2.5918,14.997a49.8542,49.8542,0,0,0,5.8505,6.2373,22.9079,22.9079,0,0,0,1.8291,1.4043,12.7531,12.7531,0,0,1,3.3223,3.0166c.9805,1.4746.8291,3.1592.6836,4.7886-.041.4629-.082.9258-.0977,1.3838a32.4684,32.4684,0,0,0,.8965,8.9844,24.5841,24.5841,0,0,0,8.8535,13.2177,1.6408,1.6408,0,0,1,.3389,2.1475,1.4233,1.4233,0,0,1-1.833.625c-5.05-2.1719-8.8867-6.8711-10.8027-13.2334a32.1609,32.1609,0,0,1-1.34-9.4106c.001-.3721.0225-.7417.0576-1.1333a4.0956,4.0956,0,0,1-.4267.46,4.2319,4.2319,0,0,1-1.7715,1.001,7.1408,7.1408,0,0,1,.4707,5.0425,3.3763,3.3763,0,0,1-2.0215,2.2065c-1.9082.688-4.3086-.4717-5.57-1.2236a27.3485,27.3485,0,0,1-6.4307-5.2744c.6915,2.997,2.6084,5.66,4.4688,8.2426.5439.7559,1.1064,1.5381,1.62,2.3047a30.0108,30.0108,0,0,1,1.8027,3.0977c1.087-3.294,3.9229-6.2315,6.5616-6.6992a.321.321,0,0,1,.3047.1123.33.33,0,0,1,.0566.3261,11.6115,11.6115,0,0,1-1.7744,2.86c-.3125.4092-.6358.833-.916,1.2549a13.99,13.99,0,0,0-1.7364,4.3886c-.1484.5508-.2988,1.1133-.48,1.6905a1.1985,1.1985,0,0,1-.1347.2929c.5849,1.4952,1.1152,2.9913,1.6758,4.5723l.0986.2783c1.5352,4.3243,3.5518,9.1123,8.0625,11.1963,3.7793,1.7451,7.4805,1.0283,11.3994.2725.794-.1533,1.5928-.3076,2.3955-.4414a.5476.5476,0,0,1,.5518.2832.4947.4947,0,0,1-.0537.58h-.001C187.5792,122.552,183.9522,123.6233,180.461,123.6233ZM161.5792,46.8342a1.1251,1.1251,0,0,0-.6612.231c-4.3125,3.1348-4.7021,8.8857-3.1748,13.1943a23.3342,23.3342,0,0,0,1.8692,3.95l.1767.3028-.3437.0683a5.229,5.229,0,0,0-3.92,4.7437,8.1735,8.1735,0,0,0,.9013,4.4892l.1289.2642-.2812.0845c-2.168.6518-2.7735,4.11-2.3643,6.2519l.0147.0762-.0313.0713a.7926.7926,0,0,1-.0459.0874c-1.5166,5.95,1.2676,11.0386,4.1885,15.2358a53.6271,53.6271,0,0,1,5.6934,11.6524c.6582,1.6816,1.3388,3.4209,2.1015,5.1513,2.3555,5.335,5.8379,8.6582,10.3516,9.877,4.3154,1.166,10.124.6787,13.3789-3.0332l.1875.165-.1885-.165.1885.165-.1865-.166c-.0039-.0068-.03-.0361-.045-.0381-.7949.1328-1.5888.2862-2.3789.4385-4.0019.7725-7.7812,1.5039-11.7031-.3106-4.6885-2.165-6.7549-7.0615-8.3242-11.4814l-.1-.2793c-.5742-1.6221-1.1172-3.1533-1.7188-4.6826l-.0537-.1377.0928-.1133a.7181.7181,0,0,0,.1338-.248c.1777-.57.3271-1.126.4726-1.6709a14.3761,14.3761,0,0,1,1.8038-4.5342c.288-.4365.6171-.8672.9345-1.2832a12.6614,12.6614,0,0,0,1.5811-2.4336c-2.499.6475-5.208,3.706-6.0293,6.8808l-.17.6543-.2969-.6064a30.3021,30.3021,0,0,0-2.0547-3.61c-.5078-.76-1.0684-1.538-1.61-2.291-2.0908-2.9038-4.2529-5.9067-4.7343-9.4228l-.1289-.9424.5761.7573a25.7149,25.7149,0,0,0,6.9112,5.918c.9541.5688,3.3623,1.8208,5.1455,1.1831a2.9038,2.9038,0,0,0,1.72-1.9043,6.7545,6.7545,0,0,0-.5889-4.9268l-.166-.3032.3408-.063a3.68,3.68,0,0,0,1.8457-.95,4.474,4.474,0,0,0,.9053-1.228l.6211-1.167-.1523,1.313a19.2035,19.2035,0,0,0-.1651,2.1235,31.6665,31.6665,0,0,0,1.3184,9.2647c1.873,6.2187,5.61,10.8066,10.5215,12.9189a.9277.9277,0,0,0,1.206-.4219,1.1436,1.1436,0,0,0-.22-1.499,25.0775,25.0775,0,0,1-9.0273-13.4887,32.9691,32.9691,0,0,1-.9122-9.1226c.0157-.4673.0577-.9395.1006-1.4116.1436-1.6143.28-3.1392-.6025-4.4678a12.4175,12.4175,0,0,0-3.1973-2.8867,23.4408,23.4408,0,0,1-1.87-1.4365,50.3987,50.3987,0,0,1-5.9092-6.2989c-3.95-4.9365-6.6465-11.6933-2.3652-15.8535l.1865-.1821.1738.1953a193.4945,193.4945,0,0,0,13.8887,14.125c2.6475,2.4248,5.3457,4.7622,8.02,6.9487l.8028.66c2.3593,1.9448,4.8,3.9556,7.5459,5.0181a.1669.1669,0,0,0,.1962-.0655.2011.2011,0,0,0,.0049-.2446,31.6094,31.6094,0,0,0-5.3506-5.0249c-.6113-.4907-1.2177-.9785-1.8046-1.4736-2.8135-2.3721-5.2959-4.5611-7.5889-6.6919A209.0006,209.0006,0,0,1,162.35,47.2058,1.0159,1.0159,0,0,0,161.5792,46.8342ZM166.5,89.4519c-1.4121,0-3.3545-1.5054-4.96-2.8945a24.9968,24.9968,0,0,1-4.3164-4.4321,4.49,4.49,0,0,1-.9238-3.7906,4.227,4.227,0,0,1,1.2578-2.1318l.2031-.2158.1787.2363a35.1766,35.1766,0,0,0,3.34,3.6851h0a15.2262,15.2262,0,0,0,5.7568,3.9907l.1025.0312.0479.0952c.0683.1358.1387.2706.209.4053a5.2344,5.2344,0,0,1,.8008,2.5171c-.0186,1.2734-.3692,2.0718-1.04,2.3726A1.5991,1.5991,0,0,1,166.5,89.4519Zm-8.7784-12.6914a3.42,3.42,0,0,0-.9355,1.6875,3.977,3.977,0,0,0,.85,3.3941,24.5657,24.5657,0,0,0,4.2188,4.3266c.9472.82,3.7978,3.2827,5.0966,2.6953.4786-.2143.73-.8613.7452-1.9238a4.7739,4.7739,0,0,0-.7442-2.2778c-.0557-.1055-.11-.2115-.165-.3179a15.9269,15.9269,0,0,1-5.8594-4.0806h0A37.1949,37.1949,0,0,1,157.7217,76.7605Zm11.36,5.4668a8.1809,8.1809,0,0,1-4.1338-1.4976,22.588,22.588,0,0,1-2.7812-2.5952,30.54,30.54,0,0,1-3.2969-4.0239,7.335,7.335,0,0,1-1.38-3.5664,3.7559,3.7559,0,0,1,1.3828-3.2642,2.2355,2.2355,0,0,1,2.3076-.1118,1.1128,1.1128,0,0,0,.3838.0982l.11.0088.0674.0883a48.8587,48.8587,0,0,0,7.7509,7.8579c.2871.2364.586.4512.88.6622l.2774.2011.0253.08c.5957,1.9258,1.4834,4.794-.5712,5.8516A2.2339,2.2339,0,0,1,169.0821,82.2273Zm-9.01-14.8227a1.606,1.606,0,0,0-.9179.289,3.2886,3.2886,0,0,0-1.1641,2.8223,6.8676,6.8676,0,0,0,1.2979,3.3213,30.1076,30.1076,0,0,0,3.2441,3.9565,22.214,22.214,0,0,0,2.7207,2.54c.9668.7446,3.52,1.8061,4.623,1.2382,1.6661-.8574.9151-3.3418.3467-5.18l-.1416-.1021c-.3027-.2178-.61-.439-.9062-.6826a49.4747,49.4747,0,0,1-7.7647-7.8555,1.5706,1.5706,0,0,1-.4385-.1294h0A2.149,2.149,0,0,0,160.0723,67.4046Z"/>
            </g>
          </g>
          <path class="cls-2" d="M166.317,52.1752a6.9173,6.9173,0,0,0-2.01,2.0225c-.2858.3468-.3209.4578-.78.4778-.4362.019-.6172-.1754-.933-.4425a4.5535,4.5535,0,0,0-1.3135-.96.799.799,0,0,0-.98,1.0778c.5077,1.3311,2.7239,2.8294,4.0851,2.0622a5.0263,5.0263,0,0,0,2.2485-4.0641.2261.2261,0,0,0-.3172-.1732Z"/>
          <path class="cls-2" d="M171.9709,79.83a6.2022,6.2022,0,0,0-2.8064-6.2173c-1.3536-.7729-4.7947-.842-4.8362,1.4481-.0061.3375.2723.7542.6568.6359.5927-.1824.8962-.6021,1.4535-.8615a2.6894,2.6894,0,0,1,2.8193.5266c1.4255,1.1509,1.58,3.0854,2.6014,4.5034.0363.05.1.0152.1116-.0352Z"/>
          <path class="cls-2" d="M163.359,88.5553c-.2151-.5384-.6211-.9581-.875-1.4779a2.9637,2.9637,0,0,1-.2851-.8629,2.5971,2.5971,0,0,0-.1624-.949.5261.5261,0,0,0-.9087-.0915c-.4858.685-.0436,1.8248.349,2.4586.3742.6041,1.07,1.2523,1.8164,1.0511a.094.094,0,0,0,.0658-.1284Z"/>
        </g>
        <path class="cls-2" d="M72.5378,52.3484a5.04,5.04,0,0,0,1.9631,4.2186c1.3126.8667,3.646-.4638,4.2674-1.7553a.7991.7991,0,0,0-.898-1.1474,3.8919,3.8919,0,0,0-1.2506.7532c-.7086.5247-1.2857.789-1.8868-.0528a7.0172,7.0172,0,0,0-1.866-2.1655.2259.2259,0,0,0-.3291.1492Z"/>
        <g>
          <path class="cls-1" d="M17.0626,122.094c1.6817,6.6494,8.417,13.3491,14.8676,14.8477.54.1256.7123-.6207.2926-.894-2.8974-1.887-5.8555-3.5359-8.4116-5.9391-2.5758-2.4218-4.3433-5.346-6.4036-8.195a.1965.1965,0,0,0-.345.18Z"/>
          <path class="cls-1" d="M14.647,127.8522c.195,6.2442,7.8386,10.54,12.2412,13.4439.3681.2427.6309-.3233.3862-.6028-2.0352-2.3255-4.5819-3.9379-6.9016-5.9266a26.21,26.21,0,0,1-5.4275-7.0212.164.164,0,0,0-.2983.1067Z"/>
          <path class="cls-1" d="M12.0829,133.9074c-1.0159,1.78,2.1,4.5007,3.2433,5.6576a31.6218,31.6218,0,0,0,7.8458,5.9312c.4813.2461.899-.4249.51-.7965-1.81-1.7314-3.9035-3.0805-5.7936-4.7137q-1.2654-1.0935-2.442-2.2947c-.8849-.9039-2.6287-2.4471-2.9352-3.7559-.0517-.2207-.3375-.1878-.4287-.028Z"/>
          <path class="cls-1" d="M9.36,139.92c.317,2.54,2.3539,4.3286,4.05,6.0231a35.8122,35.8122,0,0,0,7.1661,5.5495c.3769.2221.7383-.36.4138-.6459-3.7486-3.3044-8.5235-6.7024-11.1016-11.1156a.29.29,0,0,0-.5279.1889Z"/>
          <path class="cls-1" d="M38.2436,142.038c-.953,1.3083-1.76,4.2144-.2287,5.444,1.6566,1.3305,3.66-.71,4.3935-2.1392.7924-1.5444,1.3217-4.4874-.4935-5.5555-1.8457-1.0861-3.9172.9182-4.3228,2.7038a.5483.5483,0,0,0,.9408.4822c.63-.6955,1.8611-3.4139,3.115-1.7823.7156.9312.2166,2.7138-.24,3.6368-.5236,1.0594-2.9173,3.3886-3.2619.7517a16.3492,16.3492,0,0,1,.2723-3.4518c.0081-.0932-.1081-.1815-.175-.09Z"/>
          <path class="cls-1" d="M43.248,91.2665c3.8725,2.5409,10.7511,3.0024,14.7216.5044a.57.57,0,0,0-.3454-1.0252c-2.2718.1844-4.414.9738-6.7216,1.0474a66.93,66.93,0,0,1-7.6265-.6123.0459.0459,0,0,0-.0281.0857Z"/>
          <path class="cls-1" d="M48.507,87.1024c3.0193,1.7378,8.41,2.0872,11.3887.1459a.5843.5843,0,0,0-.3535-1.0491c-1.8306-.0421-3.6708.6131-5.5209.731-1.8339.1168-3.6745-.0267-5.505.1228a.0265.0265,0,0,0-.0093.0494Z"/>
          <path class="cls-1" d="M50.3634,83.11c2.71,1.42,6.9146,1.0118,9.5331-.4436a.616.616,0,0,0-.3735-1.1086c-1.5341.2563-2.9863.7933-4.54.9954-1.5334.1994-3.0917.1781-4.6079.495a.0332.0332,0,0,0-.0116.0618Z"/>
          <path class="cls-1" d="M52.1267,78.8348c2.2291,1.125,5.9773.7039,8.0908-.5147a.6494.6494,0,0,0-.3937-1.1683c-1.3776.1594-2.7121.67-4.0848.908a22.5026,22.5026,0,0,0-3.605.6428.0738.0738,0,0,0-.0073.1322Z"/>
          <path class="cls-1" d="M49.0238,59.1913c.6932.9028,1.5523,1.7072,2.31,2.5572a23.8252,23.8252,0,0,0,2.4219,2.83c.3583.2885.9959-.0524.7843-.5516a10.5336,10.5336,0,0,0-2.2533-2.84,13.31,13.31,0,0,0-2.8967-2.4333.2972.2972,0,0,0-.3667.4376Z"/>
          <path class="cls-1" d="M54.2793,57.1274a19.0382,19.0382,0,0,0,1.6144,2.1746,15.2882,15.2882,0,0,0,1.5329,2.102c.3558.3126.7894-.0692.6938-.488a6.04,6.04,0,0,0-1.5144-2.27,5.6263,5.6263,0,0,0-2.2151-1.6513.0907.0907,0,0,0-.1116.1332Z"/>
          <path class="cls-1" d="M57.2069,53.9724a11.6328,11.6328,0,0,0,1.76,2.3025,21.5915,21.5915,0,0,0,1.8654,2.4039.4526.4526,0,0,0,.714-.5021A8.1078,8.1078,0,0,0,59.6984,55.6a5.6119,5.6119,0,0,0-2.3625-1.782.1161.1161,0,0,0-.129.154Z"/>
          <path class="cls-1" d="M60.9108,51.6481a14.3426,14.3426,0,0,0,1.3616,1.8277,9.0817,9.0817,0,0,0,1.38,1.7285.428.428,0,0,0,.6737-.4738A6.6408,6.6408,0,0,0,61.02,51.477c-.0962-.0339-.1523.0974-.1093.1711Z"/>
          <path class="cls-1" d="M64.295,49.6341a4.1505,4.1505,0,0,0,.5608,1.2683c.2464.3833.52.8824.9531,1.0514a.4911.4911,0,0,0,.6622-.6082,2.4912,2.4912,0,0,0-.8679-1.1321,3.8885,3.8885,0,0,0-1.1165-.7554.1419.1419,0,0,0-.1917.176Z"/>
          <path class="cls-1" d="M35.2015,153.25c-.6336.848-1.3092,2.9578-.1957,3.7305,1.2349.8571,2.4-.835,2.8693-1.79.5375-1.0934,1.1448-3.0915-.3551-3.6868-1.348-.535-2.692.7774-3.0854,2.011-.1182.371.3857.5337.6017.3085.5333-.5561.85-1.5492,1.726-1.64,1.5359-.1583.9255,1.905.5587,2.7215a5.1441,5.1441,0,0,1-.623,1.0781c-.453.5747-1.4793.9416-1.7791-.0786a5.1681,5.1681,0,0,1,.3482-2.6206.0382.0382,0,0,0-.0656-.0336Z"/>
          <g>
            <g>
              <path class="cls-2" d="M52.7505,125.603c-.3417-3.1308-5.1209-3.7388-7.3134-4.8364a39.8034,39.8034,0,0,1-15.37-13.8322,10.3473,10.3473,0,0,0,.4626-.99c.5995-1.4987,1.0909-3.043,1.5708-4.5868,1.0806-3.4764,1.9067-7.026,2.7508-10.5713,1.67-7.0166,3.247-14.12,5.9958-20.7812A46.6073,46.6073,0,0,1,53.7751,51.867c6.1626-5.1706,13.4344-7.7749,20.5482-11.1262,2.012-.9479.9964-4.1974-1.172-3.4288-14.4986,5.14-27.482,13.7372-34.3643,28.3635-3.119,6.6283-4.9954,13.83-6.6281,20.9869-.847,3.7126-1.6891,7.4246-2.5713,11.1282-.4581,1.9232-.9176,3.8429-1.4086,5.7574-.0962.3751-.17.7393-.2452,1.1041a1.9733,1.9733,0,0,0-1.8051.9652,32.945,32.945,0,0,0-3.3777,6.93,1.7955,1.7955,0,0,0-2.8347.4966c-4.37,6.955-7.4938,14.92-10.79,22.4571C5.88,142.9257,2.2082,150.4631.2711,158.3965c-.1859.7614.9273,1.3914,1.3784.7065,4.3645-6.6254,7.1665-14.4019,10.4-21.6673,2.9082-6.534,5.6489-13.51,9.2886-19.7232,5.0516,10.03,13.1924,19.3726,24.2485,20.0837a2.2615,2.2615,0,0,0,1.0233.0431c.1775.0027.3563.0015.5353,0-1.9962,6.2606-4.5572,12.3732-6.9961,18.4346q-2.3666,5.8822-4.8325,11.72c-1.2163,2.8746-2.9641,5.8859-3.3246,9.0357a1.7481,1.7481,0,0,0,2.9975,1.5365c2.1306-2.2722,3.1328-5.6439,4.33-8.5111q2.594-6.2121,5.0681-12.4779c2.8256-7.1427,5.8573-14.3406,7.9021-21.7817a2.2424,2.2424,0,0,0-2.2816-2.6925c-.0482.008-.0938.0071-.1418.0146.3934-.8143.7847-1.63,1.1584-2.4545C51.6832,129.2107,52.9348,127.2923,52.7505,125.603Zm-28.2372-9.82c1.1185-1.8561,2.03-3.8639,3.0547-5.7933a.523.523,0,0,0,.2614.0642,42.1979,42.1979,0,0,0,8.1122,9.5743A41.22,41.22,0,0,0,41.95,123.89q1.5644.9185,3.2061,1.6868c.5177.2419,1.97.5934,2.872,1.01a38.2394,38.2394,0,0,1-3.159,6.63C35.7164,132.1588,28.87,124.1844,24.5133,115.783Z"/>
              <path class="cls-2" d="M33.7183,179.4026a1.888,1.888,0,0,1-.7929-.1777,2.1235,2.1235,0,0,1-1.1817-2.2237,23.5048,23.5048,0,0,1,2.39-6.9853c.3305-.7139.6577-1.4209.9536-2.1192,1.5859-3.749,3.2114-7.69,4.83-11.7168l1.0279-2.5439c2.0459-5.0557,4.16-10.2793,5.8569-15.5449-.0654,0-.1308-.001-.1958-.002a2.398,2.398,0,0,1-1.085-.0517c-12.5439-.8018-20.4794-12.5616-24.1977-19.8028a144.92,144.92,0,0,0-7.0869,14.8194c-.6529,1.5078-1.3013,3.0068-1.9585,4.4834-.7764,1.7431-1.5415,3.5507-2.2822,5.2978-2.3643,5.5811-4.8091,11.3526-8.1377,16.4053a.905.905,0,0,1-1.1685.3144,1.0808,1.0808,0,0,1-.6616-1.2177c1.6245-6.6534,4.4824-13.0684,7.2466-19.2725.5459-1.2246,1.09-2.4453,1.6225-3.6641q.8621-1.9716,1.7163-3.9755c2.691-6.2715,5.4732-12.7569,9.09-18.5137a2.2421,2.2421,0,0,1,1.5976-1.0938,1.9188,1.9188,0,0,1,1.3223.3116,34.5159,34.5159,0,0,1,3.29-6.6407,2.2459,2.2459,0,0,1,1.8169-1.0927c.064-.31.128-.6065.2056-.91.4868-1.8975.9438-3.8047,1.4077-5.7529.8022-3.3682,1.585-6.8008,2.3413-10.1206l.2295-1.0054c1.59-6.9712,3.4961-14.3447,6.646-21.0376C44.6539,52.62,56.2637,43.0335,73.0679,37.0764a1.8327,1.8327,0,0,1,2.4161,1.07A2.1616,2.1616,0,0,1,74.43,40.9671c-1.501.707-3.0308,1.3906-4.51,2.0517C64.1876,45.58,58.773,48,53.9356,52.0584A46.121,46.121,0,0,0,41.0777,70.1c-2.5156,6.0961-4.07,12.663-5.5737,19.0136l-.5723,2.4116c-.7764,3.2666-1.5791,6.6446-2.5928,9.9063-.4858,1.5625-.9721,3.0908-1.5776,4.6055-.1152.288-.2451.5713-.4053.8828a39.51,39.51,0,0,0,15.1929,13.623,17.5,17.5,0,0,0,2.0234.7774c2.2964.7841,5.1543,1.7607,5.4268,4.2548h0c.1528,1.4024-.6021,2.8956-1.2681,4.2129-.1733.3428-.3393.6709-.4785.9786-.3144.6943-.6421,1.3828-.9727,2.0693a2.2851,2.2851,0,0,1,1.6338.8017,2.4374,2.4374,0,0,1,.6177,2.2237,178.9341,178.9341,0,0,1-6.6728,18.6972q-.6219,1.5572-1.2383,3.11c-1.6929,4.28-3.3985,8.48-5.07,12.4824-.24.5742-.4722,1.17-.7071,1.7725-.9516,2.4394-1.936,4.9629-3.6714,6.8125A1.9926,1.9926,0,0,1,33.7183,179.4026Zm13.77-41.8174-.1049.33c-1.72,5.3945-3.8833,10.7393-5.9751,15.9082l-1.0274,2.5439c-1.6206,4.0274-3.2471,7.9727-4.834,11.7247-.2978.7031-.6269,1.414-.96,2.1337a23.1174,23.1174,0,0,0-2.3462,6.8321,1.63,1.63,0,0,0,.8945,1.7129,1.4127,1.4127,0,0,0,1.6724-.376c1.6689-1.7793,2.6352-4.2569,3.57-6.6524.2363-.6064.47-1.205.7119-1.7841,1.6695-3.9991,3.374-8.1963,5.0659-12.4727q.6146-1.5542,1.2388-3.1123a178.4455,178.4455,0,0,0,6.6548-18.6445,1.9341,1.9341,0,0,0-.5068-1.7559,1.6789,1.6789,0,0,0-1.4932-.623c-.0322.0048-.0625.0078-.0933.01l-.4741.0772.16-.4278c.3921-.8125.7827-1.6269,1.1557-2.4492.1416-.3125.3106-.6474.4873-.997.6348-1.2549,1.354-2.6778,1.2173-3.9327h0c-.2378-2.1787-2.8164-3.0595-5.0913-3.8359a17.8785,17.8785,0,0,1-2.0854-.8037,40.0252,40.0252,0,0,1-15.4678-13.919l-.0811-.123.0689-.13a10.2552,10.2552,0,0,0,.4521-.9668c.5987-1.498,1.0811-3.0156,1.564-4.5683,1.0088-3.2452,1.81-6.6153,2.584-9.8736l.5722-2.4111c1.5079-6.37,3.0669-12.9566,5.5982-19.0889A46.6082,46.6082,0,0,1,53.6143,51.6755c4.8911-4.1035,10.59-6.65,16.1011-9.1132,1.4775-.66,3.0049-1.3423,4.5015-2.0474a1.6483,1.6483,0,0,0,.8046-2.1787,1.34,1.34,0,0,0-1.7866-.7881c-16.6733,5.9107-28.1875,15.41-34.2217,28.2339-3.1293,6.65-5.0263,13.9922-6.6108,20.936l-.229,1.0054c-.7568,3.3208-1.54,6.7544-2.3428,10.1245-.4643,1.9512-.9218,3.86-1.41,5.7627-.0928.3613-.1651.7129-.2369,1.0645l-.0454.22-.2285.0058a1.7231,1.7231,0,0,0-1.5679.8457,32.8064,32.8064,0,0,0-3.3525,6.876l-.12.38L22.58,112.73a1.4788,1.4788,0,0,0-1.2144-.416,1.7468,1.7468,0,0,0-1.2373.8633c-3.5972,5.7246-6.3716,12.1914-9.0547,18.4453q-.8585,2.001-1.7178,3.98c-.5327,1.2188-1.0771,2.44-1.6235,3.667C4.9766,145.4524,2.1275,151.846.5137,158.4563a.5827.5827,0,0,0,.376.64.4148.4148,0,0,0,.5508-.1309c3.3037-5.0137,5.74-10.7637,8.0957-16.3242.7412-1.75,1.5073-3.56,2.2852-5.3067.6567-1.4755,1.3046-2.9726,1.9565-4.48a141.1741,141.1741,0,0,1,7.3447-15.2685l.2324-.3965.2066.41c3.5771,7.1025,11.457,19.1377,24.0415,19.9472a2.14,2.14,0,0,0,.96.0469c.227-.0019.4033-.0029.58-.0049Zm-2.4819-4.1006-.167-.0195c-10.5874-1.2246-17.4189-11.5313-20.5488-17.5664l-.064-.124.0718-.12c.7231-1.2,1.3721-2.4893,2-3.7354.3447-.6855.69-1.3711,1.0488-2.0469l.1187-.2236.2226.1221a.28.28,0,0,0,.1353.0332l.1416-.003.0757.12a41.896,41.896,0,0,0,8.0635,9.5175,40.847,40.847,0,0,0,5.9716,4.2354c1.042.6123,2.1138,1.1758,3.1856,1.6758a10.7441,10.7441,0,0,0,1.0547.3632,16.0672,16.0672,0,0,1,1.8164.6475l.1992.0918-.0654.209a34.57,34.57,0,0,1-2.8741,6.1221ZM24.7994,115.7922c3.0957,5.9307,9.7392,15.878,19.9316,17.1563l.2237-.4063a35.5778,35.5778,0,0,0,2.7661-5.8164c-.4659-.1943-1.04-.375-1.5537-.5361a10.67,10.67,0,0,1-1.1172-.3867c-1.0855-.5068-2.1714-1.0781-3.2266-1.6973a41.358,41.358,0,0,1-6.0449-4.2881,42.3451,42.3451,0,0,1-8.0908-9.5195c-.3208.61-.6319,1.2285-.9424,1.8457C26.1343,113.3577,25.503,114.6116,24.7994,115.7922Z"/>
            </g>
            <g>
              <path class="cls-2" d="M82.233,79.5552c.0447-.16.0935-.32.1271-.4829.4185-2.0286-.4745-5.426-2.457-6.2036a8.4588,8.4588,0,0,0,1.0847-4.1168,5.5987,5.5987,0,0,0-4.0329-5.5306,24.0616,24.0616,0,0,0,1.8026-3.3373c2.0737-4.806,1.7689-10.8174-2.6027-14.1671a1.26,1.26,0,0,0-1.7719.1236A210.4694,210.4694,0,0,1,58.7044,60.898c-2.5786,2.2225-5.2189,4.3608-7.8942,6.4566-2.529,1.9814-5.4094,3.8279-7.4984,6.32a.446.446,0,0,0,.4672.7116c3.0226-1.053,5.716-3.2223,8.2773-5.1406,3-2.2469,5.9238-4.6085,8.7863-7.0394A195.493,195.493,0,0,0,75.3964,48.4673c4.1449,4.2513.9448,10.7943-2.3036,14.72a51.58,51.58,0,0,1-6.0158,6.1784c-1.8086,1.5608-4.326,2.7364-5.871,4.5624-1.2908,1.5255-1.0318,3.348-.9735,5.24a33.35,33.35,0,0,1-.9275,9.0693,25.0112,25.0112,0,0,1-9.7823,14.1111c-1.1721.8617-.24,2.9318,1.1679,2.3837,5.5316-2.1535,9.27-7.0551,11.2112-12.7541a31.6585,31.6585,0,0,0,1.6552-9.2951,18.5613,18.5613,0,0,0-.15-2.3663,4.8534,4.8534,0,0,0,.927,1.4359,3.9358,3.9358,0,0,0,2.0466,1.1563,6.8813,6.8813,0,0,0-.7849,5.12c1.2849,3.9688,5.7205,2.0511,8.1377.56a26.6866,26.6866,0,0,0,6.4175-5.2661c-.75,4.38-4.2184,7.8964-6.7743,11.4193-2.7582,3.8015-4.3175,8.0135-6.065,12.37-1.795,4.4745-4.1341,8.9189-8.7345,10.7566-4.7345,1.8913-9.17.2519-13.8885-.6433-.2168-.041-.4489.2414-.2827.443,3.199,3.88,9.0306,4.5436,13.566,3.5368,5.0423-1.1193,8.5609-4.7057,10.8834-9.33,2.8367-5.6485,4.4776-11.3957,8.31-16.5021,3.4641-4.6155,6.4674-9.5974,5.1258-15.6892A.8705.8705,0,0,0,82.233,79.5552ZM65.4378,74.6967c.5393-.3525,1.0833-.673,1.4985-.9965a49.6506,49.6506,0,0,0,7.7483-7.361,1.3567,1.3567,0,0,0,.4826-.1047c1.9878-.8356,3.4733,1.332,3.2872,3.2325A7.4419,7.4419,0,0,1,76.98,72.8706a30.0423,30.0423,0,0,1-3.4439,3.8914c-1.4311,1.4224-5.533,5.4986-7.8789,3.6028C63.8709,78.9216,64.7738,76.62,65.4378,74.6967ZM79.117,79.7738c-1.0019,2.0618-3.1232,3.6652-4.8062,5.07a21.35,21.35,0,0,1-2.4516,1.8188,10.0506,10.0506,0,0,1-1.9445,1.0109Q68.379,88.7,68.14,86.7745c-.8584-1.7476-.0624-2.7259.5721-3.9986a16.6442,16.6442,0,0,0,5.9983-3.8539,36.1336,36.1336,0,0,0,3.5457-3.6232c.0636.0665.1274.1342.1915.2119C79.6263,76.9415,79.9468,78.0663,79.117,79.7738Z"/>
              <path class="cls-2" d="M54.1177,121.8713c-3.5527,0-7.43-1.0419-9.9043-4.0439a.4913.4913,0,0,1-.0395-.5762.56.56,0,0,1,.5615-.2724c.8667.165,1.7241.3545,2.5752.5429,3.7954.8379,7.3794,1.6309,11.1738.1143,4.5376-1.8125,6.8125-6.1738,8.5957-10.6172l.4571-1.1445c1.5957-4.0039,3.103-7.7862,5.6377-11.2783.5464-.7539,1.1465-1.5225,1.7265-2.2647,1.9727-2.5268,4.0064-5.1313,4.8-8.12a28.3664,28.3664,0,0,1-5.8364,4.5908c-1.5176.936-4.3774,2.3911-6.481,1.6177a3.3878,3.3878,0,0,1-2.0263-2.3135,7.0857,7.0857,0,0,1,.6455-5.0356,4.38,4.38,0,0,1-2.2359-1.606,11.6807,11.6807,0,0,1,.04,1.2256,32.0261,32.0261,0,0,1-1.6685,9.3686C59.99,98.3665,55.9561,102.95,50.7813,104.9651a1.4314,1.4314,0,0,1-1.8174-.69,1.6347,1.6347,0,0,1,.4107-2.128,24.8351,24.8351,0,0,0,9.6875-13.97,32.8823,32.8823,0,0,0,.92-9.001c-.0068-.2207-.0161-.44-.0259-.6586-.0708-1.6368-.144-3.3287,1.0586-4.75a16.8849,16.8849,0,0,1,3.5322-2.8628,25.0562,25.0562,0,0,0,2.3658-1.7276,51.4381,51.4381,0,0,0,5.9873-6.1479c1.2373-1.4956,7.1049-9.1333,2.4946-14.1988A196.6372,196.6372,0,0,1,61.0045,62.3963c-3.0806,2.6162-5.9585,4.9223-8.7984,7.0493l-.7671.5776a28.9755,28.9755,0,0,1-7.5781,4.5991.6714.6714,0,0,1-.7729-.2636.6917.6917,0,0,1,.0317-.8453,32.6,32.6,0,0,1,5.6484-4.9253c.6392-.476,1.274-.9492,1.8877-1.43,2.98-2.3345,5.5586-4.4439,7.8858-6.4492a211.2231,211.2231,0,0,0,15.6591-15.04,1.5,1.5,0,0,1,2.106-.15c4.6318,3.5483,4.6836,9.8218,2.68,14.4644a23.5209,23.5209,0,0,1-1.6406,3.0844,5.9362,5.9362,0,0,1,3.8916,5.68,8.4811,8.4811,0,0,1-.9917,4.0015c2.0073,1.0288,2.7573,4.44,2.3584,6.373-.0284.1372-.066.272-.1045.4068a.4277.4277,0,0,1,.0356.1c1.4146,6.4249-1.9267,11.5723-5.17,15.8931a49.8812,49.8812,0,0,0-5.71,10.78c-.7988,1.8623-1.625,3.7891-2.5766,5.6836-2.6289,5.2344-6.3472,8.4189-11.0528,9.4629A18.2524,18.2524,0,0,1,54.1177,121.8713Zm-9.4751-4.4a.0807.0807,0,0,0-.0429.0459c3.2959,3.9912,9.2348,4.35,13.3183,3.4443,4.5518-1.01,8.1563-4.1055,10.7139-9.1992.9453-1.8809,1.7686-3.8008,2.5645-5.6563a50.3078,50.3078,0,0,1,5.769-10.8838c3.1768-4.2314,6.4512-9.2671,5.082-15.4848l-.0771-.17.0483-.1719c.0352-.1235.07-.2476.0967-.3735.3853-1.8687-.4121-5.1783-2.3037-5.92l-.2612-.1025.1318-.2476a8.1366,8.1366,0,0,0,1.0557-3.9956A5.3647,5.3647,0,0,0,76.9,63.4651l-.3457-.0781.19-.2993a23.7274,23.7274,0,0,0,1.7842-3.3028c1.9263-4.4643,1.8926-10.4844-2.5249-13.87a1.0129,1.0129,0,0,0-1.438.0967A211.8422,211.8422,0,0,1,58.8677,61.0877c-2.333,2.01-4.9179,4.125-7.9033,6.4638-.6172.4834-1.2549.959-1.8974,1.4375a32.2121,32.2121,0,0,0-5.564,4.8457.1964.1964,0,0,0-.0034.24.172.172,0,0,0,.1972.0752,28.6,28.6,0,0,0,7.441-4.5259l.7685-.5786c2.8316-2.1206,5.7017-4.42,8.7749-7.03A196.35,196.35,0,0,0,75.2159,48.2942l.1792-.187.1806.1855c4.0542,4.1582,1.4751,10.5035-2.29,15.0542A51.8755,51.8755,0,0,1,67.24,69.5554a25.6018,25.6018,0,0,1-2.4131,1.7637,16.5055,16.5055,0,0,0-3.43,2.771c-1.0766,1.272-1.0107,2.7939-.9409,4.4048.01.2207.02.4424.0264.665a33.3946,33.3946,0,0,1-.9351,9.1377,25.3277,25.3277,0,0,1-9.8769,14.2515,1.14,1.14,0,0,0-.2686,1.4844.93.93,0,0,0,1.1978.4658c5.0351-1.961,8.9653-6.4356,11.0654-12.6026a31.4824,31.4824,0,0,0,1.6421-9.2212,17.67,17.67,0,0,0-.1416-2.2661l-.1685-1.6279.6387,1.4336a4.5638,4.5638,0,0,0,.8779,1.3638,3.6731,3.6731,0,0,0,1.919,1.0854l.3428.0728-.18.3a6.5934,6.5934,0,0,0-.7617,4.9145A2.9147,2.9147,0,0,0,67.5572,89.95c1.9766.7271,4.8857-.8588,6.0454-1.5742a25.8874,25.8874,0,0,0,6.3564-5.2129l.5967-.7192-.1577.9209c-.6015,3.5093-2.89,6.44-5.1025,9.2739-.604.7735-1.1748,1.5039-1.7163,2.25-2.4976,3.4424-3.9937,7.1963-5.5777,11.1709l-.4575,1.1446c-1.8242,4.5468-4.1621,9.0136-8.874,10.8964-3.9385,1.5752-7.5952.7647-11.4673-.0908C46.3565,117.8225,45.504,117.634,44.6426,117.471ZM69.0089,88.2825a.9236.9236,0,0,1-.3877-.0825c-.3892-.1783-.6265-.6211-.7237-1.3531a3.5425,3.5425,0,0,1,.3355-3.6909c.0849-.1606.1718-.3237.2558-.4917l.0494-.1.1069-.03a15.8175,15.8175,0,0,0,5.897-3.7969,36.0233,36.0233,0,0,0,3.521-3.5976l.18-.22.1954.2065c.0673.0708.1347.1421.2026.2241,1.1274,1.3692,1.6377,2.6045.7007,4.5318h.0005a15.4948,15.4948,0,0,1-4.3291,4.7041l-.542.4482a21.7673,21.7673,0,0,1-2.48,1.84,10.3327,10.3327,0,0,1-1.9859,1.0307A1.8271,1.8271,0,0,1,69.0089,88.2825Zm-.1221-5.2969c-.07.1377-.1421.2725-.2124.4048-.5571,1.0478-.9971,1.875-.31,3.2739l.0234.08c.0689.5547.2212.9009.441,1.001.2583.12.6572-.086.9463-.28a10.3759,10.3759,0,0,0,1.9453-1.0107,21.4007,21.4007,0,0,0,2.43-1.8028l.5444-.4507a15.11,15.11,0,0,0,4.1968-4.5366h.0005c.7343-1.5107.5761-2.5176-.628-3.9839A37.9738,37.9738,0,0,1,74.88,79.1062,16.3051,16.3051,0,0,1,68.8868,82.9856Zm-1.7891-1.8711A2.47,2.47,0,0,1,65.5,80.5593c-1.8457-1.4912-1.0357-3.8213-.3848-5.6933l.1148-.3321.0717-.0468c.16-.104.3194-.2056.4766-.3052.3706-.2354.7212-.458,1.0044-.6787A49.2659,49.2659,0,0,0,74.4918,66.18l.0713-.0864.1118-.0044a1.0834,1.0834,0,0,0,.395-.0849,2.2729,2.2729,0,0,1,2.3042.25,3.7175,3.7175,0,0,1,1.33,3.2369,7.4639,7.4639,0,0,1-1.52,3.5229,30.5013,30.5013,0,0,1-3.4721,3.9248C72.4537,78.19,69.5108,81.1145,67.0977,81.1145Zm-1.4516-6.2554-.0591.1709c-.63,1.814-1.3452,3.87.227,5.1407,2.1714,1.7519,6.2163-2.2657,7.5454-3.586a30.0385,30.0385,0,0,0,3.4156-3.8584,6.9937,6.9937,0,0,0,1.4306-3.2837,3.1932,3.1932,0,0,0-1.1284-2.7856,1.7606,1.7606,0,0,0-1.8135-.1919,1.5809,1.5809,0,0,1-.4546.1157A49.9825,49.9825,0,0,1,67.09,73.8977c-.3027.2354-.6631.4644-1.0444.7061C65.9141,74.6878,65.78,74.7727,65.6461,74.8591Z"/>
            </g>
          </g>
          <path class="cls-2" d="M64.6765,91.0954c.5676,1.6292,1.8735,2.9519,2.7434,4.4213,1.1462,1.9363,1.2575,3.8393,1.8937,5.93a.9564.9564,0,0,0,1.8411-.1284c1.1541-3.7554-2.7792-9.5848-6.3922-10.3255a.0777.0777,0,0,0-.086.1026Z"/>
          <path class="cls-2" d="M63.84,78.3794c1.0756-1.3914,1.3052-3.3218,2.78-4.425a2.8124,2.8124,0,0,1,2.5913-.54c.6733.2177,1.0585.7761,1.7273,1.0025.3794.1285.6738-.2764.6761-.6154.0156-2.3023-3.4468-2.3236-4.8365-1.5924A6.23,6.23,0,0,0,63.73,78.3408c.01.0509.0728.0872.11.0386Z"/>
        </g>
        <path class="cls-2" d="M70.8392,85.4656c.7276.2763,1.494-.2966,1.9332-.8637.459-.5926,1.0156-1.6754.603-2.4116a.526.526,0,0,0-.9133,0,2.6489,2.6489,0,0,0-.26.9279,2.909,2.909,0,0,1-.3775.83c-.3112.493-.7634.867-1.0384,1.3829a.0941.0941,0,0,0,.0527.1344Z"/>
        <path class="cls-2" d="M97.6969,6.6993c.3252,1.8462,1.7231,3.3544,2.83,4.7707,1.3077,1.6738,2.6729,3.3056,4.0628,4.9064,1.924,2.2159,5.0682-1.0629,3.1519-3.27a36.7606,36.7606,0,0,0-4.7121-4.5875c-1.4224-1.1415-2.9276-2.4275-4.7858-2.5637-.3965-.0291-.6075.397-.5464.7441Z"/>
        <path class="cls-2" d="M121.06.0894c-1.08,1.1969-1.13,3.0749-1.1851,4.6409-.0678,1.94-.2883,4.3342.7173,6.0261a1.6631,1.6631,0,0,0,3.0379-.4119c.668-1.7041.0515-3.9735-.2647-5.7364-.2821-1.5724-.5994-3.4831-1.878-4.5187a.3012.3012,0,0,0-.4274,0Z"/>
        <path class="cls-2" d="M143.5581,7.6768c-1.9683.17-3.6443,1.4-5.2026,2.5791a43.1384,43.1384,0,0,0-5.0879,4.5453,2.4435,2.4435,0,0,0-.3485,2.8021,1.7807,1.7807,0,0,0,.8.8295,2.2387,2.2387,0,0,0,2.7008-.3616c1.5389-1.6047,3.0547-3.2412,4.5187-4.92,1.2312-1.4118,2.6359-2.8646,3.1663-4.73a.5878.5878,0,0,0-.5464-.7441Z"/>
        <path class="cls-2" d="M96.3452,80.2067c1.8686-.0381,3.561-1.2173,5.0522-2.2893a40.7138,40.7138,0,0,0,4.9625-4.2321,2.3939,2.3939,0,0,0,.3485-2.802,3.9173,3.9173,0,0,0-.8-.83,2.1774,2.1774,0,0,0-2.7008.3615c-1.4953,1.4919-2.9662,3.0192-4.3824,4.5923-1.18,1.3109-2.553,2.6828-3.0268,4.455a.5894.5894,0,0,0,.5464.7441Z"/>
        <path class="cls-2" d="M119.0428,87.8038c1.3059-.8974,1.7814-2.6748,2.1814-4.1713.4962-1.8565,1.2706-4.18.6764-6.053a1.6634,1.6634,0,0,0-3.0379-.4119c-1.0748,1.5567-1.0066,4.1093-1.07,5.9831-.0521,1.5549-.0922,3.3408.8833,4.6041a.2943.2943,0,0,0,.3663.049Z"/>
        <path class="cls-2" d="M142.21,81.0866c-.3842-1.9922-1.866-3.6286-3.0434-5.1861-1.3157-1.74-2.6919-3.4392-4.0833-5.1147a2.1687,2.1687,0,0,0-2.7008-.3615c-3.6729,2.8942,6.39,10.9912,9.1305,11.3854a.5873.5873,0,0,0,.697-.7231Z"/>
        <g>
          <path class="cls-2" d="M116.4329,45.4856c-.6779-.6284-1.3722-1.2376-2.0583-1.8554.5685-.4481,2-2.0256,2.0471-2.0651.2555-.2154.5233-1.4113-1.0336-1.4564-1.8119-.0525-2.5029-.13-4.3126-.1564.1041-3.9224-.5829-8.1194-4.8245-9.0555-4.986-1.1-11.2331-.7477-16.6385-.7388-3.7214.0062-9.5455-.29-12.3754,2.8389-2.8526,3.1539-2.2354,9.0818-2.4524,13.0075-.0773,1.3979,2.0188,1.3933,2.0958,0,.1784-3.2274-.3548-8.1958,1.52-10.9692,2.0788-3.0757,8.0353-2.5221,11.2648-2.6485,3.5952-.1407,7.2157-.0467,10.8094.1285,2.2718.1107,4.7695-.0806,6.6629,1.3322,1.9713,1.4709,1.9365,3.7445,1.8478,6.0837-1.6026-.0025-3.2053.0132-4.808.0577-.0861-4.4856-8.4126-3.7808-11.7876-3.7246a44.0272,44.0272,0,0,0-8.4113.5A3.7919,3.7919,0,0,0,80.9924,40.32c-.2373,3.37-.557,6.4823.1725,9.8091A4.2211,4.2211,0,0,0,85.156,53.653a73.2706,73.2706,0,0,0,10.1326.1143c2.619-.0423,5.2076.1825,7.3-1.7125a.9545.9545,0,0,0,.3343-.6632l6.568-.0444a13.1177,13.1177,0,0,1-.1856,3.8254c-.4731,2.044-2.185,2.7608-4.0071,3.0554a63.5221,63.5221,0,0,1-9.3482.4826c-2.783.0341-5.5666.0567-8.35.0056-2.4546-.045-7.2011.59-8.7712-1.8526-.7448-1.1586-2.5609-.0712-1.81,1.0974,1.5972,2.4848,4.2653,2.6876,6.93,2.8179,4.6842.2291,9.3841.1515,14.071.0782,3.261-.051,8.0389.33,10.9656-1.4739,2.5792-1.59,2.7781-5.202,2.5977-8.05,1.2048-.0081,1.2923-.0546,2.4968-.0244,2.6779.067,2.5143-1.0608,1.6714-1.8088-.5331-.473-1.12-.87-1.6915-1.2905.6193-.3117,1.2752-.5345,1.8906-.83C116.7585,46.9908,117.0755,46.0814,116.4329,45.4856Zm-2.7059-3.2607c-.32.2263-.6438.4485-.9788.6557a.8254.8254,0,0,0-.2771,1.0964c.5027.7452.9916,1.4308,1.532,2.0952-.6538.4106-1.3311.7873-1.9865,1.1857a.9215.9215,0,0,0-.1738,1.4c.153.1641.3031.3272.4531.4889-4.0935.0277-7.0692.0554-11.1626.0831-3.4951-.2156-3.4608-6.2951-.3609-6.9315C105.4643,42.07,109.0349,42.05,113.727,42.2249ZM86.7979,51.558a5.1823,5.1823,0,0,1-2.7442-.422c-1.1194-.8205-.9812-2.8911-1.0369-4.15-.0938-2.1169.2138-6.7212.2224-6.9975.0685-2.2024,18.96-2.8086,18.8528.0827-.6289.0255-1.2569.0683-1.8866.0747-3.17.0319-3.9181,3.92-3.7988,6.3164A4.9379,4.9379,0,0,0,99.883,51.178C97.9814,51.7892,89.0369,51.6,86.7979,51.558Z"/>
          <path class="cls-2" d="M91.0035,61.1809c-2.356,0-4.7217-.0376-7.0664-.1523-2.5376-.124-5.4136-.2647-7.1284-2.9322a1.2276,1.2276,0,0,1,.39-1.749,1.2887,1.2887,0,0,1,1.8408.3809c1.2237,1.9043,4.6275,1.8159,7.1138,1.7558.5337-.0141,1.0264-.0253,1.4517-.018,2.6225.05,5.2319.0337,8.3422-.0054l1.3326-.0127a52.9308,52.9308,0,0,0,7.9785-.4668c2.2256-.36,3.4341-1.27,3.8032-2.8647a12.3923,12.3923,0,0,0,.1948-3.5176l-6.1216.041a1.2511,1.2511,0,0,1-.3779.6c-1.9292,1.7476-4.2983,1.7588-6.5893,1.77-.2906.001-.5821.0025-.8746.0073-.7143.0118-1.4492.0328-2.1953.0538a52.3807,52.3807,0,0,1-7.9731-.17,4.4485,4.4485,0,0,1-4.2031-3.7187A30.3841,30.3841,0,0,1,80.68,41.17l.0625-.8682A4.0545,4.0545,0,0,1,83.9244,36.52a33.2424,33.2424,0,0,1,6.8413-.4927c.55-.002,1.0918-.0044,1.6191-.0132.3081-.0054.6577-.0156,1.0381-.0273,2.9732-.0918,7.9468-.2408,10.0244,1.7368a3.0648,3.0648,0,0,1,.9663,2.0088c1.3511-.0357,2.7627-.0625,4.3306-.0518.0776-2.1089.0894-4.2558-1.7563-5.6333-1.5284-1.14-3.5064-1.1933-5.4195-1.2446-.3725-.01-.7422-.02-1.1064-.0381-4.3335-.2109-7.6607-.252-10.7871-.1284-.5181.02-1.1065.0229-1.7378.0259-3.2315.0161-7.6568.0376-9.33,2.5131-1.4019,2.0738-1.416,5.4249-1.4282,8.3814-.0039.8818-.0073,1.7148-.0489,2.4614a1.3351,1.3351,0,0,1-1.435,1.2808,1.1841,1.1841,0,0,1-1.16-1.3081c.0425-.7671.0528-1.61.0635-2.503.0439-3.5888.0981-8.0556,2.4531-10.6586,2.6812-2.9644,7.8687-2.9366,11.6421-2.9239l.918.0025c1.0156-.0015,2.0615-.0157,3.1225-.0293,4.667-.0616,9.4937-.1255,13.57.7739,3.47.7656,5.1152,3.728,5.0263,9.0537.8975.0161,1.5161.0459,2.1792.0772.54.0258,1.11.0527,1.8853.0752.9985.0288,1.313.5078,1.4121.791a1.0936,1.0936,0,0,1-.2246,1.1064c-.0078.0088-.07.0757-.1621.1748-.3667.3931-1.1563,1.24-1.667,1.7031l.4409.3951c.4717.4213.9438.8427,1.4077,1.2734a1.2351,1.2351,0,0,1,.4092,1.1123,1.6358,1.6358,0,0,1-.9522,1.19c-.2885.1386-.5859.2617-.8838.3847-.2094.0864-.4194.1734-.6269.2661l.0552.04a16.6065,16.6065,0,0,1,1.3139,1.0181,1.3555,1.3555,0,0,1,.5743,1.437c-.2256.5713-1.0469.8374-2.418.8086-.72-.0176-1.0376-.0083-1.439.0039-.2143.0068-.4526.0141-.7871.0185.2188,4.125-.6758,6.7481-2.7309,8.0152-2.5093,1.5473-6.3262,1.53-9.3951,1.5092-.5962-.0034-1.1674-.0068-1.6977.002l-.19.0029C95.586,61.1453,93.2994,61.1809,91.0035,61.1809Zm-13.043-4.5625a.92.92,0,0,0-.4917.15.7205.7205,0,0,0-.2392,1.0576c1.5752,2.4512,4.3149,2.585,6.7319,2.7037,4.6138.2246,9.3179.1518,13.8652.0805l.19-.0029c.5337-.0083,1.1084-.0044,1.7085-.002,3.0058.0171,6.7421.0371,9.1294-1.435,1.9272-1.1875,2.7377-3.7456,2.4794-7.8213l-.0166-.2637.2642-.0019c.4746-.0035.7749-.0127,1.0386-.02.4092-.0127.7319-.0215,1.4668-.0044,1.6025.038,1.8906-.3663,1.94-.4917.0864-.22-.0869-.565-.4414-.88-.4009-.3555-.8452-.6763-1.2749-.9864l-.7271-.5312.3643-.1831c.3413-.1719.6948-.3179,1.0366-.459.29-.12.5782-.2388.8584-.3735a1.1541,1.1541,0,0,0,.6739-.813.7411.7411,0,0,0-.2544-.6719h0c-.462-.4282-.9317-.8472-1.4009-1.2666l-.875-.7847.2329-.1836c.437-.3447,1.4526-1.434,1.8354-1.8442.1182-.1269.1949-.2065.2056-.2153a.6492.6492,0,0,0,.0713-.5694c-.1294-.35-.5889-.436-.9512-.4462-.7788-.0225-1.3515-.05-1.894-.0757-.7188-.0342-1.3848-.0659-2.4146-.0806l-.2534-.0034.0068-.2534c.14-5.2793-1.3305-8.0772-4.6284-8.8047-4.02-.8877-8.8183-.8262-13.456-.7622-1.0635.0136-2.1109.0278-3.1284.0293l-.9209-.0025c-3.69-.0122-8.7383-.04-11.2691,2.7588-2.2285,2.4634-2.2793,6.6426-2.3242,10.33-.0112.8984-.0215,1.7466-.0645,2.5244a.6914.6914,0,0,0,.6885.7813.83.83,0,0,0,.9082-.8086c.0406-.7344.044-1.5611.0479-2.4361.0127-3.0278.0268-6.46,1.5141-8.66,1.8208-2.6944,6.399-2.7163,9.7422-2.7329.6245-.003,1.2071-.0054,1.72-.0259,3.1412-.1221,6.4815-.084,10.8311.1294.36.0171.7266.0273,1.0952.0371,1.9912.0537,4.05.1094,5.7051,1.3442,2.1269,1.5865,2.0317,4.0869,1.9482,6.293l-.0092.2412-.2413,0c-1.7373.0049-3.3125.0166-4.8007.0581l-.252.0069-.0049-.252a2.5758,2.5758,0,0,0-.8237-1.9077c-1.9258-1.833-6.7691-1.6865-9.665-1.5991-.3829.0112-.7349.0219-1.0445.0273-.53.0088-1.0737.0112-1.626.0132a32.8366,32.8366,0,0,0-6.7358.481,3.5035,3.5035,0,0,0-2.7891,3.3154l-.0639.8828a30.0143,30.0143,0,0,0,.23,8.8682,3.95,3.95,0,0,0,3.7784,3.33,51.7347,51.7347,0,0,0,7.895.1665c.7485-.0214,1.4853-.0424,2.2021-.0542.294-.0048.5874-.0063.88-.0073,2.2979-.0112,4.4683-.0215,6.2554-1.64a.7121.7121,0,0,0,.2524-.4927l.0132-.2344,7.0376-.0468.0161.2343a13.367,13.367,0,0,1-.1914,3.8985c-.5532,2.3886-2.668,2.9966-4.21,3.2456a53.3216,53.3216,0,0,1-8.0547.4736l-1.3306.0127c-3.1147.0381-5.728.0532-8.3569.0054-.4195-.0069-.9048.0044-1.43.018-2.606.0655-6.17.1563-7.5474-1.9853A.7633.7633,0,0,0,77.9605,56.6184Zm14.1621-4.749c-2.0752,0-4.0185-.0371-5.0952-.0571l-.2339-.0044c-.1264-.0025-.2632-.002-.4062-.001a4.3641,4.3641,0,0,1-2.4815-.4692c-1.061-.7779-1.0971-2.5083-1.123-3.7715-.0044-.2017-.0083-.3936-.0161-.5689-.08-1.8017.1308-5.42.2-6.6084.0127-.2217.0214-.3662.0224-.4082.01-.311.2417-.59.6895-.8291,2.8427-1.518,15.1679-1.8564,17.99-.0923a1.176,1.176,0,0,1,.6729,1.0215l-.0088.231-.8345.0376c-.43.021-.86.042-1.291.0464a2.8611,2.8611,0,0,0-2.13.9179c-1.1753,1.2486-1.5,3.5469-1.4209,5.1358a4.677,4.677,0,0,0,3.2988,4.4892l.7676.232-.7632.2451C98.82,51.7825,95.315,51.8689,92.1226,51.8694Zm-5.5429-.563c.0771,0,.1518,0,.2226.0015l.2344.0044a99.5445,99.5445,0,0,0,11.9707-.2095,5.2185,5.2185,0,0,1-2.85-4.6284c-.0884-1.7676.2739-4.1416,1.5561-5.5034a3.3441,3.3441,0,0,1,2.4893-1.0752c.4243-.0044.8477-.0249,1.271-.0459l.3081-.0142a1.08,1.08,0,0,0-.3779-.3525c-2.6543-1.6587-14.7984-1.3272-17.4893.11-.2671.1421-.4219.2891-.4253.4033-.0014.0435-.01.1929-.0234.4214-.0689,1.1827-.2783,4.7813-.2,6.5572.0083.1792.0122.375.0166.581.0239,1.1592.0566,2.7466.9189,3.3784a4.0507,4.0507,0,0,0,2.1831.3726C86.4517,51.3064,86.5167,51.3064,86.58,51.3064Zm14.5551-1.8271c-1.6289-.1-2.7583-1.4043-2.894-3.3233-.1245-1.76.688-3.7348,2.4814-4.1035,4.7676-.2349,8.2832-.2544,13.0142-.0776l.7393.0278-.6045.4263c-.3243.229-.6524.4546-.9917.6645a.612.612,0,0,0-.2559.3858.47.47,0,0,0,.0547.3574c.5737.8515,1.042,1.4922,1.5185,2.0776l.1783.2193-.2393.15c-.3813.2393-.77.4673-1.1587.6949-.2783.1631-.5566.3261-.8306.4926a.6306.6306,0,0,0-.2919.4581.6759.6759,0,0,0,.1709.5576l.84.9052-6.0063.0445C105.044,49.4509,103.2369,49.4651,101.1348,49.4793Zm6.8218-7.1216c-2.2949,0-4.5454.0625-7.1719.1894-1.4736.3057-2.1543,2.03-2.0454,3.5738a2.7777,2.7777,0,0,0,2.4092,2.8588c2.085-.0146,3.8916-.0288,5.7065-.0429l4.8721-.0362-.0674-.0727a1.1747,1.1747,0,0,1-.3-.9668,1.1281,1.1281,0,0,1,.5274-.8169c.2764-.168.5566-.332.8374-.4966.3032-.1777.6069-.3559.9072-.539-.4267-.5386-.8564-1.1333-1.3677-1.8921a.9545.9545,0,0,1-.1289-.7427,1.1133,1.1133,0,0,1,.482-.7061c.1157-.0713.23-.145.3437-.22C111.1773,42.3879,109.5562,42.3577,107.9566,42.3577Z"/>
        </g>
        <g>
          <path class="cls-2" d="M158.6139,58.6883a14.6429,14.6429,0,0,1-.33-2.2841.9013.9013,0,0,0-.642.3974c-1.6436,2.47-6.3965,2.1937-8.9659,2.2393-2.9133.0516-5.8272.0287-8.7406-.0058a68.7912,68.7912,0,0,1-9.7858-.4881c-1.9074-.2979-3.7-1.0228-4.1946-3.09a12.8209,12.8209,0,0,1-.1943-3.8687l6.8754.0449a.9538.9538,0,0,0,.35.6707c2.19,1.9165,4.9,1.6892,7.6414,1.732a79.3681,79.3681,0,0,0,10.607-.1157,4.37,4.37,0,0,0,4.1779-3.5641c.7637-3.3647.429-6.5128.18-9.92A3.8523,3.8523,0,0,0,152.467,36.84a47.6885,47.6885,0,0,0-8.8051-.506c-3.5329-.0568-12.2492-.77-12.3394,3.7669-1.6778-.0451-3.3554-.0609-5.0331-.0583-.0928-2.3658-.1293-4.6652,1.9343-6.1528,1.982-1.4288,4.5967-1.2354,6.9748-1.3474,3.762-.177,7.552-.2721,11.3155-.13,3.3807.1278,9.616-.4322,11.7921,2.6786,1.9623,2.8047,1.404,7.83,1.5908,11.0935.0807,1.4092,2.2748,1.4138,2.1939,0-.2272-3.97.419-9.9654-2.5673-13.1551-2.9623-3.1641-9.0591-2.8647-12.9547-2.871-5.6584-.0091-12.198-.3655-17.4173.7472-4.44.9466-5.1595,5.1912-5.05,9.1582-1.8944.0262-2.6574.1051-4.5542.1581-1.63.0456-1.3494,1.2551-1.082,1.473.049.04,1.5479,1.6353,2.143,2.0885-.7182.6248-1.445,1.2409-2.1546,1.8764-.6727.6026-.3409,1.5223.5044,1.9148.6441.2992,1.3307.5245,1.979.84-.5977.4248-1.2126.8268-1.7706,1.3052-.8825.7564-1.0537,1.8971,1.75,1.8292,1.2609-.03,1.3921.0165,2.6533.0248-.1889,2.88.0195,6.5336,2.7193,8.1415,3.0637,1.8246,8.0653,1.439,11.479,1.4906,4.9064.0742,9.8263.1526,14.73-.0791,2.3239-.11,4.6406-.29,6.319-1.7935A4.9189,4.9189,0,0,1,158.6139,58.6883Zm-5.3733-18.5875c.009.2795.3309,4.9359.2328,7.0768-.0585,1.2732.0862,3.3671-1.0855,4.197a5.5967,5.5967,0,0,1-2.8727.4269c-2.3438.0419-11.707.2337-13.6977-.3844a5.02,5.02,0,0,0,3.6392-4.7691c.1249-2.4234-.6579-6.3557-3.9766-6.388-.6593-.0065-1.3167-.05-1.975-.0756C133.393,37.26,153.1688,37.8734,153.2406,40.1008Zm-30.4567,9.2616c.1569-.1635.3141-.3285.4743-.4945a.9129.9129,0,0,0-.1821-1.4153c-.686-.403-1.395-.7839-2.0793-1.1992.5656-.6719,1.0774-1.3654,1.6036-2.119a.8185.8185,0,0,0-.29-1.1088c-.3508-.21-.6893-.4343-1.0247-.6632,4.9119-.1769,8.6892-.1565,13.6008.0738,3.245.6437,3.2809,6.7922-.3778,7.01C130.2236,49.4184,127.069,49.39,122.7839,49.3624Z"/>
          <path class="cls-2" d="M145.1124,61.5305c-2.4034,0-4.7979-.0361-7.1524-.0717l-.1963-.003c-.5556-.0078-1.15-.0039-1.7744-.0019-3.209.021-7.2051.039-9.8291-1.5235-2.15-1.2807-3.0859-3.935-2.8564-8.1089-.3545-.0044-.6114-.0117-.8428-.0185-.4355-.0122-.7832-.0225-1.5391-.0039-1.4365.03-2.3007-.2442-2.5254-.8291-.166-.4336.0606-.9717.6065-1.44.4385-.3754.9141-.707,1.374-1.0278l.0586-.0415c-.2187-.0942-.44-.1826-.6572-.269-.3125-.125-.624-.25-.9268-.39a1.6567,1.6567,0,0,1-.9941-1.2094,1.2269,1.2269,0,0,1,.4287-1.1182c.4775-.4273.9629-.8462,1.4473-1.2642l.4873-.4223c-.5352-.4693-1.3623-1.3267-1.7471-1.7251-.0947-.0987-.1592-.1651-.1768-.1822a1.0835,1.0835,0,0,1-.23-1.0942c.0986-.291.4218-.7842,1.4736-.8135.8047-.0224,1.4043-.05,1.9736-.0757.7129-.0322,1.377-.0625,2.3311-.0786-.0928-5.3872,1.6279-8.3838,5.2549-9.1567,4.2646-.9087,9.3183-.8447,14.2051-.7822,1.1093.0141,2.2021.0278,3.2636.03l.959-.0024c3.9649-.0215,9.377-.042,12.1787,2.9522,2.4639,2.6323,2.5215,7.1494,2.5674,10.7783.0117.9038.0225,1.7573.0674,2.5337a1.21,1.21,0,0,1-1.1983,1.32,1.37,1.37,0,0,1-1.4961-1.292c-.0429-.7549-.0458-1.5962-.05-2.4873-.0127-2.99-.0273-6.3794-1.496-8.4771-1.754-2.5083-6.3926-2.53-9.78-2.5454-.6592-.0034-1.2744-.0063-1.8164-.0263-3.2735-.1236-6.7559-.0845-11.294.1293-.3818.0181-.7685.0284-1.1592.0386-2.0048.0523-4.0781.1065-5.6806,1.2617-1.9346,1.3951-1.9219,3.5669-1.8408,5.7,1.6191-.0083,3.1357.0166,4.5566.0518a3.0563,3.0563,0,0,1,.9648-1.9922c2.1446-2.04,7.39-1.8872,10.5284-1.7954.3984.0112.7646.022,1.0869.0273.5517.0088,1.1181.0113,1.6933.0137a35.95,35.95,0,0,1,7.1592.4976,4.1157,4.1157,0,0,1,3.3233,3.811l.0664.896a29.6944,29.6944,0,0,1-.252,9.1084,4.5981,4.5981,0,0,1-4.3906,3.7573,57.0329,57.0329,0,0,1-8.3506.1724c-.7793-.022-1.5459-.043-2.292-.0547-.3057-.0049-.6113-.0063-.915-.0078-2.3955-.0108-4.8721-.0225-6.8877-1.7861a1.2625,1.2625,0,0,1-.3955-.61l-6.4317-.042a12.174,12.174,0,0,0,.2041,3.5591c.3867,1.6147,1.6543,2.5366,3.9912,2.9014a57.3142,57.3142,0,0,0,8.3487.4721l1.4.0127c2.6269.0318,5.6855.06,8.7334.0059.2763-.0049.5771-.0059.8964-.0073,2.5772-.01,6.4717-.0254,7.8663-2.1206a1.1452,1.1452,0,0,1,.8105-.5059l.2695-.043.0186.2725a14.39,14.39,0,0,0,.3252,2.2451v.0005a4.4061,4.4061,0,0,0,.1924.61l.0625.1617-.1289.1152c-1.69,1.5142-3.9327,1.7368-6.4746,1.8569C150.0557,61.4924,147.5792,61.5305,145.1124,61.5305Zm-8.1534-.58q.4189,0,.8125.0054l.1963.003c4.7618.0727,9.6875.1464,14.5176-.0816,2.3789-.1128,4.48-.3144,6.0361-1.6191a4.632,4.632,0,0,1-.15-.5137,14.4439,14.4439,0,0,1-.3125-2.0049.6334.6334,0,0,0-.209.2c-1.542,2.3174-5.5967,2.3335-8.28,2.3438-.3164.0014-.6152.0024-.8887.0073-3.0586.0542-6.1181.0254-8.749-.0059l-1.3984-.0127a57.71,57.71,0,0,1-8.4219-.478c-1.6123-.252-3.8223-.8657-4.4-3.2793a13.1184,13.1184,0,0,1-.2-3.9443l.0156-.2339,7.3448.0478.0146.2339a.7084.7084,0,0,0,.2647.4976c1.875,1.6406,4.15,1.6509,6.56,1.6621.3067.0015.6133.0029.9209.0078.7481.0117,1.5166.0332,2.2979.0547a56.3468,56.3468,0,0,0,8.2744-.1685c2.2461-.2793,3.5058-1.3506,3.9648-3.3716a29.2833,29.2833,0,0,0,.2412-8.96l-.0654-.8862a3.5742,3.5742,0,0,0-2.9287-3.3692,35.5771,35.5771,0,0,0-7.0576-.4868c-.5772-.0024-1.1455-.0049-1.6992-.0137-.3252-.0053-.6934-.0161-1.0938-.0278-3.0586-.0889-8.1758-.24-10.1689,1.6582a2.5611,2.5611,0,0,0-.8233,1.8911l-.0049.252-.2519-.0069c-1.5566-.0415-3.1924-.0576-5.0264-.0581l-.24,0-.01-.2407c-.0869-2.2319-.1865-4.7612,2.0381-6.3652,1.7285-1.2456,3.88-1.3023,5.961-1.3565.3867-.01.77-.02,1.1484-.0376,4.5527-.2143,8.0478-.2549,11.3369-.13.5361.02,1.1455.0234,1.8.0263,3.4961.0161,8.2842.0386,10.1875,2.7588,1.5576,2.2256,1.5723,5.6978,1.5859,8.7617.004.8843.0069,1.7193.05,2.461a.8651.8651,0,0,0,.9678.8208.7146.7146,0,0,0,.7266-.7925c-.0449-.7876-.0557-1.6465-.0674-2.5557-.0469-3.727-.1006-7.9521-2.4326-10.4429-2.6533-2.8349-7.95-2.81-11.8106-2.7939l-.9619.0024c-1.0644-.0019-2.1592-.0156-3.27-.03-4.8594-.0625-9.8828-.1265-14.0947.7714-3.4561.7364-4.9981,3.5669-4.8525,8.9068l.0068.2534-.2539.0034c-1.085.0147-1.7979.0474-2.5674.0821-.5713.0258-1.1738.0532-1.9824.0761-.39.0108-.8819.1011-1.0117.4688a.6254.6254,0,0,0,.081.56c.0117.0093.09.0884.2109.2139.4.416,1.4659,1.52,1.9249,1.87l.2441.1861-.9434.8173c-.4824.4165-.9648.8331-1.4394,1.2583a.7333.7333,0,0,0-.2686.6719,1.1823,1.1823,0,0,0,.711.83c.2939.1362.5976.2573.9013.3789.3565.1421.7256.2891,1.0821.4629l.3789.1841-.7627.5381c-.4492.3134-.9141.6377-1.333.9975-.3682.3145-.5508.6607-.4659.8809.0489.13.3516.5566,2.0469.5083.7686-.02,1.1221-.0093,1.5645.0044.2832.0083.6025.0171,1.0967.02l.2646.0019-.0176.2647c-.27,4.1206.5791,6.708,2.5977,7.91,2.5039,1.4917,6.4228,1.4717,9.57,1.4532C136.3194,60.9524,136.6436,60.95,136.959,60.95Zm6.9815-8.8369c-3.34,0-7.0059-.0874-8.1973-.4575L134.95,51.41l.7968-.2324a4.76,4.76,0,0,0,3.46-4.5425c.0811-1.58-.249-3.8769-1.4453-5.1489a3.06,3.06,0,0,0-2.2832-.9761c-.4522-.0044-.9014-.0259-1.3516-.0473l-.8633-.0376-.0088-.231a1.1616,1.1616,0,0,1,.6651-1.01c2.8662-1.7968,15.9814-1.4589,18.8867.0894.4434.2363.6738.5122.6836.8193h0c.001.0435.0107.1949.0244.4268.08,1.3276.292,4.854.209,6.6689-.0088.1783-.0127.3721-.0166.5767-.0283,1.2778-.0654,3.0278-1.1748,3.8135a4.6222,4.6222,0,0,1-2.585.4712c-.1523-.0005-.2949-.0005-.4267.0014l-.2442.0044C148.15,52.0764,146.1133,52.1135,143.9405,52.1135Zm-7.22-.771a107.7586,107.7586,0,0,0,12.5468.2134l.2432-.0044c.1367-.0019.2822-.0019.4385-.0014a4.3017,4.3017,0,0,0,2.2939-.3794c.9033-.64.9366-2.1792.9639-3.4161.0039-.2089.0088-.4072.0166-.5888.082-1.7886-.1367-5.4219-.208-6.6162-.0147-.2393-.0234-.3955-.0254-.4409h0c-.0029-.1084-.16-.2559-.4189-.3936-2.7227-1.4507-15.667-1.811-18.3858-.1074a1.0909,1.0909,0,0,0-.3691.34l.3349.0151c.4434.0215.8868.0425,1.3311.0469a3.5387,3.5387,0,0,1,2.6426,1.1338c1.3037,1.3848,1.6718,3.7578,1.582,5.5171A5.2661,5.2661,0,0,1,136.7208,51.3425Zm-2.1973-1.6464-12.32-.0874.875-.9141a.6673.6673,0,0,0,.18-.5576.6384.6384,0,0,0-.3086-.4693c-.2832-.166-.57-.3286-.8574-.4912-.41-.2319-.8223-.4648-1.2246-.7094l-.2491-.1519.1875-.2231c.4971-.5909.9873-1.2388,1.59-2.1006a.4551.4551,0,0,0,.0586-.3545.6238.6238,0,0,0-.2715-.3965c-.3555-.2124-.6983-.44-1.0381-.6714l-.6309-.4287.7627-.0278c4.9-.1773,8.72-.1553,13.6221.0742,1.8975.373,2.749,2.3579,2.6279,4.1274A3.3221,3.3221,0,0,1,134.5235,49.6961Zm-11.1582-.58,11.1455.08a2.8462,2.8462,0,0,0,2.5176-2.9165c.1055-1.5512-.6133-3.2856-2.19-3.5986-4.5889-.2129-8.2442-.2422-12.7637-.0957.12.0767.2422.1519.3642.2251a1.12,1.12,0,0,1,.5039.7212.94.94,0,0,1-.1367.7456c-.5361.7671-.9853,1.3682-1.43,1.9111.3174.1885.64.3706.962.5528.29.164.5791.3276.8652.4951a1.1383,1.1383,0,0,1,.5508.8325,1.1653,1.1653,0,0,1-.3164.9727Z"/>
        </g>
      </g>
    </g>
  </g>
</svg>
