<svg xmlns="http://www.w3.org/2000/svg" viewBox="0 0 188.8225 207.7497">
  <defs>
    <style>
      .cls-1 {
        fill: #d1d3d4;
      }

      .cls-2 {
        fill: #65ce21;
      }
    </style>
  </defs>
  <title>arbitrary-competencies</title>
  <g id="Layer_2" data-name="Layer 2">
    <g id="Layer_2-2" data-name="Layer 2">
      <g>
        <path class="cls-1" d="M.1122,204.1882c12.4688-1.7936,24.1158-5.8395,36.8686-6.3764,12.0234-.5062,23.196,1.9408,35,3.4156,1.9421.2426,1.98-2.5677.4291-3.17-11.5349-4.4809-25.8788-4.6613-38.041-3.6544-11.521.9539-24.6146,2.9462-34.3259,9.6217a.09.09,0,0,0,.0691.1638Z"/>
        <path class="cls-1" d="M24.5208,207.75c5.8927-.1009,11.631-1.7015,17.5122-2.0919,6.0231-.4,11.886.5023,17.8817.6323a1.689,1.689,0,0,0,.447-3.3023c-10.5817-3.1354-26.7371-2.2526-35.9635,4.3094a.245.245,0,0,0,.1226.4525Z"/>
        <path class="cls-1" d="M19.54,159.8763a49.6219,49.6219,0,0,0,8.1781-5.3559c2.7864-2.123,6.0421-4.2419,8.2749-6.9416a1.1711,1.1711,0,0,0-1.4125-1.8308c-2.9861,1.6863-5.553,4.41-8.0752,6.7142a50.923,50.923,0,0,0-6.9959,7.3834c-.0144.02.0126.04.0306.0307Z"/>
        <path class="cls-1" d="M20.262,168.8639a33.2811,33.2811,0,0,0,6.5642-4.21,40.7889,40.7889,0,0,0,6.2929-5.2194.9232.9232,0,0,0-1.1137-1.4434,30.3409,30.3409,0,0,0-6.5031,4.9471,26.3666,26.3666,0,0,0-5.253,5.9093c-.0043.0077.0032.02.0127.0165Z"/>
        <path class="cls-1" d="M20.113,177.4452a23.236,23.236,0,0,0,5.7348-3.5863c1.9582-1.4837,4.3367-2.9677,5.75-4.9969.6366-.9138-.5718-1.8675-1.4261-1.4262-2.0731,1.0708-3.7834,3.1092-5.4827,4.6888a27.3972,27.3972,0,0,0-4.7661,5.0736.17.17,0,0,0,.19.247Z"/>
        <path class="cls-1" d="M21.0059,184.6641c2.6086-.6976,4.8639-2.4465,7.0619-3.9554,2.2389-1.5369,4.8767-3.0679,6.6438-5.1365a1.1713,1.1713,0,0,0-1.4125-1.8307c-2.4641,1.1058-4.6976,3.2266-6.7978,4.937-2.0648,1.6815-4.3589,3.3374-5.7612,5.64a.238.238,0,0,0,.2658.3458Z"/>
        <path class="cls-1" d="M22.1051,191.512a10.6092,10.6092,0,0,0,3.1239-1.5088,8.2864,8.2864,0,0,0,2.7306-2.07.8265.8265,0,0,0-.924-1.2019,8.4327,8.4327,0,0,0-2.8077,1.9748,10.453,10.453,0,0,0-2.376,2.4768.2267.2267,0,0,0,.2532.3293Z"/>
        <path class="cls-2" d="M167.1871.1121a14.578,14.578,0,0,0-6.2583.6372c-5.2574.9149-10.6659,3.1544-15.2851,5.0515a140.9746,140.9746,0,0,0-20.0976,9.9647A181.39,181.39,0,0,0,91.1144,43.22c-.0618-.1474-25.2553-13.2883-25.643-13.2988a.2929.2929,0,0,0-.2919.2919c.3755,3.0971,9.8377,15.676,12.5119,19.1626,2.4218,3.1576,12.7725,18.0754,16.1652,20.1889C97.51,71.84,106.6718,50.1024,129.1532,30.2993c5.9678-5.2569,11.7473-10.7855,18.0716-15.6091a115.6862,115.6862,0,0,1,10.4364-7.2313c3.245-1.9526,7.1435-3.4828,9.8318-6.1879C167.8244.9375,167.7241.1881,167.1871.1121ZM125.53,24.9787a174.2066,174.2066,0,0,0-30.9871,35.91c-1.1779-1.7981-2.6657-3.4636-3.92-5.0826-2.6533-3.4256-5.415-6.7713-8.3071-9.9982-2.792-3.1151-9.3464-9.5718-9.6465-9.8521,1.3029.5606,18.2656,14.0074,20.169,12.1706a205.8087,205.8087,0,0,1,35.7384-27.1756q2.9855-1.7942,6.0089-3.545Q129.94,21.0451,125.53,24.9787Z"/>
        <path class="cls-2" d="M127.4139,16.484C125.01,9.1772,116.376,5.2436,109.4692,3.317a49.7742,49.7742,0,0,0-24.3913-.5738A47.1934,47.1934,0,0,0,51.1767,33.94,43.6928,43.6928,0,0,0,61.9908,78.1373C74.1374,90.172,93.2351,93.4634,109.3227,88.609c18.1415-5.4741,32.5738-22.5078,32.2193-41.9278-.092-5.042-6.0649-5.0109-6.29,0-.628,14.0132-8.7737,27.7959-21.5618,33.6877-12.8014,5.8981-30.83,5.2053-42.415-3.1539C60.652,69.55,53.3371,53.929,55.2215,41.01,57.1453,27.8209,66.1031,14.6911,78.1836,9.1935c15.3374-6.98,35.1671-2.4564,48.0714,7.9651.49.3958,1.3965.0474,1.1589-.6746Z"/>
        <path class="cls-2" d="M128.1426,151.3691C117.9,153.6423,97.5129,165.3206,92.09,169.65A30.4782,30.4782,0,0,0,83.25,166.093c-2.5385-.6935-5.7635-1.5811-8.3106-.6677a.2036.2036,0,0,0-.0479.3668c.1562.1018,7.0159,5.4248,9.9829,8.302a117.15,117.15,0,0,1,8.8768,10.145,1.6843,1.6843,0,0,0,2.8328-.3545,188.1641,188.1641,0,0,1,14.6282-17.3178c2.5161-2.53,5.1225-5.0081,7.8449-7.3159,2.9823-2.528,9.3562-7.73,9.27-7.8169A.1974.1974,0,0,0,128.1426,151.3691Zm-18.7863,12.4951A127.1232,127.1232,0,0,0,94.95,179.8458a77.0922,77.0922,0,0,0-9.3007-8.9941,44.8815,44.8815,0,0,0-3.959-2.924c.3338.0789.6627.1624.9838.2542,2.989.8548,9.1762,4.7791,9.7749,4.3239a165.8471,165.8471,0,0,1,17.7273-11.8514c2.5461-1.44,7.5912-4.0764,10.2387-5.32A138.66,138.66,0,0,0,109.3563,163.8642Z"/>
        <path class="cls-2" d="M61.3017,134.8849a63.577,63.577,0,0,0-6.64-16.8616c-1.8754-3.24-4.705-8.6094-8.34-10.8733a21.19,21.19,0,0,0,4.0368-14.3351c-.8907-7-7.2681-12.5252-14.192-13.0679-7.4875-.5868-14.5355,4.5483-17.242,11.37-2.0932,5.2761-1.8026,16.5828,4.1324,19.777a31.5144,31.5144,0,0,0-5.82,6.4907,43.0728,43.0728,0,0,0-6.8845,15.66,45.321,45.321,0,0,0-.6664,16.3719c.6147,4.2261,3.3878,11.6793,9.0178,9.71-.23,4.0533-.283,8.1241-.225,12.1952a131.8662,131.8662,0,0,0,1.0816,15.72c.5019,3.7263,1.3535,7.7183,4.5826,10.0671,4.52,3.2878,8.6836,1.1565,11.4015-2.4917a8.75,8.75,0,0,0,11.0549,2.6483c5.406-2.5993,7.19-8.7414,7.7384-14.2518.7314-7.3464-.0068-14.8149-.6175-22.1429q-.2157-2.5884-.4558-5.1757a8.492,8.492,0,0,0,8.0649-4.4537C64.0326,146.4377,62.5143,139.907,61.3017,134.8849Zm-8.5033,16.1334c-.0454-.4342-.0841-.8692-.1312-1.3032-.35-3.2261-.4478-6.983-2.1143-9.825a.1663.1663,0,0,0-.3.0393c-1.1079,3.4885,1.0134,25.2709,1.1854,30.5107.1641,4.9983.3057,10.3063-.8138,15.2115-.663,2.9052-1.9262,5.869-4.5447,7.5307-2.5871,1.6419-7.5561.8819-8.41-2.4013a16.2812,16.2812,0,0,0,.8423-2.7953,82.7542,82.7542,0,0,0,.11-29.38c-.3189-1.8216-3.22-1.37-3.19.4317.1286,7.6647.5222,15.2543-.2392,22.9064-.3287,3.3026-.7,7.048-2.6986,9.8274-3.8153,5.3045-7.5043.3133-8.3212-3.9548-3.0914-16.1508-.3041-32.6727-2.0033-48.8961-.0262-.25-.3941-.3406-.4659-.0631a99.463,99.463,0,0,0-2.706,16.19c-2.36-1.1363-3.5141-2.0493-4.1726-4.89a33.7359,33.7359,0,0,1-.7011-6.6068,43.1833,43.1833,0,0,1,1.6656-13.345,40.9819,40.9819,0,0,1,5.4466-11.6741c2.3714-3.4786,5.597-6.2086,7.8854-9.7368a.4428.4428,0,0,0-.4945-.6433c-.3854.0827-.7592.19-1.1277.3076-3.1985-1.5859-5.6361-7.996-4.0668-14.82a12.4207,12.4207,0,0,1,12.1565-9.1024c5.3761.218,10.6809,5.0506,10.7193,10.48.0449,6.3571-4.88,11.772-7.2135,17.3235a.3849.3849,0,0,0,.4714.4713,15.2542,15.2542,0,0,0,5.2356-3.8155c2.3449,2.7284,8.5405,14.87,10.0444,19.1325C56.2806,132.1921,62.4705,153.4584,52.7984,151.0183Z"/>
        <path class="cls-2" d="M133.5771,93.332c-12.2737,2.724-36.7038,16.7182-43.2025,21.9066-3.0906-2.0728-7.022-3.2876-10.5923-4.2629-3.0419-.831-6.9064-1.8946-9.9585-.8a.2439.2439,0,0,0-.0575.4395c.1872.1219,8.4072,6.5006,11.9625,9.9483A140.3618,140.3618,0,0,1,92.366,132.72c1.0915,1.3334,2.6715.74,3.3945-.4249,5.58-7.1554,11.1183-14.3052,17.5291-20.7519,3.0151-3.0321,6.1383-6.0014,9.4006-8.7668,3.5737-3.0293,11.2116-9.2625,11.1081-9.367A.2364.2364,0,0,0,133.5771,93.332Zm-22.5117,14.973a152.3267,152.3267,0,0,0-17.2629,19.1508,92.3838,92.3838,0,0,0-11.1451-10.7777,53.8092,53.8092,0,0,0-4.744-3.5039c.4.0946.7941.1947,1.1789.3047,3.5817,1.0243,10.9959,5.7268,11.7133,5.1814a198.7168,198.7168,0,0,1,21.2427-14.2016c3.051-1.7258,9.0966-4.8849,12.269-6.3755A166.15,166.15,0,0,0,111.0654,108.305Z"/>
        <path class="cls-1" d="M167.7134,206.9886c-9.0932-6.54-25.16-7.4446-35.6408-4.3094a1.689,1.689,0,0,0,.4469,3.3023c5.954-.13,11.736-1.0676,17.7188-.6322,5.8232.4238,11.514,1.9919,17.3525,2.0918a.245.245,0,0,0,.1226-.4525Z"/>
        <path class="cls-1" d="M178.6386,161.9576a50.3663,50.3663,0,0,0-6.9246-7.3833c-2.4962-2.3026-5.0425-5.0282-8.0039-6.7143a1.1712,1.1712,0,0,0-1.4126,1.8308c2.1982,2.6873,5.4458,4.8276,8.2,6.9416a49.178,49.178,0,0,0,8.111,5.3559c.0181.0089.0449-.0109.0306-.0307Z"/>
        <path class="cls-1" d="M177.9056,170.9594a26.0784,26.0784,0,0,0-5.1981-5.9094,30.0512,30.0512,0,0,0-6.4466-4.947.9232.9232,0,0,0-1.1138,1.4434,40.3077,40.3077,0,0,0,6.2364,5.2195,32.9512,32.9512,0,0,0,6.51,4.21c.01.004.017-.0087.0126-.0165Z"/>
        <path class="cls-1" d="M178.23,179.31a27.1012,27.1012,0,0,0-4.7173-5.0736c-1.6812-1.578-3.3788-3.6185-5.4346-4.6888-.8577-.4465-2.0555.5111-1.4261,1.4262,1.3968,2.0308,3.7536,3.5115,5.6994,4.9969a23.0757,23.0757,0,0,0,5.6887,3.5863.17.17,0,0,0,.19-.247Z"/>
        <path class="cls-1" d="M177.4211,186.43c-1.3773-2.2963-3.66-3.9613-5.7022-5.64-2.0778-1.7083-4.2824-3.8257-6.7388-4.937a1.1713,1.1713,0,0,0-1.4125,1.8307c1.7356,2.0551,4.38,3.61,6.5848,5.1365,2.1818,1.5112,4.4082,3.2559,7.0029,3.9554a.238.238,0,0,0,.2658-.3457Z"/>
        <path class="cls-1" d="M176.3193,193.2948a10.3286,10.3286,0,0,0-2.3508-2.4769,8.343,8.343,0,0,0-2.7854-1.9748.8269.8269,0,0,0-.924,1.2019,8.1913,8.1913,0,0,0,2.7084,2.07,10.4707,10.4707,0,0,0,3.0987,1.5088.2267.2267,0,0,0,.2531-.3292Z"/>
        <path class="cls-2" d="M137.2273,136.9969a63.9244,63.9244,0,0,1,6.58-16.8616c1.8583-3.24,4.6622-8.6094,8.2644-10.8733a21.3325,21.3325,0,0,1-4-14.335c.8826-7.0005,7.2019-12.5253,14.0627-13.068,7.4192-.5868,14.403,4.5483,17.0848,11.37,2.0741,5.2761,1.7862,16.5829-4.0948,19.777a31.42,31.42,0,0,1,5.7669,6.4907,43.2749,43.2749,0,0,1,6.8216,15.66,45.7282,45.7282,0,0,1,.66,16.3719c-.6091,4.2261-3.357,11.6793-8.9356,9.71.2279,4.0533.28,8.1241.223,12.1953a133.0787,133.0787,0,0,1-1.0718,15.7195c-.4973,3.7263-1.3412,7.7183-4.5409,10.0671-4.479,3.2878-8.6044,1.1565-11.2975-2.4917a8.6212,8.6212,0,0,1-10.9542,2.6483c-5.3567-2.5993-7.1242-8.7414-7.6678-14.2518-.7247-7.3464.0067-14.8149.6119-22.1428q.2138-2.5886.4516-5.1758a8.3979,8.3979,0,0,1-7.9914-4.4537C134.5213,148.55,136.0258,142.0191,137.2273,136.9969Zm8.4258,16.1334c.0451-.4342.0834-.8692.13-1.3032.347-3.2261.4438-6.9829,2.0951-9.825a.1641.1641,0,0,1,.2974.0393c1.0978,3.4885-1.0041,25.2709-1.1746,30.5107-.1626,4.9983-.3029,10.3063.8064,15.2115.657,2.9052,1.9086,5.869,4.5033,7.5308,2.5635,1.6418,7.4872.8818,8.3332-2.4014a16.4029,16.4029,0,0,1-.8345-2.7952,83.5005,83.5005,0,0,1-.1089-29.38c.316-1.8216,3.1907-1.37,3.1607.4317-.1274,7.6647-.5174,15.2543.2371,22.9064.3256,3.3026.6931,7.048,2.6739,9.8274,3.7806,5.3045,7.4359.3133,8.2454-3.9548,3.0633-16.1508.3013-32.6726,1.985-48.8961.026-.25.3906-.3406.4617-.0631a100.293,100.293,0,0,1,2.6814,16.1905c2.3387-1.1364,3.482-2.0494,4.1345-4.8905a34.03,34.03,0,0,0,.6947-6.6068,43.5574,43.5574,0,0,0-1.65-13.345,41.1561,41.1561,0,0,0-5.3971-11.6741c-2.35-3.4786-5.5459-6.2085-7.8135-9.7368a.4418.4418,0,0,1,.49-.6433c.3819.0827.7523.19,1.1174.3077,3.1694-1.586,5.5848-7.9961,4.03-14.82a12.3239,12.3239,0,0,0-12.0457-9.1024c-5.3271.218-10.5836,5.0506-10.6216,10.48-.0445,6.3571,4.8351,11.7721,7.1477,17.3235a.3831.3831,0,0,1-.467.4714,15.1244,15.1244,0,0,1-5.188-3.8156c-2.3234,2.7284-8.4626,14.87-9.9528,19.1325C142.2027,134.3041,136.0692,155.57,145.6531,153.13Z"/>
      </g>
    </g>
  </g>
</svg>
